<?xml version="1.0" encoding="UTF-8" standalone="no"?>
<svg width="43px" height="23px" viewBox="0 0 43 23" version="1.1" xmlns="http://www.w3.org/2000/svg" xmlns:xlink="http://www.w3.org/1999/xlink">
    <!-- Generator: Sketch 3.8.3 (29802) - http://www.bohemiancoding.com/sketch -->
    <title>AT</title>
    <desc>Created with Sketch.</desc>
    <defs></defs>
    <g id="Page-1" stroke="none" stroke-width="1" fill="none" fill-rule="evenodd">
        <path d="M0.804,13.468 C0.804,13.905 1.614,14.028 1.364,14.653 C1.302,14.777 1.054,14.715 0.991,14.777 C0.931,14.963 0.743,15.461 0.556,16.022 L0.866,16.708 L0.866,17.456 C1.49,17.519 2.486,17.643 2.546,17.643 C2.672,17.768 2.36,17.955 2.486,18.08 C2.796,18.453 3.17,18.703 3.606,18.89 C4.601,19.388 4.786,17.706 5.472,17.83 C6.78,18.017 5.412,18.703 5.847,18.89 C6.842,19.388 5.971,18.765 6.967,18.89 C7.465,18.95 7.962,20.26 8.957,19.7 L9.767,18.017 C10.265,17.642 12.443,17.891 13.003,17.829 C13.937,17.767 14.683,16.957 15.618,16.957 C15.868,16.957 15.182,17.269 15.12,17.517 C14.81,18.827 15.618,17.954 16.115,18.702 C16.24,18.888 15.929,19.138 16.053,19.387 C16.115,19.512 16.303,19.263 16.426,19.387 C17.609,20.259 17.92,20.384 19.538,20.633 C21.404,20.883 23.334,20.945 25.263,21.256 C25.761,21.316 26.258,21.692 26.756,21.754 C27.254,21.816 27.752,21.442 28.25,21.504 C28.56,21.567 28.747,22.004 29.06,22.004 C29.183,22.064 29.12,21.692 29.245,21.629 C29.555,21.317 30.055,21.193 30.365,20.819 C30.615,20.632 30.428,20.196 30.615,20.009 C31.797,19.074 33.041,20.259 34.161,19.759 C34.534,19.573 34.597,19.012 34.971,18.887 C35.031,18.827 37.086,19.137 37.149,19.075 C37.335,19.013 36.961,18.765 36.899,18.577 C36.775,17.954 37.024,17.58 37.459,17.455 C38.579,16.209 39.077,16.022 39.639,15.088 C39.762,14.838 38.642,13.531 38.953,12.908 C39.388,12.036 40.446,12.97 40.321,11.724 C40.259,10.664 38.391,10.79 38.766,10.478 C39.638,9.73 41.878,10.728 42.251,10.042 C42.313,9.792 41.441,7.799 42.313,7.425 C41.566,6.615 40.943,5.805 40.383,4.87 C39.886,4.06 41.69,2.752 40.383,1.817 C40.197,1.691 39.948,2.065 39.763,2.065 C39.451,2.003 38.828,1.193 38.393,1.318 C38.081,1.443 37.957,1.942 37.583,2.128 C37.335,2.191 37.023,2.066 36.775,2.066 C35.095,1.879 33.663,0.509 31.859,0.509 C31.549,0.509 31.299,0.883 30.987,0.883 C30.863,0.821 30.987,0.51 30.863,0.447 C30.613,0.323 30.241,0.197 30.053,0.385 C29.993,0.51 30.117,2.317 29.993,2.441 C29.868,2.628 29.433,2.191 29.183,2.379 L28.685,3.999 C28.25,4.124 27.815,3.563 27.378,3.563 C27.13,3.563 27.192,4.061 26.943,4.123 C25.636,4.623 24.889,3.313 23.893,2.815 L23.831,2.815 C23.893,3.002 23.956,3.189 23.956,3.375 C23.893,5.058 23.52,4.685 22.213,4.373 C22.089,4.373 21.965,4.435 21.903,4.559 C21.778,5.183 22.151,5.869 21.529,6.367 C20.969,6.803 18.356,7.427 18.293,8.423 C18.293,8.423 19.787,10.479 19.787,10.541 C19.849,10.603 18.977,11.351 19.287,11.601 C19.973,12.224 20.657,11.289 20.097,13.345 C20.097,13.47 19.973,13.657 19.849,13.657 C17.859,13.097 19.414,12.099 18.479,12.037 C17.982,12.037 17.546,12.473 17.049,12.411 C16.799,12.348 16.862,11.911 16.675,11.851 C16.302,11.725 15.929,12.037 15.618,11.911 C15.493,11.851 15.742,11.476 15.618,11.476 C14.871,11.538 15.555,12.536 15.368,12.596 C14.498,12.846 13.068,12.473 12.258,12.784 C12.008,12.909 12.132,13.344 11.883,13.47 C11.635,13.658 11.323,13.346 11.075,13.533 C10.888,13.596 11.137,13.907 11.013,14.031 C10.951,14.095 8.835,14.656 8.586,14.531 C8.462,14.407 8.586,14.095 8.462,13.971 C8.398,13.845 8.087,13.845 8.025,13.721 C7.962,13.597 8.335,13.659 8.275,13.534 C8.025,12.724 6.283,13.721 5.785,13.161 C5.785,13.161 5.91,13.098 5.91,13.035 C5.535,12.785 5.91,13.845 5.784,14.281 C5.784,14.531 4.602,15.964 4.166,15.528 C3.918,15.278 4.602,14.905 4.416,14.656 C4.353,14.593 4.166,14.842 4.042,14.842 C3.918,14.842 3.732,14.782 3.669,14.657 C3.545,14.47 3.979,14.22 3.669,13.971 C3.419,13.783 3.295,13.471 3.046,13.347 C2.86,13.223 2.611,13.534 2.361,13.472 C2.236,13.348 2.361,13.036 2.236,12.912 C1.926,12.662 1.986,13.784 0.992,13.472 C0.932,13.41 0.868,13.41 0.806,13.41 L0.806,13.473" id="AT"></path>
    </g>
</svg>