<?xml version="1.0" encoding="UTF-8" standalone="no"?>
<svg width="96px" height="28px" viewBox="0 0 96 28" version="1.1" xmlns="http://www.w3.org/2000/svg" xmlns:xlink="http://www.w3.org/1999/xlink">
    <!-- Generator: Sketch 3.8.3 (29802) - http://www.bohemiancoding.com/sketch -->
    <title>BG</title>
    <desc>Created with Sketch.</desc>
    <defs></defs>
    <g id="Page-1" stroke="none" stroke-width="1" fill="none" fill-rule="evenodd">
        <path d="M85.795,20.608 C85.485,20.545 85.173,20.545 84.985,20.545 C82.559,21.043 86.48,22.788 85.111,23.848 C85.111,23.848 83.181,24.471 83.121,24.471 C82.249,24.781 80.818,25.904 79.884,25.841 C79.698,25.841 79.822,25.531 79.698,25.468 C79.075,25.156 78.268,24.782 77.582,24.968 C77.334,25.032 77.334,25.53 77.085,25.592 C76.899,25.654 76.775,25.218 76.587,25.156 C76.462,25.094 76.277,25.343 76.214,25.218 C75.778,24.968 75.654,24.284 75.156,24.221 C74.782,24.097 74.596,24.721 74.222,24.781 C73.972,24.907 73.662,24.408 73.476,24.533 C72.356,25.218 71.92,25.966 70.178,26.589 C69.431,26.839 68.498,26.589 67.813,27.026 C67.565,27.15 67.565,27.65 67.317,27.774 C67.129,27.961 66.817,27.774 66.569,27.774 L65.761,27.774 C65.699,27.836 65.761,27.961 65.761,27.961 C65.885,27.587 65.761,24.347 65.699,24.347 C65.263,23.911 64.579,22.665 64.019,22.291 C63.707,22.104 63.272,22.291 62.899,22.104 C62.774,22.041 61.094,20.734 61.094,20.609 C61.406,20.047 62.276,19.923 61.966,19.113 C61.903,18.863 61.716,18.739 61.53,18.613 C61.406,18.553 61.22,18.677 61.157,18.553 C61.095,18.241 61.157,17.929 61.157,17.617 C61.095,17.244 60.659,16.87 60.847,16.559 C62.65,13.569 60.597,17.244 62.587,15.686 C62.775,15.5 64.081,13.194 63.707,12.82 C63.211,12.447 60.847,11.326 60.721,11.2 C59.975,10.578 58.791,7.96 59.228,7.027 C59.414,6.59 60.098,6.652 60.348,6.279 C60.534,5.842 60.286,5.279 60.472,4.845 C61.282,5.218 62.276,5.468 62.712,5.715 C63.272,5.965 60.908,7.337 61.966,7.773 C63.46,8.396 63.896,7.275 65.264,7.15 C67.006,6.964 69.06,7.96 70.802,7.338 C71.175,7.213 71.3,6.714 71.672,6.59 C72.607,6.28 73.664,6.34 74.66,6.403 C75.905,6.465 76.838,6.963 78.083,6.216 C79.451,5.344 79.637,4.036 80.695,2.976 C81.629,2.041 83.805,1.046 84.989,0.546 C87.789,-0.514 86.919,0.982 87.976,0.856 C88.473,0.796 88.846,0.236 89.346,0.236 C90.962,0.172 88.971,1.419 90.466,0.608 C90.652,0.546 90.776,0.298 90.962,0.235 C91.335,0.048 91.397,0.92 91.708,1.17 C92.642,1.98 94.258,1.42 95.255,1.232 L95.38,1.232 C95.628,2.789 95.753,4.222 95.318,4.472 C95.068,4.597 94.758,4.16 94.448,4.222 C92.144,4.846 93.638,4.782 92.953,6.154 C92.893,6.404 92.456,6.404 92.333,6.59 C92.333,6.714 92.705,6.652 92.705,6.777 C92.83,7.774 92.767,8.397 93.015,9.394 C93.078,9.768 93.452,10.266 93.265,10.578 C93.078,10.89 92.518,10.703 92.208,10.89 C92.145,10.89 92.394,11.014 92.394,11.076 C92.271,11.326 91.959,11.388 91.897,11.636 C91.835,11.824 92.209,12.011 92.084,12.136 C91.834,12.509 91.274,12.634 91.026,13.008 C89.906,14.504 92.644,12.26 93.328,13.942 C93.39,14.067 93.204,14.254 93.204,14.379 C93.266,14.439 94.634,15.249 94.946,15.499 C95.133,15.749 95.32,15.936 95.382,16.122 L95.257,16.122 C94.884,16.184 94.511,16.122 94.137,16.247 C93.64,16.434 93.267,16.87 92.831,17.182 C92.706,17.244 92.831,17.492 92.768,17.432 C91.338,17.119 90.901,15.998 89.47,16.746 L88.412,17.929 C87.977,18.116 87.417,17.805 87.106,18.116 C86.732,18.428 87.106,19.051 86.856,19.424 C86.484,19.861 85.239,19.674 85.799,20.609 M0.42,13.754 C0.543,13.567 0.543,13.318 0.73,13.194 C1.228,12.694 1.104,14.626 0.42,13.754" id="BG"></path>
    </g>
</svg>