<?xml version="1.0" encoding="UTF-8" standalone="no"?>
<svg width="27px" height="17px" viewBox="0 0 27 17" version="1.1" xmlns="http://www.w3.org/2000/svg" xmlns:xlink="http://www.w3.org/1999/xlink">
    <!-- Generator: Sketch 3.8.3 (29802) - http://www.bohemiancoding.com/sketch -->
    <title>CH</title>
    <desc>Created with Sketch.</desc>
    <defs></defs>
    <g id="Page-1" stroke="none" stroke-width="1" fill="none" fill-rule="evenodd">
        <path d="M25.845,7.888 C25.782,8.138 25.845,8.451 25.72,8.698 C25.658,8.948 25.47,9.136 25.347,9.385 C25.347,9.51 26.529,10.382 25.782,10.631 C24.476,10.943 24.912,9.136 23.792,9.946 C22.92,10.569 24.04,11.254 24.164,11.566 C24.227,11.816 23.854,12.002 23.854,12.251 C23.916,12.501 24.164,12.625 24.289,12.811 C24.349,13.061 23.853,13.311 23.604,13.186 C23.168,12.936 23.417,11.94 22.919,11.876 C21.239,11.566 22.049,12.812 21.052,12.5 C19.434,12.127 20.43,10.88 19.622,10.756 C18.562,10.569 19.248,12.251 19.248,12.376 C18.998,13.496 17.504,13.871 17.504,15.242 C17.504,15.865 18.749,15.616 17.691,16.425 C17.317,16.737 17.193,15.678 16.944,15.367 C16.758,15.177 16.322,15.303 16.26,15.054 C16.197,14.804 16.633,14.618 16.695,14.369 C16.695,14.244 16.571,14.119 16.509,14.119 C15.825,13.869 14.829,13.683 14.394,12.873 C14.332,12.623 14.519,12.375 14.519,12.188 C14.519,11.815 14.581,11.441 14.456,11.068 C14.394,11.005 14.27,11.128 14.146,11.192 C13.834,11.442 13.586,11.69 13.274,11.94 C12.964,12.19 12.464,12.313 12.34,12.687 C12.28,12.937 12.84,13.06 12.777,13.372 C12.777,13.682 11.035,15.49 10.972,15.49 C10.412,15.49 9.977,14.742 9.417,14.867 C8.607,15.054 6.927,16.3 6.305,15.177 C6.057,14.805 6.057,14.369 5.745,14.057 C5.683,13.932 5.435,14.307 5.372,14.182 C5.309,13.995 5.622,13.682 5.496,13.496 C5.434,13.308 5.061,13.496 4.936,13.371 C4.563,12.747 5.434,12.811 5.372,12.436 C5.309,12.126 4.936,12 4.936,11.688 C4.874,11.501 5.372,11.128 5.123,11.065 C4.313,10.691 2.573,10.691 2.013,11.562 C1.887,11.687 1.95,11.812 1.95,11.999 C2.012,12.124 2.323,12.249 2.26,12.373 C1.887,13.121 1.016,13.433 0.27,13.245 C0.207,13.245 0.518,13.121 0.518,12.995 C0.518,12.185 1.14,12.497 1.203,12.31 C1.513,11.313 0.705,10.44 1.453,9.507 C1.887,8.884 3.007,8.884 3.256,8.197 C3.443,7.824 3.069,7.264 3.256,6.827 C3.506,6.329 4.376,6.517 4.75,6.08 C5.185,5.706 5.683,4.46 6.243,4.023 C6.553,3.773 6.866,4.459 6.928,3.587 C6.928,3.275 5.994,3.899 5.932,3.587 C5.808,3.275 6.305,3.027 6.492,2.777 C6.492,2.777 6.616,2.839 6.616,2.777 C6.616,2.653 6.368,2.403 6.492,2.341 C8.235,1.843 7.488,4.211 9.602,2.029 C9.666,2.029 9.79,1.905 9.852,1.779 L9.977,1.656 C10.101,1.594 10.225,1.594 10.35,1.719 C10.412,1.781 9.977,1.844 10.04,1.969 C10.225,2.342 13.088,1.657 13.275,1.657 C14.52,1.595 13.399,2.779 14.955,1.969 C15.017,1.907 14.83,1.595 14.955,1.533 C15.142,1.409 15.825,1.346 15.577,1.283 C15.204,1.223 14.83,1.346 14.457,1.283 C14.271,1.223 15.327,-0.461 16.262,0.473 C16.387,0.598 16.075,0.848 16.137,1.035 C16.199,1.16 16.449,1.222 16.573,1.16 C16.697,1.097 16.511,0.66 16.573,0.785 C16.823,0.91 16.823,1.345 17.07,1.471 C17.07,1.471 19.124,1.346 19.187,1.346 C19.807,1.47 20.244,2.093 20.804,2.404 L20.804,2.467 C20.804,2.904 21.614,3.027 21.364,3.652 C21.302,3.776 21.054,3.714 20.991,3.776 C20.805,4.086 20.183,6.33 20.308,6.392 C20.432,6.454 22.485,6.642 22.548,6.642 C22.672,6.766 22.36,6.952 22.485,7.078 C22.797,7.451 23.17,7.701 23.605,7.888 C24.601,8.386 24.787,6.704 25.472,6.828 C25.66,6.828 25.784,6.89 25.91,6.953 L25.847,7.513 C25.784,7.701 25.722,7.825 25.847,7.887 L25.845,7.888 Z" id="CH"></path>
    </g>
</svg>