<?xml version="1.0" encoding="UTF-8" standalone="no"?>
<svg width="37px" height="22px" viewBox="0 0 37 22" version="1.1" xmlns="http://www.w3.org/2000/svg" xmlns:xlink="http://www.w3.org/1999/xlink">
    <!-- Generator: Sketch 3.8.3 (29802) - http://www.bohemiancoding.com/sketch -->
    <title>CZ</title>
    <desc>Created with Sketch.</desc>
    <defs></defs>
    <g id="Page-1" stroke="none" stroke-width="1" fill="none" fill-rule="evenodd">
        <path d="M26.816,19.565 C27.75,15.889 29.804,19.005 31.67,16.635 C31.795,16.449 31.608,16.138 31.732,15.951 C31.919,15.701 32.355,15.827 32.542,15.577 C32.542,15.577 33.039,13.645 33.039,13.582 C33.599,12.585 35.092,11.775 36.149,11.277 C35.901,10.965 36.087,10.404 35.839,10.093 C35.589,9.843 35.092,10.031 34.843,9.843 C34.78,9.783 34.221,8.286 34.159,8.223 C33.847,7.973 33.287,8.161 32.914,8.037 C32.604,7.974 31.918,7.787 31.669,7.601 C31.545,7.539 31.545,7.289 31.419,7.351 C30.363,7.787 32.416,7.911 30.611,8.099 C30.487,8.099 30.301,8.037 30.176,7.912 C29.989,7.725 30.051,7.414 29.864,7.226 C29.616,7.039 28.744,6.976 28.994,6.789 C29.804,6.041 30.301,6.977 29.554,5.481 C29.554,5.419 29.429,5.419 29.367,5.481 C29.304,5.606 29.367,5.855 29.242,5.917 C28.992,6.042 28.682,5.917 28.432,5.917 C28.185,5.917 27.874,6.042 27.624,5.98 C27.064,5.794 26.007,4.86 25.074,4.984 C24.7,5.046 26.069,6.417 26.007,6.542 C25.82,6.915 25.197,6.79 24.887,7.04 C24.7,7.226 24.762,7.663 24.513,7.787 C23.58,8.161 23.207,6.542 23.02,6.292 L21.59,5.42 C21.465,4.61 23.83,4.298 22.15,3.488 C21.838,3.302 20.47,4.05 20.47,4.05 C20.283,3.863 20.47,3.55 20.283,3.365 C20.221,3.24 20.033,3.365 19.847,3.427 C19.785,3.427 19.722,3.613 19.597,3.55 C19.473,3.364 19.537,3.052 19.287,2.865 C18.477,2.365 17.669,2.928 16.673,2.117 C15.989,1.619 16.923,1.121 15.803,0.997 C14.06,0.685 16.051,2.055 14.371,2.304 C14.248,2.554 14.185,2.741 13.999,2.741 C13.189,2.928 11.883,-0.499 11.199,1.431 C11.074,1.744 12.194,1.993 11.945,2.181 C11.199,2.803 10.14,2.865 9.395,3.301 C9.269,3.364 9.395,3.675 9.269,3.738 C8.772,3.988 8.087,3.614 7.713,3.926 C7.403,4.176 7.527,4.673 7.216,4.923 C7.091,5.047 6.966,4.61 6.78,4.673 C6.22,4.798 6.157,5.545 5.784,5.795 C5.597,5.981 5.224,5.67 5.037,5.857 C4.85,5.98 5.037,6.355 4.85,6.542 C4.6,6.852 3.917,6.292 3.73,6.292 C2.174,6.542 1.926,7.725 1.428,8.722 C1.303,8.972 1.303,8.099 1.054,7.912 C0.868,7.662 0.494,7.602 0.184,7.539 C-0.376,7.414 0.806,9.407 2.05,10.219 C2.174,10.279 2.61,10.342 2.672,10.716 C2.859,11.586 2.05,11.276 1.926,11.961 C1.864,12.148 3.232,14.453 3.419,14.641 C4.476,15.699 4.725,14.951 5.409,15.637 C5.845,16.075 5.907,16.76 6.343,17.134 C7.213,17.757 9.393,18.567 9.827,19.814 L9.889,19.814 C10.885,20.311 11.632,21.62 12.939,21.122 C13.189,21.059 13.126,20.562 13.374,20.562 C13.81,20.562 14.246,21.122 14.681,20.997 L15.179,19.377 C15.429,19.19 15.864,19.627 15.989,19.439 C16.113,19.315 15.989,17.509 16.049,17.383 C16.237,17.196 16.609,17.321 16.859,17.445 C16.983,17.508 16.859,17.819 16.983,17.881 C17.293,17.881 17.543,17.508 17.855,17.508 C19.659,17.508 21.091,18.878 22.771,19.066 C23.021,19.066 23.331,19.191 23.581,19.128 C23.953,18.942 24.077,18.443 24.388,18.318 C24.823,18.194 25.446,19.004 25.758,19.066 C25.943,19.066 26.192,18.692 26.378,18.816 C26.69,19.066 26.814,19.316 26.814,19.566" id="CZ"></path>
    </g>
</svg>