<?xml version="1.0" encoding="UTF-8" standalone="no"?>
<svg width="48px" height="63px" viewBox="0 0 48 63" version="1.1" xmlns="http://www.w3.org/2000/svg" xmlns:xlink="http://www.w3.org/1999/xlink">
    <!-- Generator: Sketch 3.8.3 (29802) - http://www.bohemiancoding.com/sketch -->
    <title>DE</title>
    <desc>Created with Sketch.</desc>
    <defs></defs>
    <g id="Page-1" stroke="none" stroke-width="1" fill="none" fill-rule="evenodd">
        <path d="M42.766,9.251 C42.89,10.248 43.886,12.181 44.011,12.803 C44.199,14.298 42.207,15.295 42.643,16.479 C42.891,17.229 45.256,17.539 45.256,18.474 C45.256,19.409 44.51,19.721 45.069,20.404 C45.256,20.717 45.692,20.842 45.816,21.216 C46.003,21.526 45.754,21.963 45.816,22.276 C45.879,22.462 46.128,22.399 46.19,22.524 C46.5,22.961 45.753,24.019 45.567,24.394 C45.193,24.954 46.127,25.264 46.313,25.826 C46.437,26.138 46.003,26.512 46.189,26.761 C46.436,27.135 46.997,27.011 47.246,27.259 C48.116,28.069 47.743,32.619 46.996,32.743 C46.188,32.93 44.881,29.503 44.196,31.433 C44.072,31.746 45.192,31.995 44.943,32.183 C44.197,32.805 43.138,32.867 42.393,33.303 C42.267,33.366 42.393,33.677 42.267,33.74 C41.77,33.99 41.085,33.616 40.711,33.928 C40.401,34.178 40.525,34.675 40.214,34.925 C40.089,35.049 39.964,34.612 39.778,34.675 C39.218,34.8 39.155,35.547 38.782,35.797 C38.595,35.983 38.222,35.672 38.035,35.859 C37.848,35.982 38.035,36.357 37.848,36.544 C37.598,36.854 36.915,36.294 36.728,36.294 C35.172,36.544 34.924,37.727 34.426,38.724 C34.301,38.974 34.301,38.101 34.052,37.914 C33.866,37.664 33.492,37.604 33.182,37.541 C32.622,37.416 33.804,39.409 35.048,40.221 C35.172,40.281 35.608,40.344 35.67,40.718 C35.857,41.588 35.048,41.278 34.924,41.963 C34.862,42.15 36.23,44.455 36.417,44.643 C37.474,45.701 37.723,44.953 38.407,45.639 C38.843,46.077 38.905,46.762 39.341,47.136 C40.336,47.821 43.011,48.756 42.951,50.376 C42.887,52.058 42.514,51.684 41.207,51.373 C41.083,51.373 40.959,51.435 40.897,51.559 C40.772,52.183 41.145,52.869 40.523,53.367 C39.963,53.803 37.35,54.427 37.287,55.423 C37.287,55.423 38.781,57.479 38.781,57.541 C38.843,57.603 37.971,58.351 38.281,58.601 C38.967,59.224 39.651,58.289 39.091,60.345 C39.091,60.47 38.967,60.657 38.843,60.657 C36.853,60.097 38.408,59.099 37.473,59.037 C36.976,59.037 36.54,59.473 36.043,59.411 C35.793,59.348 35.856,58.911 35.669,58.851 C35.296,58.725 34.923,59.037 34.612,58.911 C34.487,58.851 34.736,58.476 34.612,58.476 C33.865,58.538 34.549,59.536 34.362,59.596 C33.492,59.846 32.062,59.473 31.252,59.784 C31.002,59.909 31.126,60.344 30.877,60.47 C30.629,60.658 30.317,60.346 30.069,60.533 C29.882,60.596 30.131,60.907 30.007,61.031 C29.945,61.095 27.829,61.656 27.58,61.531 C27.456,61.407 27.58,61.095 27.456,60.971 C27.392,60.845 27.081,60.845 27.019,60.721 C26.956,60.597 27.329,60.659 27.269,60.534 C27.019,59.724 25.277,60.721 24.779,60.161 C24.779,60.161 24.904,60.098 24.904,60.035 C24.529,59.785 24.904,60.845 24.778,61.281 C24.778,61.531 23.596,62.964 23.16,62.528 C22.912,62.278 23.596,61.905 23.41,61.656 C23.347,61.593 23.16,61.842 23.036,61.842 C22.912,61.842 22.726,61.782 22.663,61.657 C22.539,61.47 22.973,61.22 22.663,60.971 C22.413,60.783 22.289,60.471 22.04,60.347 C21.854,60.223 21.605,60.534 21.355,60.472 C21.23,60.348 21.355,60.036 21.23,59.912 C20.92,59.662 20.98,60.784 19.986,60.472 C19.303,60.224 18.866,59.538 18.183,59.352 C18.12,59.352 16.066,59.476 16.066,59.476 C15.818,59.351 15.818,58.916 15.569,58.79 C15.507,58.666 15.693,59.102 15.569,59.165 C15.445,59.227 15.195,59.165 15.133,59.04 C15.071,58.853 15.383,58.603 15.258,58.48 C14.324,57.544 13.268,59.227 13.453,59.29 C13.826,59.35 14.2,59.227 14.573,59.29 C14.823,59.35 14.138,59.414 13.951,59.538 C13.826,59.6 14.013,59.912 13.951,59.974 C12.395,60.784 13.516,59.6 12.271,59.664 C12.084,59.664 9.221,60.348 9.035,59.974 C8.972,59.85 9.407,59.787 9.345,59.724 C8.785,59.289 8.535,61.158 8.535,58.978 C8.475,58.105 9.095,57.295 9.158,56.422 C9.158,56.298 8.91,56.298 8.91,56.112 C8.847,55.8 8.972,55.488 9.096,55.176 L9.968,53.743 C10.031,53.371 10.093,52 10.278,51.563 C10.778,50.567 12.022,49.819 12.706,48.635 C12.956,48.199 9.221,47.763 8.973,47.575 C8.786,47.389 8.911,47.015 8.723,46.828 C8.413,46.578 6.423,47.388 6.297,47.202 C6.237,47.015 6.485,46.765 6.36,46.64 C4.493,44.958 5.738,47.513 4.99,46.702 C4.37,46.08 4.058,44.647 3.56,44.335 C3.374,44.148 3,44.335 2.875,44.148 C2.191,42.902 4.68,42.404 3.809,41.344 C3.684,41.157 2.191,41.034 1.879,39.724 C1.319,37.419 4.182,37.544 3.311,36.111 C3.124,35.798 2.564,35.861 2.441,35.486 C2.378,35.236 2.875,34.988 2.813,34.738 C2.813,34.551 2.44,34.801 2.316,34.676 C2.252,34.613 1.381,33.306 1.443,33.118 C1.505,32.868 1.941,32.868 2.003,32.62 C2.19,31.56 0.385,31.186 0.946,31.06 C1.132,31 1.256,31.248 1.381,31.248 L2.563,30.188 C2.626,29.878 1.817,30.252 2.065,29.753 C2.251,29.317 2.687,29.005 2.873,28.569 C3.433,27.197 2.063,26.199 1.691,25.515 C1.629,25.39 1.753,25.203 1.816,25.078 C1.816,24.953 1.692,24.766 1.816,24.704 C2.126,24.517 2.501,24.704 2.874,24.579 C2.999,24.519 2.75,24.144 2.874,24.206 C3.248,24.331 3.497,24.766 3.932,24.766 C4.368,24.83 6.048,24.269 6.235,23.832 C6.421,23.397 5.052,23.334 5.611,22.962 C6.607,22.275 7.789,22.026 7.541,20.468 C7.478,19.595 5.176,19.968 5.736,19.034 C5.8,18.847 6.11,19.034 6.11,18.909 C6.173,18.723 5.862,18.536 5.924,18.349 C5.924,18.225 6.11,18.225 6.234,18.225 C6.67,18.225 7.044,18.412 7.479,18.412 C7.977,18.412 7.542,17.415 7.729,16.916 C7.852,16.48 8.911,14.486 8.786,13.426 C8.973,13.366 9.159,13.24 9.346,12.991 C9.596,12.741 9.036,12.866 8.476,12.866 C8.351,12.742 8.164,12.804 8.039,12.804 C7.915,12.804 7.852,12.742 7.789,12.679 C7.293,12.056 8.662,10.125 9.159,9.876 C9.469,9.689 9.844,10.062 10.155,10.062 C14.821,9.876 5.3,9.502 12.395,9.689 C12.457,9.689 12.643,9.751 12.705,9.814 C13.079,10.498 13.328,13.364 14.885,12.742 C15.382,12.555 14.385,8.255 15.817,8.255 C15.941,8.255 15.941,8.63 16.127,8.692 C16.314,8.816 16.627,8.816 16.875,8.816 C17.497,8.941 18.182,8.316 18.741,8.566 C19.177,8.754 19.177,9.376 19.426,9.751 C19.738,10.249 21.418,13.427 21.418,11.309 C21.418,10.873 20.485,10.997 20.112,10.623 C19.489,10.063 19.612,8.63 18.432,8.443 C18.245,8.443 16.814,8.753 16.938,7.883 C17,7.321 17.871,5.576 17.311,4.891 C17.125,4.703 15.756,5.389 15.569,4.703 C15.507,4.579 15.942,4.703 16.005,4.579 C16.128,4.455 15.568,4.205 15.692,4.205 C16.314,4.019 17.372,4.641 17.559,3.395 C17.559,3.271 16.129,1.713 16.004,1.465 C15.816,1.027 15.754,0.529 15.754,0.093 C16.189,0.156 16.936,0.093 17.124,0.093 C17.932,0.218 18.74,0.653 19.549,0.778 C19.487,0.964 19.487,1.026 19.611,0.964 C19.861,0.777 19.985,0.466 20.234,0.404 C20.358,0.404 20.172,0.714 20.234,0.84 C20.421,0.964 20.67,0.902 20.856,0.964 C21.292,1.026 21.726,1.026 22.038,1.214 C22.225,1.339 22.288,1.588 22.288,1.774 C22.288,1.837 22.163,1.774 22.163,1.774 C22.037,1.837 21.789,1.961 21.913,2.024 C21.975,2.148 22.286,1.899 22.349,2.024 C22.536,2.334 22.474,2.709 22.349,3.021 C22.224,3.331 21.352,3.519 21.602,3.831 C21.912,4.267 23.095,3.145 23.156,3.706 C23.219,4.08 22.536,4.766 22.908,4.89 C23.343,5.077 23.343,4.018 23.778,3.955 C24.152,3.893 25.583,5.139 25.895,5.015 C25.957,5.015 27.201,3.581 27.637,4.329 C28.507,5.949 24.152,7.633 26.517,7.882 C27.015,7.944 27.387,7.322 27.887,7.322 C28.507,7.382 27.824,9.19 29.193,8.255 C29.505,8.068 29.693,6.511 30.253,6.2 C31.06,5.764 31.933,5.577 32.305,6.45 C32.243,6.263 32.181,5.95 32.243,5.888 C32.616,5.453 33.113,5.266 33.425,4.892 C33.799,4.456 33.861,3.77 34.235,3.334 C34.359,3.209 35.167,3.521 35.915,3.77 C36.225,3.708 36.535,3.645 36.661,3.645 C37.097,3.645 36.848,4.518 37.097,4.892 C37.283,5.142 37.719,5.017 37.905,5.266 C38.278,5.576 38.465,6.45 39.025,6.386 C39.461,6.386 39.959,6.076 40.455,6.201 C40.643,6.264 40.208,6.575 40.208,6.761 C40.27,7.261 40.456,7.759 40.643,8.257 C40.83,8.757 41.453,8.943 41.951,9.13 C42.324,9.253 42.573,9.316 42.759,9.253 L42.766,9.251 Z M37.104,4.454 C37.228,3.894 36.979,3.207 37.166,2.647 C37.353,2.085 39.219,3.705 38.846,3.144 C38.596,2.77 37.788,2.957 37.601,2.521 C37.541,2.147 38.101,1.836 38.349,1.524 C38.599,1.338 38.162,2.272 38.412,2.334 C38.848,2.458 39.284,2.272 39.657,2.396 C40.03,2.52 39.159,3.019 39.284,3.392 C39.408,3.829 39.968,3.892 40.154,4.327 C40.279,4.453 39.47,5.077 38.474,5.325 C37.976,5.512 37.541,4.765 37.106,4.453 L37.104,4.454 Z" id="DE"></path>
    </g>
</svg>