<?xml version="1.0" encoding="UTF-8" standalone="no"?>
<svg width="22px" height="27px" viewBox="0 0 22 27" version="1.1" xmlns="http://www.w3.org/2000/svg" xmlns:xlink="http://www.w3.org/1999/xlink">
    <!-- Generator: Sketch 3.8.3 (29802) - http://www.bohemiancoding.com/sketch -->
    <title>DK</title>
    <desc>Created with Sketch.</desc>
    <defs></defs>
    <g id="Page-1" stroke="none" stroke-width="1" fill="none" fill-rule="evenodd">
        <path d="M6.555,24.778 C5.745,24.653 4.938,24.218 4.129,24.092 C3.941,24.092 3.194,24.155 2.759,24.092 C2.759,23.782 2.759,23.469 2.821,23.095 C2.821,22.783 3.318,22.41 3.069,22.161 C3.319,21.849 2.945,21.351 2.945,20.914 C2.883,20.541 3.069,19.98 2.821,19.731 C2.261,19.169 0.643,19.793 0.331,18.671 C0.145,17.986 0.767,17.238 0.767,16.428 L0.892,16.553 C2.822,17.488 1.576,14.995 1.452,14.746 C1.39,14.621 1.327,14.246 1.142,14.372 C0.829,14.497 0.892,15.057 0.582,15.119 C0.394,15.183 0.519,14.685 0.519,14.499 C0.581,14.061 0.705,13.625 0.705,13.252 C0.767,12.877 0.395,12.379 0.705,12.13 C0.767,12.07 0.892,12.006 0.955,12.006 C0.892,11.881 0.643,9.202 1.265,9.452 C1.639,9.576 1.39,10.2 1.575,10.512 C2.135,11.819 4.812,8.58 4.937,8.58 C6.243,8.205 4.75,10.262 4.999,10.573 C5.249,10.885 5.745,10.635 6.181,10.511 C6.056,10.511 5.994,10.511 5.994,10.449 C5.87,10.139 6.244,9.765 6.056,9.515 C5.932,9.328 5.559,9.827 5.496,9.639 C5.372,9.389 5.87,9.203 5.87,8.954 C5.933,7.521 5,7.957 6.182,7.084 C6.432,6.836 7.178,6.898 7.364,7.084 C7.489,7.209 7.178,7.77 7.302,7.646 C7.552,7.396 7.552,6.836 7.862,6.649 C8.112,6.524 8.422,6.649 8.672,6.649 C8.982,6.836 10.476,7.209 10.476,7.209 C10.6,7.584 10.289,8.019 10.351,8.456 C10.351,8.766 10.851,9.079 10.726,9.39 C10.601,9.638 10.166,9.327 9.916,9.39 C9.544,9.452 10.85,9.7 10.786,10.075 C10.786,10.2 10.726,10.262 10.726,10.325 C10.976,10.385 11.036,10.947 11.348,11.009 C12.095,11.196 13.214,10.136 13.526,11.569 C13.651,12.069 12.156,14.559 11.659,14.311 C11.224,14.061 11.224,13.251 10.726,13.064 C10.166,12.877 10.228,16.118 10.041,16.491 C9.731,17.301 9.231,17.861 8.361,17.861 C7.925,17.861 6.991,17.177 7.117,17.613 C7.303,18.049 8.299,17.8 8.547,18.299 L8.547,18.485 L8.672,18.485 C8.922,18.485 8.984,18.921 9.172,18.921 C9.856,18.734 10.352,17.675 11.038,17.925 C11.411,18.112 11.598,18.672 12.034,18.735 C12.284,18.797 12.344,18.361 12.531,18.235 C13.651,20.542 12.281,18.548 12.717,19.42 C13.09,20.106 14.273,22.973 11.97,22.723 C11.47,22.661 11.036,22.287 10.538,22.163 C10.351,22.163 10.04,22.473 9.854,22.287 C9.356,21.913 11.098,22.037 10.104,21.477 C8.546,20.667 10.104,22.037 9.604,22.037 C9.418,22.037 8.982,20.169 8.982,20.107 C8.796,19.67 8.172,19.421 8.049,18.922 C8.049,18.86 8.109,18.86 8.109,18.86 C7.612,19.047 6.929,19.17 6.929,19.234 C6.803,19.484 7.549,19.234 7.675,19.484 C7.737,19.67 7.301,19.734 7.301,19.919 C7.239,20.292 7.301,20.666 7.426,20.979 C7.488,21.165 7.799,21.227 7.799,21.413 C7.799,22.099 6.679,22.348 6.554,23.033 C6.554,23.283 7.052,22.91 7.239,23.033 C7.675,23.346 8.049,23.783 8.109,24.28 C8.172,24.53 7.675,23.783 7.426,23.845 C7.116,23.969 6.741,24.53 6.554,24.779 L6.555,24.778 Z M18.315,14.434 L18.315,14.497 C19,13.997 20.059,14.247 20.805,14.371 C20.868,14.496 21.117,14.621 21.117,14.745 C21.054,15.118 20.681,15.368 20.681,15.742 C20.745,16.988 21.741,16.926 20.869,17.922 C20.557,18.234 20.059,18.297 19.749,18.608 C19.189,19.232 19.873,19.418 20.433,19.731 L20.807,20.665 C20.307,21.101 18.94,20.915 18.94,21.475 C19,22.161 20.494,23.095 18.94,23.158 C18.38,23.158 17.943,22.783 17.445,22.534 C17.695,22.659 18.005,22.784 18.067,22.597 C18.192,22.16 17.817,21.661 17.507,21.287 C17.383,21.163 17.321,21.537 17.197,21.537 C16.823,21.537 16.574,21.225 16.263,21.163 C15.953,21.1 15.64,21.349 15.393,21.287 C15.267,21.287 15.267,21.1 15.267,21.037 C15.64,20.041 14.521,20.29 14.583,20.103 C14.645,19.853 15.08,19.916 15.143,19.667 C15.393,17.86 14.833,18.359 13.836,17.487 C13.712,17.362 13.338,17.051 13.526,16.987 C14.086,16.677 17.072,17.362 16.512,15.43 C16.387,14.994 15.702,15.118 15.329,14.87 C15.142,14.745 15.764,14.994 15.951,14.994 C16.261,15.118 16.573,15.244 16.884,15.244 C17.817,15.244 19.311,14.807 18.999,16.739 C18.939,17.051 18.129,17.362 18.379,17.549 C19.499,18.483 19.125,16.239 18.939,15.369 C18.875,14.994 17.879,15.306 18.004,14.994 C18.066,14.744 18.191,14.62 18.314,14.434 L18.315,14.434 Z M19.561,24.404 L19.251,24.404 L19.251,24.528 C19.313,24.653 19.251,24.715 19.251,24.778 C19.065,24.902 18.815,25.088 18.753,25.214 C18.566,25.339 18.443,25.464 18.38,25.65 L18.316,25.712 L18.316,25.774 L18.316,25.65 C17.943,25.65 17.506,25.588 17.321,25.65 C17.011,25.712 16.761,26.273 16.388,26.21 C15.891,26.148 15.641,25.525 15.206,25.276 C14.896,25.089 14.46,24.964 14.21,24.716 C14.023,24.591 14.707,24.466 15.33,23.346 C16.2,24.092 17.507,24.279 18.254,24.902 L18.316,24.964 C17.943,24.404 17.134,23.967 17.446,23.469 C17.569,23.221 17.943,23.346 18.129,23.283 C18.564,23.719 19.499,23.657 19.622,24.218 C19.622,24.278 19.622,24.342 19.56,24.404 L19.561,24.404 Z M0.769,15.307 L0.769,15.804 C0.707,15.43 0.707,15.056 0.769,15.306 L0.769,15.307 Z M11.659,3.405 C11.846,4.09 11.224,7.455 10.104,7.081 C9.73,6.956 9.419,6.521 8.984,6.521 C9.419,5.959 7.552,6.396 7.054,6.521 C6.618,6.645 6.244,7.019 5.809,7.081 C5.623,7.081 5.499,6.769 5.312,6.769 C4.815,6.707 4.317,6.769 3.882,6.894 C3.695,6.956 3.82,7.33 3.632,7.454 C2.762,7.829 3.695,5.336 2.452,8.639 C2.389,8.701 2.762,10.445 2.699,10.445 C0.646,10.383 1.766,6.52 2.949,6.085 C4.006,5.585 5.499,6.147 6.557,5.71 C7.987,5.025 7.677,3.03 8.984,2.283 C9.42,2.096 9.98,2.221 10.414,2.033 C10.851,1.785 11.1,0.913 11.598,0.913 C12.531,0.913 11.1,1.598 11.038,2.158 C10.913,3.032 11.348,2.472 11.66,3.406 L11.659,3.405 Z M17.384,24.59 L16.824,24.652 C17.26,24.776 17.634,24.962 17.944,25.275 L18.006,25.275 C17.819,25.025 17.57,24.839 17.384,24.59 L17.384,24.59 Z" id="DK"></path>
    </g>
</svg>