<?xml version="1.0" encoding="UTF-8" standalone="no"?>
<svg width="80px" height="76px" viewBox="0 0 80 76" version="1.1" xmlns="http://www.w3.org/2000/svg" xmlns:xlink="http://www.w3.org/1999/xlink">
    <!-- Generator: Sketch 3.8.3 (29802) - http://www.bohemiancoding.com/sketch -->
    <title>ES</title>
    <desc>Created with Sketch.</desc>
    <defs></defs>
    <g id="Page-1" stroke="none" stroke-width="1" fill="none" fill-rule="evenodd">
        <g id="ES">
            <path d="M65.263,21.664 C65.698,21.851 66.196,21.974 66.507,22.224 C66.632,22.349 66.694,23.034 67.067,22.974 C67.567,22.91 68.001,22.598 68.561,22.598 C69.184,22.598 70.241,23.844 70.864,23.658 C71.114,23.595 70.864,23.098 71.051,22.973 C71.984,22.349 73.104,22.91 74.101,23.159 L74.349,23.159 C74.659,23.472 74.909,23.783 74.785,24.157 C74.66,24.655 73.851,24.531 73.539,24.842 C73.291,25.092 74.286,26.525 73.664,27.584 C73.354,28.269 70.677,29.329 69.931,29.64 C69.246,29.89 68.189,30.14 67.691,30.576 C67.317,30.826 66.757,31.76 66.197,31.884 C64.081,32.508 60.285,32.071 58.605,33.442 C58.17,33.816 57.299,34.127 57.423,34.688 C57.609,35.124 58.543,35.062 58.481,35.498 C58.481,35.685 56.551,36.121 56.428,36.184 C55.681,36.744 55.431,37.804 54.808,38.427 C53.068,40.234 50.765,41.979 49.644,44.283 C49.147,45.218 49.832,48.209 50.391,49.019 C50.578,49.269 52.881,50.576 52.321,50.949 C51.884,51.323 50.827,51.449 50.391,51.759 C50.267,51.884 50.267,52.196 50.141,52.259 C50.018,52.382 49.831,52.196 49.707,52.196 C49.209,52.32 48.649,52.382 48.213,52.694 C48.027,52.881 48.151,53.317 47.903,53.504 C47.716,53.629 47.405,53.38 47.28,53.504 C47.03,53.816 47.216,54.314 47.03,54.564 C46.78,54.812 46.284,54.564 46.097,54.874 C45.847,55.249 46.221,55.81 46.035,56.184 C45.537,57.429 44.415,55.996 44.355,57.991 C44.355,58.489 45.35,58.675 45.225,59.111 C45.039,59.548 44.355,59.486 43.857,59.423 C43.547,59.423 43.234,59.113 42.923,59.05 C41.616,58.676 40.06,59.3 38.941,60.047 C37.011,61.294 37.011,63.724 35.021,64.72 C34.275,65.157 34.026,63.1 32.159,63.6 C31.786,63.724 31.599,64.222 31.163,64.347 C30.603,64.533 29.296,63.474 28.736,63.412 C27.989,63.225 27.181,63.662 26.371,63.536 C25.936,63.412 25.687,63.038 25.251,62.914 C24.443,62.602 20.771,62.041 20.087,62.166 C19.34,62.353 18.967,63.286 18.282,63.599 C17.288,63.972 16.042,62.851 14.672,63.535 C13.552,64.095 13.678,64.595 13.118,65.405 C13.056,65.467 12.683,65.093 12.434,65.281 C12.06,65.591 11.749,66.091 11.251,66.277 C11.063,66.34 11.063,65.903 10.877,65.779 C10.627,65.592 10.255,65.529 10.067,65.343 C9.819,65.031 9.757,64.595 9.447,64.346 C9.259,64.159 8.885,64.346 8.699,64.159 C8.264,63.723 7.641,61.667 7.517,61.043 C7.517,60.981 8.45,61.916 8.327,61.355 C8.327,61.168 7.952,61.355 7.89,61.231 C7.827,61.106 8.138,60.981 8.076,60.856 C7.889,59.796 6.956,61.043 7.018,59.236 C7.018,59.236 9.445,58.116 8.884,57.991 C8.387,57.866 8.076,58.925 7.578,58.801 C7.142,58.738 7.328,57.991 7.142,57.617 C6.956,57.243 6.707,56.931 6.458,56.62 L4.778,55 L4.778,54.876 C4.715,55 4.653,55.063 4.528,55.063 C4.156,55.125 3.968,54.627 3.658,54.44 C3.408,54.315 2.288,54.128 1.478,54.128 C1.604,51.511 0.982,51.075 3.036,49.268 C3.409,48.956 3.346,48.271 3.72,48.085 C3.844,48.022 6.893,47.96 6.146,46.713 C5.96,46.403 5.338,46.901 5.026,46.713 C4.716,46.463 4.778,45.966 4.653,45.593 C4.529,45.218 4.529,44.783 4.28,44.471 C4.218,44.347 3.844,44.471 3.844,44.347 C4.031,43.911 4.467,43.599 4.654,43.163 C5.026,42.415 3.968,42.976 5.026,42.103 C5.96,41.356 7.206,41.48 7.329,39.861 C7.329,39.736 6.145,38.926 5.897,38.428 C5.524,37.618 5.959,36.308 5.959,36.185 C5.897,36.122 4.901,34.19 4.901,34.128 C4.839,34.004 5.087,34.19 5.213,34.19 C5.773,34.377 6.145,34.44 6.706,34.563 C8.136,34.938 8.448,35.063 9.196,33.629 C10.066,31.883 9.133,32.507 8.946,31.199 C8.759,30.014 10.688,30.575 10.751,29.702 C10.813,29.079 10.129,29.64 10.501,28.892 C10.564,28.767 10.813,28.767 10.875,28.582 C11.061,28.145 11.061,27.709 11.125,27.272 C11.185,26.774 11.56,26.275 11.497,25.777 L10.937,24.282 C11.124,24.095 11.56,24.469 11.807,24.344 L13.115,22.974 C14.049,22.474 15.791,22.412 16.289,21.041 C16.662,19.795 15.044,19.921 14.609,19.858 C14.299,19.794 14.859,17.428 14.609,17.302 C13.426,16.679 13.177,17.24 11.746,16.679 C11.496,16.555 11.56,15.932 10.999,16.306 C10.875,16.431 11.124,16.742 10.999,16.866 C10.129,17.614 9.195,16.742 8.946,16.68 C8.696,16.556 8.386,16.868 8.199,16.743 C8.075,16.681 8.572,16.556 8.449,16.433 C8.386,16.183 8.075,16.12 7.826,16.12 C7.452,16.058 7.016,16.183 6.644,16.12 C6.582,16.058 6.706,15.933 6.706,15.81 C6.706,15.747 6.768,15.497 6.706,15.56 C6.394,15.622 5.648,16.494 5.086,16.12 C3.594,15.06 6.519,14.812 5.772,14.064 C5.648,13.939 5.399,14.064 5.275,13.939 C5.213,13.814 5.525,13.565 5.399,13.503 C4.279,13.253 2.723,13.627 1.789,14.125 C1.915,13.627 1.229,13.191 1.229,12.692 C1.167,12.505 1.541,12.942 1.665,12.817 C1.79,12.755 1.541,12.505 1.603,12.381 C1.728,11.821 2.661,12.007 3.097,11.633 C3.221,11.571 3.47,11.259 3.283,11.321 C2.91,11.384 2.536,11.757 2.163,11.821 C1.853,11.881 1.728,11.321 1.977,11.071 C2.35,10.823 3.159,11.011 3.283,10.574 C3.345,10.2 2.473,10.698 2.163,10.574 C1.915,10.449 1.728,10.138 1.665,9.889 C1.603,9.265 2.225,10.075 2.288,10.013 C2.411,9.763 2.288,9.453 2.473,9.203 C2.66,8.891 3.22,8.829 3.283,8.456 C3.593,5.402 1.103,8.891 0.607,5.9 C0.232,3.846 1.975,4.47 2.037,4.157 C2.099,3.97 1.539,4.157 1.352,4.033 C1.29,3.908 1.539,3.783 1.602,3.783 C2.286,3.659 2.659,3.846 3.157,3.783 C4.775,3.659 6.953,2.288 8.447,1.665 C9.007,1.415 9.627,0.605 10.189,0.979 C10.437,1.165 9.815,1.913 10.127,1.975 C10.624,2.037 10.935,1.165 11.433,1.165 C13.113,1.165 12.989,4.095 14.543,4.468 C14.856,4.528 14.98,3.844 15.291,3.906 C17.033,4.342 16.101,4.404 17.843,4.653 C18.278,4.715 19.087,4.529 19.46,4.591 C19.834,4.715 20.02,5.091 20.394,5.091 C20.891,5.091 21.327,4.467 21.824,4.591 C22.261,4.715 22.324,5.463 22.696,5.775 C23.068,6.087 23.816,5.712 24.188,6.087 C24.314,6.21 23.938,6.397 24.064,6.46 C24.188,6.646 24.562,6.21 24.749,6.335 C26.304,7.395 30.349,9.388 32.402,8.765 C32.527,8.703 32.527,8.455 32.652,8.391 C32.9,8.328 33.15,8.391 33.398,8.391 C33.896,8.454 35.202,8.328 35.576,9.076 C35.576,9.138 35.514,9.262 35.452,9.324 C35.949,9.449 37.319,10.758 37.817,10.758 C38.004,10.758 37.693,10.322 37.817,10.198 C37.942,10.01 38.191,9.948 38.44,9.886 C40.245,9.636 39.062,9.823 39.81,10.696 C40.057,10.946 40.555,10.571 40.804,10.758 C41.178,10.945 41.364,11.381 41.674,11.568 C42.484,12.004 44.227,11.941 45.409,11.63 C45.782,12.004 46.467,12.627 46.467,12.627 C46.591,12.69 46.529,12.379 46.591,12.379 C46.903,12.441 47.276,12.566 47.463,12.815 C48.023,13.438 46.218,14.185 47.027,14.56 C47.401,14.684 47.774,14 47.897,14.123 C47.961,14.248 47.774,14.56 47.897,14.683 C48.769,15.493 50.137,15.183 50.947,15.806 C51.01,15.866 51.632,17.3 51.694,17.3 C52.504,17.923 53.312,16.802 54.184,17.55 C54.619,17.923 54.307,18.733 55.117,18.733 C55.49,18.795 55.739,18.421 56.112,18.483 C56.485,18.546 56.672,18.983 57.046,19.043 C57.231,19.043 57.231,18.671 57.418,18.671 C58.041,18.609 58.6,19.107 59.285,19.171 C59.285,19.171 58.973,17.736 59.72,17.861 C60.777,18.048 61.4,18.795 62.084,19.419 C62.144,19.481 62.332,19.419 62.456,19.419 C62.768,19.481 63.141,19.481 63.328,19.669 C63.638,19.917 63.452,20.479 63.763,20.665 L63.763,20.725 C63.451,21.349 63.327,22.222 65.256,21.661 L65.263,21.664 Z M11.063,67.772 L11.498,69.578 L12.868,69.578 C12.868,69.392 12.805,69.268 12.805,69.08 C12.743,68.706 12.619,68.332 12.743,67.96 C12.805,67.772 13.365,67.71 13.303,67.523 C12.929,66.65 11.187,67.709 11.063,67.773 L11.063,67.772 Z M27.117,75.312 L28.05,75.934 C28.05,75.374 28.175,74.75 28.113,74.252 C27.988,73.754 27.49,74.999 27.117,75.312 L27.117,75.312 Z M28.3,75.81 L28.424,75.623 C28.362,75.623 28.3,75.623 28.3,75.747 L28.3,75.809 L28.3,75.81 Z M72.17,43.097 C71.236,46.274 72.357,44.031 73.912,45.34 C74.348,45.714 71.174,48.767 70.925,48.704 C70.615,48.704 70.675,48.019 70.365,47.832 C69.432,47.272 69.37,48.268 69.059,47.334 C68.933,46.898 69.059,46.337 68.746,46.088 C68.496,45.838 68.124,46.275 67.876,46.213 C67.44,46.151 67.004,45.963 66.631,45.715 C66.569,45.653 66.693,45.527 66.755,45.465 C68.311,44.281 70.24,43.472 72.169,43.097 L72.17,43.097 Z M78.704,43.159 C80.134,46.773 78.454,44.279 77.584,43.844 C77.21,43.72 76.712,44.031 76.339,43.782 C74.783,42.722 76.836,42.287 78.703,43.159 L78.704,43.159 Z M67.628,49.018 C67.254,49.391 66.694,49.391 66.694,49.702 C66.694,49.952 66.944,50.45 67.254,50.45 C67.628,50.45 67.876,50.45 68.374,50.014 C68.871,49.578 68.374,49.267 68.374,49.267 L67.69,49.017 L67.628,49.017 L67.628,49.018 Z M66.134,47.148 C65.636,47.272 65.512,47.584 65.264,47.895 C65.014,48.269 64.64,48.83 65.201,49.079 C65.513,49.269 66.445,48.769 66.633,48.395 C66.757,48.085 67.13,48.021 67.13,47.647 C67.13,47.337 66.694,47.087 66.694,47.087 L66.134,47.149 L66.134,47.148 Z"></path>
        </g>
    </g>
</svg>