<?xml version="1.0" encoding="UTF-8" standalone="no"?>
<svg width="78px" height="82px" viewBox="0 0 78 82" version="1.1" xmlns="http://www.w3.org/2000/svg" xmlns:xlink="http://www.w3.org/1999/xlink">
    <!-- Generator: Sketch 3.8.3 (29802) - http://www.bohemiancoding.com/sketch -->
    <title>FR</title>
    <desc>Created with Sketch.</desc>
    <defs></defs>
    <g id="Page-1" stroke="none" stroke-width="1" fill="none" fill-rule="evenodd">
        <path d="M41.9,0.438 C42.024,1.312 42.086,3.678 43.455,3.678 C43.953,3.678 44.265,2.808 44.637,2.994 C45.447,3.304 45.073,4.739 45.322,5.237 C45.695,6.107 47.064,5.111 47.252,6.107 C47.312,6.357 47.126,6.669 47.189,6.917 C47.312,7.417 49.863,6.794 49.989,7.853 C49.989,8.226 49.489,8.539 49.489,8.913 C49.429,9.161 49.925,9.161 49.925,9.348 C49.925,9.661 49.615,9.848 49.428,10.158 C49.24,10.533 51.293,11.032 52.165,10.222 C52.6,9.848 52.973,8.726 53.409,9.1 C53.535,9.224 53.224,9.412 53.162,9.6 C53.099,9.848 52.85,10.097 52.85,10.408 C52.85,10.658 53.225,10.72 53.287,10.97 C53.287,11.28 52.789,11.655 53.037,11.904 C53.287,12.278 53.909,12.091 54.345,12.278 C54.595,12.465 54.655,12.838 54.905,13.025 C54.967,13.088 55.153,12.838 55.278,12.901 C55.402,12.963 55.464,13.088 55.528,13.213 C55.528,13.275 55.216,13.4 55.278,13.463 C55.464,13.586 55.776,13.463 55.9,13.649 C56.087,13.899 55.838,14.459 56.15,14.584 C56.523,14.771 56.958,14.334 57.394,14.398 C57.58,14.398 57.767,14.458 57.954,14.521 C58.264,14.646 58.514,14.771 58.762,14.895 C58.825,14.957 58.762,15.205 58.825,15.145 C59.199,15.145 59.509,14.833 59.821,14.833 C60.195,14.833 60.568,15.019 60.879,15.143 C61.004,15.331 61.379,15.143 61.564,15.331 C62.062,15.643 62.374,17.076 62.994,17.698 C63.742,18.508 62.497,15.954 64.364,17.636 C64.489,17.761 64.24,18.011 64.302,18.196 C64.428,18.384 66.419,17.574 66.73,17.823 C66.917,18.011 66.792,18.383 66.98,18.571 C67.227,18.758 70.962,19.194 70.712,19.631 C70.028,20.814 68.782,21.561 68.285,22.558 C68.099,22.995 68.037,24.366 67.975,24.738 L67.103,26.172 C66.98,26.484 66.855,26.796 66.918,27.107 C66.918,27.293 67.166,27.293 67.166,27.417 C67.104,28.29 66.482,29.1 66.544,29.973 C66.544,30.783 66.544,31.031 66.607,31.031 C64.492,33.211 65.239,30.845 63.497,31.343 C63.372,31.405 63.62,31.655 63.62,31.779 C63.62,31.841 63.496,31.779 63.496,31.779 C63.309,32.029 62.812,32.277 62.936,32.589 C62.998,32.901 63.932,32.277 63.932,32.589 C63.87,33.461 63.558,32.776 63.247,33.025 C62.687,33.461 62.189,34.708 61.754,35.082 C61.381,35.518 60.509,35.332 60.26,35.829 C60.073,36.266 60.447,36.826 60.26,37.199 C60.01,37.886 58.89,37.886 58.456,38.509 C57.709,39.443 58.518,40.315 58.206,41.312 C58.144,41.499 57.522,41.188 57.522,41.998 C57.522,42.124 57.212,42.248 57.272,42.248 C58.02,42.435 58.892,42.124 59.265,41.376 C59.328,41.251 59.017,41.126 58.955,41.002 C58.955,40.815 58.892,40.69 59.017,40.565 C59.577,39.695 61.319,39.695 62.127,40.067 C62.377,40.127 61.879,40.502 61.941,40.689 C61.941,41.001 62.314,41.126 62.377,41.437 C62.439,41.811 61.567,41.747 61.941,42.372 C62.066,42.496 62.439,42.309 62.501,42.496 C62.626,42.682 62.314,42.994 62.377,43.181 C62.439,43.306 62.687,42.931 62.751,43.056 C63.061,43.368 63.061,43.804 63.311,44.176 C60.448,45.86 62.066,45.112 62.937,46.608 C63.062,46.858 62.813,47.293 62.999,47.542 C63.186,47.978 63.809,48.042 63.995,48.415 C64.305,48.975 62.315,50.595 62.005,50.657 C61.817,50.719 61.692,50.345 61.505,50.345 C61.195,50.408 60.635,50.408 60.635,50.719 C60.51,51.716 62.563,52.526 62.875,53.025 C63.062,53.398 63.125,53.895 63.125,54.395 C63.062,54.582 62.501,54.271 62.439,54.458 C62.377,54.582 62.563,54.708 62.501,54.768 C62.314,55.08 62.004,55.268 61.755,55.518 C61.568,55.89 62.19,56.078 62.252,56.264 C62.252,56.388 61.942,56.388 61.942,56.514 C61.879,57.384 63.497,58.569 64.182,58.756 C64.555,58.881 64.99,58.693 65.364,58.693 C65.736,58.63 66.172,58.381 66.484,58.568 C67.416,59.253 65.301,60.686 65.612,61.808 C65.55,61.808 64.492,62.181 64.367,62.306 C64.305,62.368 64.492,62.618 64.367,62.618 C64.305,62.556 64.367,62.306 64.305,62.306 C63.933,62.368 63.497,62.431 63.248,62.68 C63.062,62.867 63.373,63.303 63.124,63.49 C62.874,63.677 62.438,63.428 62.127,63.615 C61.877,63.802 61.94,64.3 61.63,64.549 C61.38,64.674 61.07,64.362 60.82,64.487 C60.634,64.549 60.758,64.861 60.57,65.047 C60.385,65.297 59.886,65.359 59.762,65.671 C59.7,65.921 60.26,66.294 60.012,66.481 C59.7,66.791 59.078,66.481 58.642,66.543 C58.082,66.668 57.709,67.229 57.212,67.416 C56.652,67.603 57.087,66.73 55.842,66.668 C55.032,66.606 55.904,66.978 55.78,67.104 C55.656,67.23 55.406,67.23 55.22,67.168 C55.033,67.168 54.846,67.168 54.784,67.042 C54.784,66.918 55.22,66.607 54.349,66.172 C54.162,66.108 53.975,66.172 53.726,66.172 C53.291,66.046 52.793,66.108 52.482,65.796 C52.172,65.486 52.482,64.862 52.232,64.55 C52.109,64.363 51.86,64.8 51.61,64.8 C51.237,64.8 50.49,64.924 50.552,64.55 C50.615,64.052 51.735,64.24 51.798,63.74 C51.798,63.242 51.113,62.868 50.678,62.93 C50.304,62.993 50.988,63.678 50.802,63.927 C50.49,64.239 49.992,64.427 49.557,64.363 C48.562,64.3 48.872,62.556 48.687,62.805 C47.815,63.802 49.744,64.238 49.184,64.487 C47.194,65.297 48.064,63.989 48.001,63.74 C47.939,63.49 45.761,63.24 45.574,63.116 C45.077,62.866 44.454,62.056 43.832,62.431 C43.148,62.805 42.152,64.051 41.468,64.425 C40.845,64.735 39.601,64.487 38.854,65.545 C38.73,65.671 39.041,65.92 39.041,66.107 C38.916,66.73 38.107,67.104 38.045,67.789 C38.045,67.976 38.482,67.914 38.543,68.101 C38.855,69.221 38.046,68.911 38.483,70.157 C38.606,70.531 38.98,70.843 39.353,71.154 L39.103,71.154 C38.108,70.906 36.988,70.344 36.055,70.969 C35.868,71.093 36.117,71.591 35.868,71.653 C35.246,71.839 34.188,70.593 33.566,70.593 C33.006,70.593 32.572,70.905 32.073,70.968 C31.7,71.03 31.638,70.344 31.513,70.22 C31.203,69.97 30.703,69.846 30.269,69.66 C30.891,68.85 30.767,68.038 29.149,68.163 C29.086,68.163 28.899,68.413 28.775,68.723 L28.775,68.663 C28.463,68.475 28.649,67.913 28.339,67.665 C28.152,67.478 27.779,67.478 27.467,67.415 C27.343,67.415 27.157,67.478 27.094,67.415 C26.408,66.792 25.786,66.045 24.729,65.858 C23.982,65.733 24.293,67.168 24.293,67.168 C23.607,67.104 23.048,66.606 22.425,66.668 C22.238,66.668 22.238,67.041 22.052,67.041 C21.677,66.979 21.49,66.543 21.117,66.481 C20.744,66.418 20.495,66.791 20.122,66.731 C19.312,66.731 19.624,65.921 19.188,65.546 C18.318,64.799 17.508,65.92 16.698,65.296 C16.638,65.296 16.015,63.864 15.953,63.802 C15.143,63.177 13.775,63.489 12.903,62.679 C12.78,62.555 12.967,62.243 12.903,62.119 C12.78,61.994 12.407,62.679 12.033,62.555 C11.223,62.18 13.029,61.433 12.469,60.81 C12.282,60.56 11.909,60.436 11.597,60.374 C11.535,60.374 11.597,60.684 11.473,60.624 C11.473,60.624 10.788,60 10.415,59.626 C10.788,59.564 11.038,59.501 11.287,59.376 C13.091,58.504 13.837,52.523 14.522,50.654 C14.645,50.342 14.77,49.906 15.082,49.781 C15.33,49.656 15.89,50.216 16.015,49.905 C16.201,49.593 15.765,49.095 15.392,49.032 C15.082,48.972 15.019,49.844 14.708,49.719 C14.086,49.532 15.018,48.535 15.143,47.912 C15.393,46.916 16.078,43.239 16.763,42.74 C17.011,42.616 17.883,43.987 18.133,44.61 C19.003,46.48 17.82,44.735 18.443,46.73 C18.567,47.102 18.94,47.414 19.063,47.787 C19.127,47.974 18.878,48.535 19.063,48.473 C19.376,48.413 19.563,47.975 19.5,47.726 C19.376,47.352 18.94,47.228 18.69,46.916 C18.194,46.106 18.878,44.611 18.38,43.676 C18.132,43.178 17.696,42.741 17.322,42.306 C17.072,41.994 16.762,41.682 16.388,41.433 C16.761,41.558 17.198,41.683 17.57,41.495 C18.006,41.245 16.637,40.623 16.76,40.125 C16.885,39.625 17.446,39.377 17.508,38.879 C17.57,38.505 17.135,38.193 17.135,37.819 C17.135,37.383 17.508,36.946 17.508,36.509 C17.508,36.386 17.198,36.386 17.01,36.449 C16.885,36.509 17.01,36.884 16.885,36.822 C16.575,36.697 16.512,36.198 16.265,36.012 C16.077,35.949 15.828,36.198 15.641,36.074 C15.454,35.949 15.641,35.514 15.454,35.388 C14.334,34.328 14.956,36.634 13.898,34.578 C13.836,34.391 13.773,33.02 13.525,32.708 C13.463,32.648 13.275,32.708 13.213,32.648 C12.965,32.272 12.653,31.836 12.467,31.4 C12.217,30.777 13.463,30.155 13.587,29.905 C13.837,29.345 12.342,28.971 12.342,28.908 C12.218,28.472 12.218,28.223 12.282,28.036 L12.218,28.036 C9.668,27.786 12.032,27.163 12.094,25.793 C12.156,24.983 9.544,25.669 9.481,25.358 C9.355,24.858 10.101,24.672 10.475,24.423 C10.538,24.361 10.165,24.548 10.102,24.485 C10.042,24.423 10.102,24.235 10.042,24.175 C9.854,24.175 9.792,24.361 9.605,24.423 C9.107,24.423 8.61,24.049 8.175,24.236 C8.112,24.298 8.049,24.361 8.049,24.423 L8.049,24.361 C8.174,23.551 8.797,22.741 7.489,22.616 C6.805,22.553 6.992,23.426 6.494,23.116 C6.121,22.866 5.624,22.056 5.25,21.868 C5,21.806 4.69,22.055 4.503,21.868 C3.693,21.245 4.69,20.498 3.133,20.622 C3.01,20.684 3.259,20.995 3.133,21.057 C2.699,21.244 2.077,21.617 1.703,21.307 C1.33,21.057 1.703,20.372 1.579,19.937 C1.392,19.187 0.583,19.375 0.085,19.063 C0.023,19.003 0.209,18.815 0.335,18.815 C0.955,18.69 1.579,18.753 2.201,18.753 C2.326,18.753 2.636,19.003 2.636,18.877 C2.636,18.753 2.076,17.88 1.704,17.257 L1.767,17.32 C2.077,17.444 2.451,17.32 2.825,17.382 C3.075,17.382 3.635,17.63 3.448,17.506 C3.012,17.256 2.265,17.381 2.078,16.946 C1.954,16.571 2.95,16.696 3.012,16.322 C3.199,15.574 -0.721,18.44 0.585,15.076 C0.648,15.076 2.701,14.266 3.261,14.266 C3.946,14.266 2.391,15.076 3.884,14.64 C4.318,14.577 4.754,14.078 5.189,14.203 C5.562,14.329 5.376,15.077 5.749,15.201 C5.999,15.201 5.811,14.454 6.059,14.391 C6.496,14.391 6.807,15.201 7.242,15.077 C7.616,14.952 7.367,14.142 7.742,13.893 C7.865,13.768 8.114,14.143 8.3,14.143 C8.674,14.143 9.11,13.768 9.42,13.955 C9.73,14.142 9.483,14.765 9.793,14.952 C9.98,15.076 9.98,14.64 10.166,14.515 C10.476,14.265 11.473,16.945 11.722,17.443 C11.782,17.507 11.782,17.195 11.908,17.195 C12.281,16.945 12.654,16.885 13.09,16.695 C13.4,16.509 13.65,16.011 13.96,16.135 C14.52,16.385 14.023,18.565 15.517,17.943 C15.953,17.756 15.703,16.946 16.015,16.509 C16.325,16.074 16.388,17.382 16.761,17.444 C17.134,17.508 17.445,17.321 17.818,17.384 C18.192,17.384 18.938,17.944 19.062,17.57 C19.188,16.885 17.757,16.386 17.942,15.7 C18.068,15.265 18.192,14.83 18.38,14.393 C18.255,14.393 18.13,14.329 18.193,14.079 C18.318,13.644 18.691,13.145 18.691,12.647 C18.691,12.522 18.318,12.709 18.256,12.584 C18.132,12.274 18.256,11.774 18.069,11.464 C18.007,11.277 17.633,11.277 17.509,11.09 C17.385,10.716 17.322,10.218 17.385,9.844 C17.385,9.657 17.695,9.594 17.695,9.47 C17.695,9.034 17.447,8.598 17.385,8.16 C17.385,8.037 17.509,8.41 17.571,8.473 C18.069,8.721 18.505,8.97 19.001,9.095 C19.127,9.157 19.313,9.033 19.438,9.033 C19.936,9.033 20.433,8.783 20.868,9.033 C21.118,9.095 20.994,9.469 20.868,9.718 C20.808,9.843 20.621,9.781 20.496,9.905 C20.309,10.092 20.994,12.085 21.056,12.085 C23.606,12.46 19.936,10.902 21.928,11.65 C22.86,12.024 24.043,12.21 24.914,12.647 C25.226,12.833 25.414,13.27 25.724,13.332 C27.154,13.518 26.844,12.708 27.902,12.396 C28.152,12.334 28.4,12.334 28.712,12.334 C28.027,12.21 27.404,11.774 28.275,10.278 C28.898,9.281 33.068,9.156 34.188,8.534 C34.623,8.347 34.935,7.974 35.37,7.724 C35.744,7.537 36.428,7.599 36.615,7.224 C36.801,6.851 36.117,6.664 36.055,6.29 C35.992,6.103 36.055,5.792 36.179,5.667 C36.304,5.542 36.553,5.792 36.553,5.667 C36.553,5.542 36.241,5.542 36.241,5.357 C36.241,4.92 36.739,1.927 36.864,1.617 C37.111,0.869 39.164,0.745 39.724,0.683 C40.472,0.621 41.219,0.559 41.904,0.433 L41.9,0.438 Z M76.808,68.418 C77.68,69.04 76.808,70.723 76.808,71.408 C76.808,71.658 77.368,72.218 77.308,71.968 C77.182,71.72 76.808,71.035 76.871,71.284 C76.996,71.657 77.245,71.907 77.371,72.218 C77.556,72.654 77.556,74.025 77.556,74.398 C77.618,75.458 76.561,76.268 76.561,77.016 C76.561,77.826 76.871,78.946 76.188,79.696 C76.125,79.82 75.814,79.696 75.814,79.82 C75.814,80.006 76.25,79.82 76.188,79.944 C76.188,80.194 75.814,80.194 75.688,80.381 C75.503,80.817 75.688,81.377 75.378,81.751 C74.508,82.623 74.756,80.817 74.568,80.754 C73.761,80.506 73.263,81.128 72.703,80.194 C72.578,80.006 72.951,79.758 72.827,79.508 C72.641,79.134 71.894,79.01 71.957,78.574 C71.957,78.074 72.951,77.826 72.89,77.328 C72.826,76.954 71.83,77.701 71.768,77.328 C71.644,76.83 72.64,76.58 72.578,76.144 C72.515,75.646 71.582,75.77 71.458,75.271 C71.395,74.897 72.204,74.773 72.204,74.336 C72.204,73.963 71.582,73.776 71.394,73.402 C71.334,73.152 72.017,73.34 72.142,73.152 C72.266,72.717 72.204,72.156 72.452,71.782 C72.515,71.657 72.64,72.094 72.764,72.032 C73.074,71.969 73.137,71.532 73.449,71.408 C73.696,71.284 74.009,71.533 74.256,71.408 C74.566,71.221 74.566,70.66 74.879,70.598 C75.252,70.536 75.563,71.035 75.999,71.035 C76.372,71.035 75.937,70.225 75.999,69.788 C76.061,69.29 76.559,68.916 76.807,68.418 L76.808,68.418 Z M62.434,63.058 C62.932,63.058 63.368,62.623 63.368,62.186 C63.368,61.751 62.932,61.376 62.434,61.376 C61.936,61.376 61.501,61.751 61.501,62.186 C61.501,62.623 61.937,63.059 62.435,63.059 C62.933,63.059 61.937,63.059 62.435,63.059 L62.434,63.058 Z" id="FR"></path>
    </g>
</svg>