<?xml version="1.0" encoding="UTF-8" standalone="no"?>
<svg width="46px" height="82px" viewBox="0 0 46 82" version="1.1" xmlns="http://www.w3.org/2000/svg" xmlns:xlink="http://www.w3.org/1999/xlink">
    <!-- Generator: Sketch 3.8.3 (29802) - http://www.bohemiancoding.com/sketch -->
    <title>GB</title>
    <desc>Created with Sketch.</desc>
    <defs></defs>
    <g id="Page-1" stroke="none" stroke-width="1" fill="none" fill-rule="evenodd">
        <path d="M16.82,54.605 C17.94,55.477 18.875,55.975 17.692,56.537 L16.822,54.604 L16.82,54.605 Z M17.008,56.848 C16.821,56.972 16.634,57.035 16.448,57.035 C16.261,57.035 16.634,56.785 16.572,56.661 C16.199,55.353 15.266,55.103 16.822,54.605 L17.008,56.848 L17.008,56.848 Z M23.231,12.298 C23.605,12.485 24.414,12.858 24.476,13.294 C24.476,13.606 23.606,14.166 23.854,13.98 C24.228,13.73 24.352,12.983 24.787,13.045 C25.16,13.169 24.725,13.98 25.037,14.229 C25.287,14.417 25.41,13.732 25.659,13.669 C26.592,13.419 28.707,13.794 29.952,13.981 C30.452,14.043 31.135,13.607 31.447,13.981 C31.757,14.293 30.949,14.604 30.762,14.978 C30.638,15.35 30.762,15.724 30.638,16.098 C30.513,16.41 26.593,18.778 25.846,19.338 C24.602,20.273 26.406,19.214 27.029,19.712 C27.277,19.837 26.717,20.086 26.469,20.272 C26.282,20.459 26.157,20.772 25.846,20.834 C25.722,20.834 25.846,20.397 25.722,20.397 C25.472,20.334 25.287,20.583 25.099,20.645 C24.664,20.833 24.602,20.335 24.415,20.771 C23.917,21.891 25.099,22.266 25.411,21.891 C25.471,21.768 25.161,21.581 25.286,21.581 C25.596,21.518 25.906,21.768 26.281,21.768 C26.965,21.706 27.837,20.958 28.707,21.145 C29.143,21.207 29.517,21.643 29.952,21.769 C31.012,22.081 34.496,22.019 35.056,23.265 C35.18,23.638 35.243,24.012 35.118,24.385 L33.688,25.819 C33.5,26.069 33.375,26.379 33.313,26.692 C33.253,26.816 33.376,26.942 33.313,27.002 C32.817,27.938 30.203,31.614 29.393,31.676 C28.15,31.801 27.713,31.178 26.657,31.988 C26.469,32.111 27.03,32.174 27.217,32.111 C27.714,32.049 28.15,31.738 28.585,31.675 C29.455,31.613 28.772,32.235 28.835,32.423 C29.021,32.859 29.829,32.983 29.767,33.42 C29.581,34.79 28.274,33.607 27.901,33.67 C25.971,33.98 29.456,34.79 25.411,34.48 C25.351,34.48 25.351,35.165 25.411,35.165 C25.847,35.352 25.351,34.978 25.785,35.04 C26.283,35.165 27.34,35.974 27.901,35.6 C28.151,35.414 28.211,34.978 28.461,34.853 C28.585,34.79 30.951,36.536 31.199,36.783 C31.634,37.096 31.821,38.653 32.256,39.153 C32.506,39.401 32.879,39.463 33.066,39.713 C33.128,39.838 33.003,39.963 33.003,40.149 C32.941,40.524 32.941,40.959 32.941,41.334 C33.003,42.456 33.439,47.067 33.811,48.001 C33.875,48.126 33.999,47.751 34.124,47.814 C34.374,47.876 34.56,48.188 34.809,48.314 C35.929,48.998 35.679,48.437 36.739,49.746 C37.111,50.182 36.924,50.93 37.236,51.428 C37.546,52.112 38.418,51.488 38.418,52.735 C38.418,53.11 37.734,53.11 37.671,53.483 C37.423,54.48 38.605,55.913 38.854,56.786 C39.164,57.97 38.169,56.224 38.107,57.533 C38.107,57.845 40.347,60.213 39.227,61.396 C38.357,62.268 37.982,61.271 37.36,62.83 C37.3,63.016 37.796,62.767 37.92,62.892 C38.17,63.079 38.23,63.452 38.418,63.639 C38.605,63.829 38.916,64.139 39.102,64.014 C40.347,63.204 39.412,62.394 40.72,62.581 C42.836,62.893 46.26,63.828 45.636,67.191 C45.45,68.251 44.018,71.055 42.961,71.429 C42.587,71.554 42.028,70.806 41.903,71.119 C41.343,72.239 44.266,71.927 41.777,72.613 C41.591,72.675 41.467,72.551 41.28,72.426 C41.217,72.426 41.217,72.301 41.155,72.301 C40.657,72.364 39.911,72.239 39.662,72.613 C39.474,72.986 40.594,72.488 40.842,72.8 C41.092,73.05 40.905,73.548 40.718,73.86 C40.221,74.67 38.852,74.11 38.168,74.358 C37.98,74.42 37.483,74.608 37.668,74.732 C37.732,74.732 39.536,74.172 39.474,74.982 C39.411,75.292 38.727,74.919 38.478,75.106 C38.291,75.293 38.976,75.604 39.225,75.48 C39.349,75.355 39.349,74.98 39.535,74.98 C39.785,74.92 40.035,75.17 40.283,75.355 C41.155,76.165 38.479,75.729 40.283,76.041 C41.155,76.166 42.089,75.481 43.023,75.855 C43.27,75.917 42.648,76.229 42.586,76.478 C42.462,76.914 42.524,77.35 42.462,77.848 C42.274,78.472 41.154,78.223 40.532,78.534 C40.282,78.721 40.469,79.344 40.159,79.469 C39.039,79.842 39.599,78.846 38.914,79.281 C38.229,79.718 37.607,79.531 36.922,79.841 C36.612,79.967 36.487,80.465 36.112,80.465 C35.554,80.465 34.558,79.407 33.998,79.281 C33.562,79.219 30.451,79.967 30.264,79.281 C30.202,78.971 31.074,79.219 30.451,78.783 C30.077,78.533 30.263,79.093 30.139,79.281 C30.015,79.344 29.827,79.219 29.765,79.094 C29.765,78.908 30.201,78.721 30.015,78.721 C29.827,78.658 29.641,79.094 29.455,79.031 C29.268,78.971 29.641,78.658 29.517,78.471 C29.081,77.911 29.33,79.031 29.143,78.971 C28.397,78.721 27.837,77.475 27.65,77.661 C27.4,77.973 28.147,78.411 28.084,78.783 C28.022,79.407 24.538,78.596 24.414,78.783 C24.227,79.093 24.849,79.531 24.786,79.905 C24.724,80.092 24.413,79.842 24.226,79.842 L24.164,79.842 C23.854,79.657 22.858,78.972 22.546,79.095 C22.173,79.282 22.296,79.843 22.111,80.155 C21.987,80.279 22.236,79.781 22.174,79.595 C22.049,79.282 21.738,79.033 21.427,78.785 C20.617,77.975 18.254,77.415 17.134,77.85 C17.134,77.85 16.449,80.84 15.514,81.276 C14.769,81.588 13.462,79.781 12.964,79.532 C12.654,79.345 13.587,80.092 12.777,79.906 C12.03,79.719 10.973,78.971 10.102,79.22 C9.792,79.282 9.916,79.843 9.667,79.968 C9.294,80.093 8.857,79.843 8.423,79.843 C8.361,79.843 8.299,79.843 8.237,79.907 C8.112,80.217 7.365,81.777 7.117,81.777 C6.743,81.713 6.93,80.904 6.681,80.592 C6.308,79.968 4.814,80.404 4.814,79.719 C4.814,79.282 7.304,79.159 7.366,79.159 C7.616,79.095 7.864,78.847 8.051,78.597 C8.175,78.535 8.051,78.287 8.175,78.224 C8.301,78.099 8.55,78.286 8.675,78.224 C9.11,77.85 9.235,77.289 9.67,76.978 C9.857,76.852 10.168,77.102 10.355,77.04 C10.541,76.915 10.479,76.666 10.665,76.54 C10.977,76.23 11.537,76.167 11.848,75.794 C12.034,75.544 11.972,74.111 12.408,73.924 C12.658,73.862 12.906,74.36 13.154,74.422 C14.584,74.547 12.904,72.367 16.39,72.989 C17.572,73.176 19.127,74.797 20.31,73.862 C20.684,73.55 20.56,72.927 20.746,72.554 C20.808,72.429 23.794,70.559 24.168,70.124 C24.542,69.687 22.55,70.996 22.301,71.184 C21.991,71.307 21.679,71.369 21.367,71.432 C21.181,71.432 21.057,71.122 20.87,71.182 C19.314,71.619 19.688,72.927 17.82,71.868 C17.2,71.432 17.323,70.373 16.763,69.812 C16.263,69.312 15.331,70.435 14.709,70.124 C14.584,70.061 14.459,68.129 14.397,67.944 C14.335,67.818 14.273,68.192 14.147,68.192 C13.713,68.254 14.273,67.756 12.779,68.192 C12.593,68.192 12.655,68.566 12.529,68.69 C12.157,68.815 11.659,68.94 11.286,68.815 C10.976,68.753 10.416,68.379 10.539,68.129 C10.725,67.756 11.349,68.005 11.722,67.943 C11.907,67.883 10.165,67.819 9.978,67.57 C9.728,67.196 9.854,66.698 9.854,66.26 C9.854,65.015 12.156,65.7 12.468,65.576 C12.841,65.451 12.903,64.828 13.338,64.766 C13.65,64.766 13.961,65.078 14.272,65.016 C15.268,64.766 17.259,63.084 17.632,62.211 C17.757,61.961 17.508,59.531 17.135,59.158 C16.077,57.85 14.895,61.588 14.458,59.034 C14.334,58.598 15.641,58.536 16.45,57.914 C16.574,57.726 16.512,57.414 16.636,57.227 C16.761,57.041 16.886,56.917 17.01,56.854 C17.26,56.667 17.508,56.604 17.694,56.544 C18.13,56.544 18.504,56.729 19.374,56.417 C19.499,56.355 19.124,55.919 19.312,55.981 C19.748,56.044 19.997,56.543 20.432,56.605 C21.304,56.73 21.49,55.92 22.112,56.48 C22.424,56.793 22.548,57.727 22.922,57.478 C23.295,57.228 22.61,56.544 22.735,56.108 C22.797,55.858 23.917,55.982 24.725,56.978 C24.913,57.166 24.229,56.978 23.979,56.855 C23.419,56.545 23.169,55.609 23.295,54.923 C23.357,54.549 23.73,54.238 24.041,53.988 C24.291,53.802 24.911,53.988 24.851,53.678 C24.725,53.303 23.978,53.303 23.854,52.93 C23.044,51.185 25.16,52.555 25.16,51.808 C25.222,51.434 24.724,51.621 24.91,51.185 C25.097,50.749 25.658,50.437 25.595,49.938 C25.533,49.004 24.785,50.686 23.915,50.748 C23.355,50.748 24.102,49.565 23.915,49.066 C23.79,48.818 23.48,49.566 23.231,49.504 C22.485,49.254 23.108,48.569 23.045,48.194 L22.298,46.637 C22.236,45.891 24.29,43.835 24.352,43.835 C24.477,43.897 24.415,44.208 24.54,44.145 C25.037,44.021 25.722,43.897 25.846,43.461 C25.971,43.087 25.099,43.461 24.726,43.399 C24.476,43.336 24.229,43.024 23.916,43.087 C23.544,43.211 23.356,43.71 22.984,43.835 C22.672,43.959 22.299,43.71 21.988,43.772 C21.614,43.897 21.428,44.208 21.118,44.332 C20.992,44.395 20.806,44.395 20.744,44.27 C20.682,44.083 21.054,43.772 20.868,43.71 C20.682,43.647 20.744,44.083 20.618,44.208 C20.558,44.271 20.433,44.208 20.37,44.148 C20.06,43.773 20.06,42.838 19.375,42.714 C18.503,42.527 19.685,43.586 19.063,44.584 C18.815,44.957 18.503,43.96 18.256,43.586 C16.451,41.219 18.318,43.96 15.891,42.526 C15.269,42.153 16.761,42.466 16.699,42.153 C16.637,40.72 16.886,40.843 17.759,39.848 C19.376,38.041 16.637,40.158 18.629,38.352 C18.815,38.165 19.251,38.165 19.376,37.916 C19.626,37.48 18.442,36.046 18.38,35.922 C18.318,35.735 18.69,35.735 18.753,35.548 C18.94,35.112 18.753,34.551 18.94,34.053 C19.188,33.493 19.687,34.115 20.246,34.365 C22.3,35.299 19.188,33.805 19.188,33.679 C19.002,33.306 19.188,32.809 19.251,32.309 C19.251,31.999 19.501,31.624 19.313,31.375 C19.251,31.313 16.763,32.683 16.575,32.87 C16.078,33.307 16.885,34.18 16.762,34.865 C16.698,35.115 16.202,35.052 16.015,35.239 C15.89,35.363 15.765,35.549 15.765,35.736 C15.703,35.923 15.828,36.173 15.765,36.296 C15.578,36.796 15.081,37.046 14.895,37.543 C14.832,37.668 15.205,37.917 15.081,37.98 C14.645,38.23 14.084,38.416 13.587,38.23 C13.213,38.043 14.084,37.544 14.271,37.232 C14.645,36.734 14.521,35.924 14.893,35.426 L16.2,34.304 C16.075,33.994 15.39,34.429 15.266,34.117 C15.141,33.867 16.946,32.809 16.076,32.622 C15.701,32.497 15.514,33.432 15.203,33.245 C14.83,32.935 16.075,32.685 16.323,32.248 C16.573,31.75 16.386,30.628 16.573,30.192 C16.696,29.818 17.008,29.444 17.319,29.382 C17.629,29.32 18.189,30.005 18.189,29.692 C18.189,29.382 17.505,29.382 17.319,29.07 C16.882,28.198 19.434,27.762 19.496,27.762 C19.683,27.575 18.686,27.824 18.686,27.575 C18.686,27.201 19.309,27.139 19.434,26.765 C19.559,26.578 19.06,26.89 18.874,27.077 C18.438,27.387 18.5,27.512 18.127,27.699 C17.317,28.135 16.571,28.819 16.012,28.571 C16.074,28.695 16.136,28.757 16.26,28.821 C16.323,28.945 16.572,29.069 16.448,29.194 C15.95,29.63 13.461,30.502 13.025,29.63 C12.963,29.57 13.025,29.382 13.087,29.382 C14.332,28.882 13.337,30.752 14.892,28.634 C15.888,27.326 11.967,28.011 14.768,27.077 C14.892,27.327 15.018,27.575 15.203,27.762 C15.266,27.886 15.39,28.012 15.513,28.074 C15.39,27.886 15.266,27.637 15.203,27.326 C15.141,27.139 15.639,27.326 15.826,27.326 C16.323,27.326 16.821,27.576 17.256,27.388 C17.816,27.138 13.896,27.201 14.394,26.453 C14.768,25.955 16.386,26.641 16.51,26.391 C16.76,25.769 14.954,25.021 16.696,24.585 C17.133,24.461 17.568,25.021 18.066,24.897 C19.746,24.523 17.63,23.401 17.63,23.401 C17.817,22.966 18.75,23.526 19.06,23.151 C19.373,22.778 19.123,22.155 19.123,21.656 C19.123,21.283 19.185,20.909 19.061,20.659 C19.001,20.535 16.946,18.354 18.316,17.793 C18.626,17.607 18.689,18.79 19.062,18.666 C19.562,18.541 18.877,17.108 19.624,17.544 C20.619,18.104 20.682,18.167 20.682,18.104 C20.868,17.294 20.182,17.234 20.245,16.424 C20.245,16.111 21.055,16.797 21.179,16.484 C21.429,16.049 20.869,15.488 20.929,15.052 C20.929,14.866 21.117,15.364 21.304,15.364 C21.739,15.551 22.424,15.924 22.734,15.551 C22.984,15.239 22.114,14.927 21.988,14.554 C21.678,13.494 22.61,14.304 22.61,14.304 C22.735,14.179 22.424,13.93 22.486,13.806 C22.61,13.744 22.922,14.056 22.922,13.93 C22.922,13.743 22.486,13.618 22.548,13.43 C22.61,12.995 22.984,12.683 23.233,12.31 L23.231,12.298 Z M41.651,0.521 C41.651,0.708 41.775,0.833 41.713,0.957 C41.651,1.081 41.34,0.894 41.34,1.017 C41.277,1.33 41.9,0.707 42.21,0.77 C42.397,0.832 41.9,1.08 41.774,1.268 C41.774,1.331 42.024,1.518 41.961,1.58 C41.838,1.643 41.589,1.33 41.526,1.518 C41.526,1.643 41.9,1.643 41.9,1.83 C41.96,2.39 41.152,2.204 41.214,2.39 C41.277,3.2 41.339,3.823 40.094,5.132 C40.032,5.257 40.157,4.882 40.219,4.759 C40.591,3.949 41.276,2.579 40.965,2.392 C40.715,2.142 40.465,3.077 40.155,2.89 C39.72,2.704 39.533,2.143 39.408,1.707 C39.345,1.582 39.595,1.645 39.718,1.582 C40.218,1.52 40.714,1.645 41.15,1.457 C41.46,1.271 41.46,0.835 41.648,0.523 L41.651,0.521 Z M33.373,11.738 C32.565,13.356 28.831,9.868 31.445,9.681 C31.818,9.681 32.191,10.117 32.191,10.551 C32.254,10.801 31.446,10.741 31.571,10.926 C31.757,11.301 32.317,11.301 32.691,11.426 C32.877,11.549 33.126,11.612 33.374,11.736 L33.373,11.738 Z M6.086,38.856 C6.273,39.106 6.522,39.292 6.771,39.168 C7.145,38.981 7.271,38.358 7.643,38.171 C8.016,37.921 8.453,38.483 8.826,38.421 C9.262,38.421 9.572,38.109 9.946,38.171 C10.381,38.234 10.631,38.671 11.004,38.794 C11.19,38.919 11.564,38.67 11.626,38.856 C11.876,39.292 11.999,39.916 11.876,40.414 C11.876,40.601 11.626,40.664 11.626,40.788 C12.31,43.468 11.999,39.978 12.746,42.346 C12.996,43.031 11.376,43.966 11.376,43.966 C12.436,43.716 13.556,42.906 13.368,45.399 C13.118,47.829 11.378,46.521 10.878,47.082 C10.443,47.518 10.755,48.515 9.635,48.328 C9.385,48.328 9.199,48.078 9.012,47.891 L8.764,47.579 C7.831,47.019 9.138,48.453 7.022,47.705 C6.712,47.643 7.146,47.082 7.272,46.771 C7.332,46.334 6.712,46.459 6.586,46.209 C6.276,45.587 6.586,44.091 5.902,44.216 C3.226,44.59 6.648,45.836 3.786,46.086 C2.853,46.146 0.426,42.908 0.676,42.596 C0.736,42.596 3.164,41.973 3.164,41.973 C3.288,41.599 2.479,41.413 2.417,41.038 C2.293,40.664 3.911,41.162 4.097,41.038 C5.093,40.414 4.72,38.856 6.087,38.856 L6.086,38.856 Z M17.941,13.046 C17.631,13.544 16.761,14.042 16.635,14.416 C16.573,14.726 16.511,16.472 15.702,16.472 C15.268,16.41 15.33,15.724 15.019,15.412 C14.646,15.162 15.143,16.472 14.769,16.66 C14.583,16.722 14.334,16.41 14.209,16.534 C13.774,16.784 13.712,17.656 13.214,17.656 C12.778,17.656 12.404,16.908 12.654,16.534 C12.904,16.098 13.961,16.846 14.147,16.347 C14.334,15.91 13.277,15.847 13.089,15.349 C13.027,15.162 13.525,15.225 13.649,15.099 C13.712,15.039 13.463,15.099 13.463,15.039 C13.34,14.789 13.277,14.539 13.34,14.291 C13.9,12.731 14.335,14.165 15.206,14.353 C15.269,14.353 14.896,13.417 15.082,13.231 C15.702,12.484 15.702,13.168 16.325,13.106 C16.388,13.043 16.388,12.856 16.45,12.856 C16.823,12.546 17.197,12.046 17.632,12.109 C17.942,12.171 17.819,12.731 17.942,13.043 L17.941,13.046 Z M18.751,46.754 C18.441,46.816 18.129,46.816 17.818,47.004 C17.568,47.19 17.508,47.626 17.258,47.874 C14.582,50.304 18.876,49.684 18.751,46.754 L18.751,46.754 Z" id="GB"></path>
    </g>
</svg>