<svg xmlns="http://www.w3.org/2000/svg" width="108.94" height="84.92" viewBox="0 0 108.94 84.92">
  <g>
    <polygon points="55.76 30.87 55.76 30.43 55 30.65 55.76 30.87"/>
    <path d="M59.62,41.44l-0.74-.62a7.45,7.45,0,0,1-1.72-2.66A15.81,15.81,0,0,1,55,42.59c0.2,0.27.38,0.51,0.55,0.7l0,5.47L54.93,49c0.94,0.45,2.42,1.14,4.65,2.11l0-8.68v-1Z"/>
    <path d="M107,62.6c-2.21-3.46-7.72-5.59-14.1-8-1.62-.65-3.32-1.3-5-2-4.76-2-7.26-3.17-8.47-3.77L79.39,43.3c1-1.17,2.73-3.71,3.59-8.38a4.49,4.49,0,0,0,1-.53,8.47,8.47,0,0,0,3.14-5.68c0-.17.32-5.17-2-7.17l-0.28-.22a38.05,38.05,0,0,0,.42-7C84.58,7.28,77.74,0,67.48,0A18.71,18.71,0,0,0,55,4.53a16.79,16.79,0,0,1,2.71,3.06A14.71,14.71,0,0,1,67.48,4.1c7.94,0,13.2,5.4,13.67,10.67a48.6,48.6,0,0,1-.62,7.82l-0.37,2.86,2.38-.5A9.39,9.39,0,0,1,83,28.54a6.47,6.47,0,0,1-1.25,2.63l-2.3-.68-0.31,2.38c-0.76,6-3.08,8-3.08,8l-0.81.62,0.1,9.72,1,0.59a94.9,94.9,0,0,0,10,4.56c1.72,0.69,3.45,1.35,5.12,2,5.5,2.11,10.63,4.1,12.12,6.45,1,1.54,1.39,9.12,1.23,16H83.9c0,0.86,0,1.61-.07,2.16l0,2h25l0-2C109,79.1,109.23,66.06,107,62.6Z"/>
    <path d="M82.79,84.92H0.17l-0.08-2C0,79.07-.39,66.16,1.9,62.57S9.63,57,16,54.53c1.64-.63,3.34-1.29,5-2,4.76-2,7.26-3.17,8.47-3.77l0-5.47a17.44,17.44,0,0,1-3.6-8.38,4.56,4.56,0,0,1-.92-0.5,8.54,8.54,0,0,1-3.18-5.69c0-.21-0.31-5.15,2-7.17l0.28-.22a38.23,38.23,0,0,1-.42-7C24.38,7.28,31.22,0,41.48,0s17.1,7.28,17.78,14.32a38,38,0,0,1-.42,7l0.28,0.22c2.32,2,2,7,2,7.17A8.47,8.47,0,0,1,58,34.39a4.49,4.49,0,0,1-1,.53c-0.86,4.67-2.56,7.21-3.59,8.38l0.06,5.48c1.21,0.6,3.71,1.77,8.47,3.77,1.68,0.7,3.38,1.35,5,2C73.3,57,78.81,59.14,81,62.6S83,79.1,82.83,83ZM4.13,80.81h74.7c0.16-6.88-.23-14.46-1.23-16h0c-1.49-2.35-6.62-4.34-12.12-6.45-1.67-.65-3.4-1.31-5.12-2a94.9,94.9,0,0,1-10-4.56l-1-.59-0.1-9.72,0.81-.62h0s2.32-2,3.08-8l0.31-2.38,2.3,0.68A6.47,6.47,0,0,0,57,28.54a9.39,9.39,0,0,0-.47-3.59l-2.38.5,0.37-2.86a48.6,48.6,0,0,0,.62-7.82C54.68,9.5,49.42,4.1,41.48,4.1S28.29,9.5,27.78,14.71a49.46,49.46,0,0,0,.62,7.82l0.36,2.86-2.38-.5a9.31,9.31,0,0,0-.47,3.56,4.34,4.34,0,0,0,1.54,2.65l2.31-.67v2.39c0.77,6,3.09,8,3.12,8l0.74,0.62v1l0,8.74-1,.59a95.87,95.87,0,0,1-10,4.55c-1.73.72-3.46,1.38-5.12,2C12,60.47,6.85,62.46,5.36,64.79,4.36,66.35,4,73.94,4.13,80.81Z"/>
  </g>
</svg>
