<?xml version="1.0" encoding="UTF-8" standalone="no"?>
<svg width="37px" height="27px" viewBox="0 0 37 27" version="1.1" xmlns="http://www.w3.org/2000/svg" xmlns:xlink="http://www.w3.org/1999/xlink">
    <!-- Generator: Sketch 3.8.3 (29802) - http://www.bohemiancoding.com/sketch -->
    <title>HU</title>
    <desc>Created with Sketch.</desc>
    <defs></defs>
    <g id="Page-1" stroke="none" stroke-width="1" fill="none" fill-rule="evenodd">
        <path d="M1.39,18.332 C1.64,18.332 2.136,20.264 3.443,21.322 C5.123,22.694 6.555,23.442 7.861,25.124 C8.049,25.374 9.293,25.186 9.418,25.248 C9.916,25.435 10.288,25.871 10.725,26.058 C11.595,26.432 14.335,26.37 15.143,25.684 C15.267,25.56 15.329,24.687 15.765,24.687 C16.948,24.499 16.761,24.747 17.819,23.564 C18.005,23.378 18.254,24.001 18.814,23.564 C19.374,23.128 19.748,22.381 20.432,22.007 C21.865,21.072 20.682,22.007 21.74,22.069 C21.802,22.069 23.42,21.571 23.482,21.571 C23.792,21.571 24.105,21.883 24.416,21.883 C24.54,21.82 24.602,21.571 24.726,21.509 C25.1,21.384 26.966,21.197 27.091,20.761 C27.215,20.511 26.281,20.201 27.401,20.013 C27.837,19.95 28.273,20.387 28.646,20.263 C29.829,19.826 29.456,17.583 29.766,16.898 C29.89,16.712 30.202,16.712 30.326,16.525 L31.011,14.345 C31.135,14.032 31.321,13.783 31.321,13.472 C31.321,13.347 31.011,13.347 31.011,13.222 C31.073,12.662 31.758,10.917 32.069,10.418 C32.193,10.294 32.504,10.418 32.504,10.232 C32.816,9.048 32.38,8.176 33.749,6.867 C34.184,6.367 34.682,6.679 35.367,6.43 C36.052,6.12 36.114,5.184 36.611,4.686 C35.864,4.061 36.861,4.186 36.051,3.626 C35.926,3.563 35.741,3.438 35.553,3.438 C35.303,3.501 35.118,3.812 34.869,3.75 C34.496,3.5 34.433,2.877 34.059,2.628 C33.874,2.504 33.624,2.815 33.437,2.753 C32.442,2.379 33.375,1.693 31.944,1.631 C31.944,2.129 31.011,2.129 30.514,2.254 C30.264,2.317 30.014,2.628 29.829,2.504 C28.646,2.129 29.579,0.946 28.024,0.884 C27.402,0.884 27.028,1.756 26.406,1.818 C25.348,2.005 23.979,0.883 23.046,2.068 C22.672,2.566 22.921,4.248 22.236,4.56 C21.988,4.622 21.614,4.372 21.366,4.497 C20.37,5.122 21.801,5.557 20.246,5.807 C19.748,5.869 18.626,4.497 18.129,5.371 C17.943,5.681 18.254,6.243 18.005,6.491 C17.321,7.178 15.392,6.741 14.521,7.365 C13.711,7.863 14.583,8.735 14.831,9.109 C15.081,9.546 9.791,10.479 9.045,10.355 C7.862,10.105 6.991,8.485 5.871,8.362 C5.621,8.3 5.435,8.362 5.311,8.424 C4.441,8.798 5.311,10.792 5.249,11.041 C4.876,11.726 2.636,10.729 1.764,11.477 C1.39,11.789 3.257,11.664 3.319,12.723 C3.444,13.969 2.386,13.035 1.951,13.907 C1.641,14.53 2.761,15.837 2.636,16.087 C2.076,17.022 1.576,17.209 0.456,18.455 L0.396,18.518 C0.52,18.456 0.582,18.394 0.706,18.394 L1.39,18.332" id="HU"></path>
    </g>
</svg>