<?xml version="1.0" encoding="UTF-8" standalone="no"?>
<svg width="26px" height="29px" viewBox="0 0 26 29" version="1.1" xmlns="http://www.w3.org/2000/svg" xmlns:xlink="http://www.w3.org/1999/xlink">
    <!-- Generator: Sketch 3.8.3 (29802) - http://www.bohemiancoding.com/sketch -->
    <title>IE</title>
    <desc>Created with Sketch.</desc>
    <defs></defs>
    <g id="Page-1" stroke="none" stroke-width="1" fill="none" fill-rule="evenodd">
        <path d="M25.007,11.788 C25.131,12.098 25.691,12.41 25.443,12.658 C25.193,13.033 24.447,12.721 24.073,12.971 C23.887,13.158 24.571,13.281 24.571,13.531 C24.634,14.029 24.324,14.528 24.324,15.026 C24.386,15.463 24.822,15.712 24.822,16.148 C24.822,16.458 24.325,16.648 24.325,17.021 C24.262,17.271 24.76,17.519 24.635,17.768 C24.449,18.018 23.951,17.458 23.827,17.706 C23.64,17.956 24.137,18.204 24.2,18.516 C24.2,18.64 24.076,18.766 24.076,18.89 C24.138,19.7 24.386,20.2 24.138,21.008 C23.951,21.568 21.773,24.748 21.4,25.058 C21.276,25.183 20.965,25.245 20.902,25.494 C20.777,25.93 20.965,26.429 20.902,26.864 C20.902,26.928 20.777,26.928 20.777,26.864 C20.591,26.429 20.467,26.99 19.844,26.741 C19.594,26.678 19.594,26.305 19.346,26.241 C18.911,26.118 17.542,26.803 17.231,26.429 C17.167,26.306 17.478,26.306 17.478,26.181 C17.541,25.994 17.043,26.368 16.856,26.306 C15.923,26.243 15.612,25.746 14.74,26.056 C14.615,26.119 14.988,26.368 14.988,26.556 C14.926,26.866 13.808,27.116 13.808,27.116 C13.558,27.116 13.433,26.742 13.184,26.804 C12.748,26.991 12.562,27.552 12.188,27.801 C10.882,28.487 11.691,26.617 10.508,26.804 C10.135,26.866 10.818,27.552 10.695,27.864 C10.508,28.112 10.072,28.112 9.761,28.299 C9.576,28.424 9.451,28.799 9.201,28.859 C9.078,28.859 9.141,28.611 9.016,28.549 C8.891,28.424 8.704,28.299 8.518,28.361 C8.393,28.487 8.518,28.861 8.331,28.923 C7.709,28.985 6.589,28.237 6.215,28.299 C5.718,28.361 5.345,28.736 4.909,28.799 C3.664,28.923 5.593,27.926 4.599,28.112 C4.225,28.237 2.729,28.424 2.606,28.299 C2.356,27.926 4.722,27.239 4.971,26.679 C5.033,26.555 4.784,26.555 4.661,26.493 C4.598,26.368 3.167,26.679 1.361,26.493 C1.301,26.493 1.486,26.43 2.295,26.181 C2.42,26.181 2.545,26.119 2.545,25.994 C2.545,25.931 2.357,25.869 2.42,25.807 C2.978,25.309 2.73,26.119 3.476,25.807 C3.85,25.682 4.908,25.62 4.659,25.309 C4.596,25.246 1.796,25.619 1.669,25.619 C1.111,25.495 0.675,24.623 0.739,23.999 C0.799,23.751 1.299,24.249 1.484,24.125 C1.67,24 1.36,23.815 1.36,23.625 C1.485,23.065 2.48,23.377 3.04,23.252 C3.476,23.19 4.036,23.252 4.348,22.942 C4.598,22.754 3.725,22.317 3.414,22.505 C3.352,22.63 3.539,22.879 3.414,22.941 C3.352,23.003 1.484,22.068 1.112,21.571 C1.05,21.446 1.485,21.757 1.609,21.695 C1.733,21.633 1.609,21.383 1.733,21.321 C2.043,21.134 2.915,21.196 3.351,21.258 C3.911,21.258 4.285,21.818 4.781,22.068 C5.281,22.316 3.849,21.071 4.098,20.572 C4.284,20.136 5.03,20.448 5.466,20.262 C5.716,20.136 5.716,19.762 5.964,19.7 C6.026,19.7 10.008,20.385 10.444,20.136 C10.754,19.949 9.634,20.011 9.448,19.7 C9.386,19.513 9.635,19.202 9.573,19.015 C9.511,18.89 8.266,20.135 7.643,20.075 C7.519,20.011 8.017,19.7 7.83,19.637 C7.643,19.574 7.395,19.823 7.146,19.761 C6.896,19.699 6.711,19.511 6.586,19.325 C6.524,19.201 6.648,19.075 6.586,19.015 C6.586,19.015 4.781,19.387 4.532,19.263 C4.346,19.201 4.968,19.263 5.154,19.201 C5.652,18.951 6.026,18.639 6.524,18.453 C6.648,18.328 6.897,18.515 7.022,18.453 C7.27,18.203 7.332,17.767 7.642,17.456 C7.768,17.33 7.955,17.268 8.142,17.206 C8.266,17.081 7.706,17.206 7.582,17.019 C7.332,16.707 8.142,16.457 8.39,16.209 C8.577,15.959 8.7,15.649 9.013,15.586 C9.199,15.523 9.263,16.021 9.448,15.959 C9.946,15.959 10.444,15.772 10.88,15.523 C11.004,15.461 10.382,15.586 10.382,15.399 C10.382,15.212 10.817,15.274 10.817,15.087 C10.754,14.901 9.51,15.15 8.141,14.777 C6.834,14.403 8.141,14.465 7.829,13.407 C7.519,12.284 5.776,13.094 5.279,12.347 C3.909,10.54 6.459,11.287 6.523,11.287 C6.585,11.225 6.273,11.037 6.336,10.977 C6.584,10.54 6.896,10.103 7.393,9.979 C7.828,9.854 8.326,10.229 8.823,10.229 C8.949,10.229 9.073,10.166 9.136,10.041 C9.944,8.111 7.641,9.543 7.516,8.981 C7.393,8.731 8.076,8.981 8.264,8.795 C8.637,8.545 8.014,7.923 7.954,7.86 C7.954,7.424 8.514,6.863 8.202,6.49 C7.952,6.24 7.455,7.175 7.206,6.926 C6.956,6.676 7.579,6.364 7.704,6.053 C7.766,5.803 7.144,5.866 7.704,5.741 C8.264,5.617 11.188,5.617 11.5,6.426 C11.687,6.862 11.438,7.548 11.81,7.672 C12.184,7.797 12.184,7.05 12.495,6.862 C13.055,6.552 14.672,8.42 14.735,8.232 C14.921,7.797 14.299,7.298 14.361,6.8 C14.485,6.24 16.353,6.426 16.353,6.364 C16.85,6.177 17.223,5.804 17.535,5.429 C17.722,5.179 16.602,5.429 16.602,5.305 C16.415,4.618 16.602,5.552 15.792,5.49 C15.668,5.49 15.855,5.24 15.855,5.116 C15.855,5.056 15.855,4.931 15.792,4.931 C15.544,4.806 14.299,4.744 14.485,3.996 C14.859,2.75 16.103,4.121 16.477,3.996 C16.727,3.872 15.73,3.498 15.917,3.249 C16.167,2.999 16.664,3.499 16.975,3.436 C17.285,3.373 16.725,2.936 16.539,2.75 C16.415,2.625 16.975,2.625 17.037,2.44 C17.287,1.38 14.61,2.44 17.847,0.943 C18.033,0.881 18.281,1.068 18.531,1.13 C19.401,1.38 20.397,1.317 21.144,1.815 C21.578,2.125 20.024,2.749 20.272,3.185 C20.522,3.435 21.019,2.998 21.33,2.687 C21.454,2.562 21.143,2.001 21.392,2.001 C21.765,2.126 22.014,2.624 22.262,2.936 C20.894,2.936 21.268,4.496 20.272,5.116 C20.085,5.242 18.467,4.744 18.592,5.116 C18.654,5.491 19.462,5.679 19.338,6.053 C19.338,6.053 16.911,6.675 16.848,6.675 C16.601,6.985 19.028,10.225 19.961,10.165 C22.823,9.915 19.401,8.668 22.076,8.295 C22.761,8.17 22.45,9.665 22.761,10.288 C22.885,10.538 23.508,10.413 23.446,10.848 C23.321,11.161 22.886,11.722 23.196,11.784 C25.312,12.53 24.006,11.097 24.939,11.658 L25.189,11.97 L25.001,11.783" id="IE"></path>
    </g>
</svg>