<?xml version="1.0" encoding="UTF-8" standalone="no"?>
<svg width="74px" height="85px" viewBox="0 0 74 85" version="1.1" xmlns="http://www.w3.org/2000/svg" xmlns:xlink="http://www.w3.org/1999/xlink">
    <!-- Generator: Sketch 3.8.3 (29802) - http://www.bohemiancoding.com/sketch -->
    <title>IT</title>
    <desc>Created with Sketch.</desc>
    <defs></defs>
    <g id="Page-1" stroke="none" stroke-width="1" fill="none" fill-rule="evenodd">
        <path d="M56.635,71.678 C55.825,72.114 53.149,78.594 53.772,79.466 C54.022,79.84 55.265,79.84 54.892,80.09 C54.582,80.276 54.642,79.653 54.456,80.09 C54.456,80.214 54.332,80.34 54.394,80.526 C54.519,81.024 55.264,81.273 55.451,81.772 C55.515,81.896 55.266,81.834 55.141,81.959 C54.831,82.146 54.521,82.333 54.333,82.645 C54.147,82.957 54.083,83.33 54.023,83.641 C53.959,84.016 54.209,84.514 54.023,84.826 C53.897,85.013 53.71,84.203 52.528,84.266 C51.222,84.39 51.782,84.826 50.038,84.016 C49.293,83.706 49.105,82.333 48.296,81.836 C47.176,81.149 46.181,81.836 44.936,81.336 C44.75,81.274 44.563,81.212 44.376,81.086 C44.128,80.9 44.003,80.466 43.692,80.34 C43.444,80.154 43.132,80.34 42.822,80.216 C41.577,79.78 40.706,78.596 39.337,78.222 C38.777,78.097 38.155,78.658 37.595,78.409 C37.47,78.346 35.975,76.726 36.039,76.477 C36.039,76.227 36.413,76.103 36.413,75.917 C36.476,75.729 36.226,75.667 36.226,75.48 C36.226,75.232 36.351,74.92 36.538,74.67 C36.724,74.42 37.098,74.36 37.348,74.11 C37.658,73.86 37.968,72.926 38.218,73.238 C38.342,73.424 38.528,74.671 39.088,74.608 C41.205,74.298 39.088,72.738 41.765,72.864 C42.45,72.864 41.889,73.611 42.263,73.798 C42.513,73.923 42.885,73.611 43.196,73.736 C43.383,73.798 43.32,74.173 43.446,74.236 C43.818,74.484 44.316,74.733 44.752,74.733 C44.812,74.733 46.369,73.985 46.369,73.985 C46.867,73.923 47.924,74.297 48.671,74.11 C50.225,73.798 50.163,73.175 50.973,72.74 C52.839,71.742 51.47,73.113 53.275,72.988 C54.52,72.926 53.648,72.24 54.147,71.742 C54.333,71.555 54.333,72.302 54.52,72.24 C55.64,71.992 55.64,70.995 56.635,71.68 L56.635,71.678 Z M15.565,48.686 C15.751,49.558 18.489,49.371 18.115,50.742 C18.053,51.116 16.995,50.992 17.12,51.428 C17.244,51.864 18.116,51.738 18.427,52.113 C18.551,52.237 18.117,52.3 18.117,52.487 C18.489,54.729 19.049,51.551 19.173,54.542 C19.235,55.602 18.116,55.976 17.803,56.847 C17.493,57.657 18.427,57.657 18.551,58.343 C18.551,58.593 18.241,58.841 18.241,59.153 C18.054,61.209 18.303,64.075 17.121,66.131 C17.058,66.256 17.121,65.944 16.996,65.881 C16.126,65.571 15.006,64.698 13.946,64.761 C13.761,64.761 14.383,65.011 14.383,65.197 C14.32,65.447 14.01,65.571 13.947,65.882 C13.574,67.315 14.569,67.066 12.827,67.876 C10.4,68.996 11.894,66.691 10.711,66.193 C10.401,66.068 10.089,66.566 9.716,66.566 C9.466,66.566 10.463,66.504 10.524,66.193 C10.524,65.757 9.904,65.507 9.778,65.133 C9.404,63.887 10.276,63.077 10.463,62.018 C10.523,61.582 10.276,61.208 10.4,60.772 C10.462,60.398 11.146,60.212 11.022,59.837 C10.96,59.527 10.275,59.837 10.088,59.589 C9.902,59.277 10.213,58.904 10.213,58.592 C10.213,58.53 9.963,58.53 10.026,58.468 C10.15,58.281 10.523,58.344 10.648,58.094 C10.898,57.472 9.964,54.418 9.59,53.982 C8.844,53.172 8.345,55.852 8.533,52.736 C8.595,52.3 9.03,51.988 9.093,51.552 C9.155,51.302 8.843,51.054 9.03,50.867 C9.092,50.803 9.528,52.112 10.648,52.112 C11.582,52.174 15.004,49.37 15.564,48.685 L15.565,48.686 Z M41.202,5.07 C41.077,6.316 39.522,6.067 39.397,7.064 C39.273,7.812 40.704,7.687 41.015,7.937 C41.451,8.309 40.268,8.807 40.082,9.369 C39.832,10.179 40.828,9.307 40.952,9.619 C41.077,9.929 40.392,10.739 40.828,10.989 C41.451,11.362 43.94,12.859 41.762,12.734 C41.886,12.421 41.886,12.172 41.637,11.861 C40.455,10.741 40.517,11.238 39.833,12.111 C39.895,12.048 39.895,11.985 39.895,11.985 C39.895,11.362 38.712,11.238 38.153,11.487 C37.841,11.674 38.153,12.359 37.903,12.609 C37.655,12.859 37.219,12.671 36.846,12.796 C35.974,13.168 35.166,14.166 34.17,14.352 C33.86,14.415 33.548,14.102 33.3,14.29 C33.05,14.352 33.3,14.726 33.174,14.975 C33.112,15.161 32.926,15.411 32.801,15.597 C32.865,15.535 32.865,15.473 32.927,15.473 C33.237,15.473 32.989,16.158 33.237,16.283 C33.362,16.345 33.424,15.909 33.549,16.033 C33.673,16.283 33.922,16.781 33.673,16.968 C33.549,17.031 33.487,17.155 33.549,17.278 C33.611,17.342 33.735,17.218 33.859,17.218 C34.233,17.528 34.856,17.716 34.919,18.152 C35.291,19.896 33.797,19.212 33.362,20.272 C33.239,20.582 34.048,23.947 34.234,24.322 C34.608,24.944 38.964,28.059 39.834,28.558 C40.706,29.056 40.954,28.744 41.764,29.43 C42.634,30.178 43.817,35.1 44.502,36.346 C45.186,37.656 46.617,38.839 47.738,39.712 C48.111,39.962 48.671,40.022 48.982,40.334 C49.169,40.46 48.982,40.834 49.106,40.958 C50.786,42.702 53.96,42.142 55.952,41.83 C56.387,41.768 57.32,41.083 57.88,41.706 C59.436,43.45 54.77,44.073 57.134,45.693 C59.374,47.189 62.484,47.063 64.788,48.248 C65.598,48.684 65.908,49.368 66.841,49.681 C67.587,49.993 69.641,50.304 70.263,50.801 C70.513,50.989 70.263,51.426 70.449,51.613 C71.197,52.673 73.189,52.485 73.809,54.666 C74.059,55.476 73.499,55.226 73.312,55.786 C73.189,56.099 73.376,57.346 73.126,57.47 C72.878,57.657 72.442,57.47 72.068,57.283 C70.14,56.535 70.948,55.413 69.952,54.105 C69.392,53.355 67.588,54.105 66.655,53.793 C65.41,53.356 64.725,51.923 63.543,53.169 C63.42,53.356 61.863,56.472 61.863,56.596 C61.863,56.784 62.175,56.971 62.113,57.221 C61.863,58.404 60.62,58.341 61.678,59.713 C62.3,60.46 62.486,59.775 63.171,59.963 C63.918,60.211 64.415,60.959 65.101,61.27 C65.349,61.395 65.721,61.27 65.847,61.52 C65.971,61.706 65.597,61.956 65.597,62.205 C65.66,63.948 66.469,62.329 66.345,64.572 C66.283,65.88 63.793,65.382 62.673,66.69 C61.863,67.625 62.923,68.56 62.673,69.68 C62.486,70.616 61.863,70.366 61.243,70.865 C59.748,72.173 60.807,75.165 57.695,74.292 C57.073,74.105 56.388,72.485 56.762,71.799 C57.01,71.425 57.632,71.489 57.942,71.176 C58.13,70.928 58.13,70.556 58.192,70.242 C58.254,69.932 58.502,69.682 58.442,69.372 C58.379,68.996 57.756,68.809 57.818,68.436 C58.068,67.314 59.561,67.936 59.996,67.314 C61.054,66.068 59.81,65.881 59.312,65.196 C58.814,64.448 59.062,63.389 58.689,62.579 C58.503,62.081 58.254,61.644 57.942,61.269 C57.88,61.146 57.632,61.146 57.507,61.021 C56.387,59.339 57.569,60.336 56.823,58.467 C55.891,56.1 55.33,57.284 53.463,57.407 C53.403,57.407 53.526,57.222 53.463,57.097 C53.215,56.847 52.903,56.537 52.53,56.349 C52.157,56.162 51.41,56.349 51.16,55.912 C50.912,55.476 51.66,55.042 51.597,54.542 C51.534,54.044 51.161,53.608 50.912,53.232 C49.418,51.178 49.169,54.044 47.427,53.42 C47.24,53.358 48.609,52.36 47.987,51.925 C45.747,50.305 47.924,51.987 45.497,51.675 C45.311,51.615 45.497,51.302 45.435,51.115 C45.185,50.367 43.88,48.375 43.257,48.125 C41.577,47.501 42.884,48.685 42.324,48.56 C41.764,48.436 41.266,47.75 40.644,47.813 C40.084,47.938 39.648,48.685 39.15,48.56 C38.59,48.436 38.652,47.626 38.28,47.252 C37.843,46.878 36.723,47.002 36.35,46.752 L35.417,45.445 C34.981,45.071 34.297,45.009 33.923,44.573 C33.177,43.451 34.049,43.638 33.177,42.953 C32.804,42.641 32.369,42.393 31.933,42.143 C31.809,42.081 31.559,42.267 31.435,42.205 C30.75,41.645 30.75,40.585 30.067,40.025 C28.883,39.027 28.137,39.775 26.893,39.277 C26.705,39.215 27.203,39.027 27.328,38.903 C27.702,38.403 26.955,37.593 26.768,37.407 C26.643,37.283 26.395,37.407 26.27,37.283 C26.083,37.033 26.083,36.659 25.835,36.473 C25.525,36.223 24.901,36.41 24.653,36.036 C24.466,35.786 25.026,35.288 24.715,35.101 C24.341,34.791 23.719,35.163 23.221,34.976 C22.911,34.852 23.408,34.291 23.408,33.916 C23.594,32.671 23.408,32.236 22.723,31.176 C21.416,29.306 22.35,27.624 20.793,26.191 C20.67,26.004 20.421,25.941 20.233,25.879 C20.173,25.879 20.109,26.067 20.047,26.004 C19.737,25.879 19.549,25.504 19.237,25.504 C19.052,25.504 19.425,26.067 19.237,26.004 C18.741,25.879 18.367,25.504 17.932,25.194 C17.744,25.069 16.189,23.449 15.69,23.449 C15.566,23.449 15.753,23.761 15.628,23.823 C15.504,23.886 15.318,23.823 15.255,23.699 C14.945,23.324 13.637,22.702 13.015,22.702 C12.765,22.702 11.148,23.636 11.025,23.886 C10.899,24.136 11.085,24.508 10.899,24.696 C10.712,24.946 10.215,24.883 10.029,25.069 C9.592,25.505 9.281,26.502 8.783,26.939 C7.975,27.749 6.543,27.686 5.611,27.811 C5.301,26.689 7.415,25.256 6.481,24.571 C6.171,24.384 5.735,24.633 5.361,24.695 C4.988,24.695 4.553,24.882 4.181,24.757 C3.495,24.57 1.877,23.387 1.939,22.514 C1.939,22.388 2.249,22.388 2.249,22.264 C2.189,22.076 1.566,21.889 1.753,21.516 C2.003,21.266 2.313,21.079 2.499,20.768 C2.561,20.706 2.375,20.581 2.437,20.458 C2.499,20.27 3.06,20.581 3.122,20.394 C3.122,19.894 3.059,19.397 2.872,19.024 C2.56,18.524 0.507,17.714 0.632,16.718 C0.632,16.408 1.192,16.408 1.502,16.344 C1.689,16.344 1.814,16.718 2.002,16.656 C2.312,16.594 4.302,14.973 3.992,14.413 C3.806,14.038 3.182,13.975 2.996,13.539 C2.81,13.289 3.059,12.854 2.934,12.605 C2.064,11.109 0.444,11.857 3.307,10.175 C3.93,11.295 5.61,10.05 6.419,9.863 C6.979,9.738 7.414,10.486 7.974,10.486 C8.037,10.486 9.779,8.679 9.779,8.368 C9.841,8.056 9.281,7.932 9.343,7.682 C9.469,7.307 9.967,7.182 10.278,6.934 C10.588,6.684 10.838,6.434 11.148,6.186 C11.274,6.123 11.398,5.999 11.46,6.061 C11.585,6.434 11.523,6.808 11.523,7.181 C11.523,7.369 11.336,7.618 11.398,7.867 C11.833,8.677 12.828,8.864 13.514,9.113 C13.577,9.113 13.701,9.238 13.701,9.363 C13.639,9.613 13.203,9.799 13.266,10.048 C13.328,10.298 13.764,10.172 13.95,10.36 C14.2,10.67 14.323,11.73 14.697,11.417 C15.755,10.607 14.51,10.857 14.51,10.234 C14.51,8.864 16.004,8.489 16.253,7.368 C16.253,7.243 15.567,5.561 16.625,5.748 C17.435,5.872 16.438,7.118 18.055,7.492 C19.052,7.804 18.243,6.557 19.923,6.869 C20.421,6.931 20.173,7.929 20.608,8.177 C20.858,8.301 21.354,8.052 21.292,7.803 C21.166,7.616 20.918,7.491 20.856,7.243 C20.856,6.993 21.229,6.806 21.166,6.556 C21.042,6.246 19.922,5.56 20.793,4.936 C21.913,4.126 21.479,5.934 22.785,5.622 C23.532,5.372 22.35,4.502 22.35,4.376 C22.474,4.126 22.66,3.94 22.723,3.69 C22.848,3.443 22.785,3.13 22.848,2.88 C23.843,3.38 22.972,2.757 23.968,2.88 C24.466,2.943 24.963,4.252 25.958,3.69 L26.768,2.01 C27.266,1.635 29.444,1.884 30.004,1.822 C30.938,1.76 31.684,0.95 32.619,0.95 C32.869,0.95 32.183,1.262 32.121,1.51 C31.811,2.82 32.619,1.947 33.116,2.695 C33.241,2.881 32.93,3.131 33.054,3.38 C33.116,3.505 33.304,3.256 33.427,3.38 C34.61,4.252 34.921,4.377 36.539,4.626 C38.094,4.813 39.649,4.938 41.206,5.062 L41.202,5.07 Z M34.419,26.754 C34.542,26.567 34.542,26.318 34.729,26.194 C35.227,25.694 35.103,27.626 34.419,26.754 L34.419,26.754 Z" id="IT"></path>
    </g>
</svg>