<svg width="75" height="86" viewBox="0 0 75 86" xmlns="http://www.w3.org/2000/svg">
  <path d="M57.01 71.72c-.81.436-3.485 6.915-2.863 7.788.25.374 1.494.374 1.12.623-.31.188-.248-.435-.435 0 0 .126-.124.25-.062.437.124.5.87.748 1.057 1.246.062.125-.186.063-.31.187-.312.187-.623.374-.81.686-.186.31-.248.685-.31.996-.063.374.186.873 0 1.185-.125.186-.312-.623-1.494-.56-1.307.123-.747.56-2.49-.25-.746-.312-.933-1.683-1.742-2.18-1.118-.687-2.114 0-3.36-.5-.185-.062-.372-.125-.56-.25-.248-.186-.372-.622-.684-.747-.25-.186-.56 0-.87-.124-1.245-.437-2.116-1.62-3.485-1.994-.56-.125-1.182.436-1.74.187-.126-.064-1.62-1.683-1.558-1.932 0-.25.374-.375.374-.562.063-.186-.187-.25-.187-.436 0-.25.124-.56.31-.81.187-.25.56-.31.81-.56.31-.25.622-1.184.87-.873.125.187.31 1.433.872 1.37 2.116-.31 0-1.87 2.675-1.743.685 0 .125.747.5.934.248.124.62-.187.93-.063.188.063.126.437.25.5.374.248.87.497 1.308.497.062 0 1.617-.748 1.617-.748.498-.062 1.556.313 2.303.126 1.555-.312 1.493-.935 2.302-1.372 1.867-.996.498.375 2.303.25 1.244-.062.373-.748.87-1.246.188-.187.188.56.374.498 1.12-.25 1.12-1.246 2.116-.56zM15.94 48.727c.187.873 2.925.686 2.552 2.057-.063.374-1.12.25-.996.685.124.435.996.31 1.306.685.125.124-.31.186-.31.374.373 2.24.932-.936 1.057 2.054.06 1.06-1.058 1.434-1.37 2.306-.31.81.622.81.747 1.495 0 .25-.31.5-.31.81-.188 2.057.06 4.923-1.12 6.98-.064.124 0-.188-.126-.25-.87-.31-1.99-1.184-3.048-1.122-.187 0 .435.25.435.436-.062.248-.373.374-.435.685-.373 1.433.622 1.184-1.12 1.994-2.427 1.12-.934-1.185-2.116-1.684-.31-.124-.622.374-.996.374-.25 0 .747-.062.81-.374 0-.436-.623-.686-.748-1.06-.373-1.245.5-2.055.685-3.114.062-.436-.186-.81-.062-1.247.062-.374.747-.56.623-.934-.063-.31-.747 0-.934-.25-.187-.31.124-.684.124-.995 0-.062-.248-.062-.186-.125.124-.187.497-.125.622-.374.248-.623-.684-3.676-1.058-4.112-.747-.81-1.245 1.87-1.057-1.246.06-.437.496-.748.558-1.184.062-.25-.25-.5-.062-.686.062-.062.498 1.247 1.618 1.247.933.062 4.356-2.742 4.916-3.428zM41.578 5.112c-.125 1.246-1.68.997-1.805 1.994-.125.747 1.307.623 1.617.872.436.374-.746.872-.932 1.434-.25.81.746-.063.87.248.125.312-.56 1.122-.124 1.37.622.375 3.11 1.87.933 1.746.125-.312.125-.56-.124-.872-1.182-1.122-1.12-.624-1.804.248.06-.062.06-.124.06-.124 0-.623-1.182-.748-1.742-.5-.31.19 0 .874-.25 1.123-.247.25-.683.063-1.056.188-.872.374-1.68 1.37-2.676 1.558-.312.062-.622-.25-.87-.062-.25.062 0 .435-.126.685-.062.186-.25.435-.373.622.062-.062.062-.125.124-.125.312 0 .064.685.312.81.125.063.187-.373.312-.25.124.25.373.75.124.936-.124.062-.187.187-.124.31.062.063.186-.06.31-.06.374.31.997.498 1.06.934.372 1.744-1.122 1.06-1.557 2.118-.125.312.685 3.676.87 4.05.374.623 4.73 3.74 5.602 4.237.87.5 1.118.187 1.927.872.872.748 2.054 5.67 2.74 6.917.683 1.31 2.114 2.493 3.234 3.365.374.25.935.312 1.246.623.186.125 0 .5.124.623 1.68 1.746 4.854 1.185 6.845.874.436-.062 1.37-.748 1.93-.125 1.555 1.744-3.112 2.367-.747 3.987 2.24 1.495 5.35 1.37 7.654 2.554.808.437 1.12 1.123 2.053 1.434.747.312 2.8.624 3.423 1.122.248.187 0 .623.186.81.747 1.06 2.738.873 3.36 3.053.25.81-.31.56-.497 1.12-.125.313.062 1.56-.187 1.683-.25.187-.684 0-1.058-.187-1.93-.747-1.12-1.87-2.116-3.178-.56-.748-2.364 0-3.297-.31-1.246-.438-1.93-1.87-3.113-.624-.125.186-1.68 3.302-1.68 3.427 0 .188.31.374.25.624-.25 1.184-1.495 1.12-.437 2.493.622.747.81.062 1.494.248.746.25 1.244.998 1.928 1.31.25.123.623 0 .747.248.124.187-.25.436-.25.686.063 1.743.872.123.748 2.366-.063 1.31-2.552.81-3.673 2.12-.808.933.25 1.868 0 2.99-.186.934-.808.685-1.43 1.184-1.494 1.308-.436 4.3-3.547 3.427-.622-.187-1.307-1.808-.934-2.493.25-.374.87-.312 1.182-.623.187-.248.187-.622.25-.934.062-.31.31-.56.25-.872-.064-.374-.686-.56-.624-.935.25-1.122 1.743-.5 2.178-1.122 1.058-1.246-.187-1.433-.684-2.12-.498-.746-.25-1.805-.623-2.616-.186-.498-.435-.934-.747-1.308-.062-.125-.31-.125-.435-.25-1.12-1.682.063-.685-.683-2.554-.934-2.367-1.494-1.184-3.36-1.06-.063 0 .062-.186 0-.31-.25-.25-.56-.56-.934-.748-.374-.187-1.12 0-1.37-.437-.248-.436.5-.872.436-1.37-.063-.5-.436-.935-.685-1.31-1.493-2.055-1.743.81-3.485.188-.186-.063 1.183-1.06.56-1.496-2.24-1.62-.062.063-2.49-.248-.185-.064 0-.375-.06-.562-.25-.748-1.557-2.742-2.18-2.99-1.68-.624-.372.56-.932.435-.56-.125-1.058-.81-1.68-.748-.56.125-.996.872-1.494.748-.56-.125-.498-.934-.87-1.308-.437-.374-1.557-.25-1.93-.5l-.933-1.307c-.435-.374-1.12-.437-1.493-.873-.747-1.12.125-.934-.747-1.62-.373-.31-.81-.56-1.245-.81-.124-.062-.373.125-.498.063-.684-.56-.684-1.62-1.368-2.18-1.184-.998-1.93-.25-3.175-.748-.187-.063.31-.25.436-.375.375-.498-.372-1.308-.56-1.495-.124-.125-.373 0-.497-.125-.187-.25-.187-.623-.435-.81-.312-.25-.934-.062-1.183-.436-.187-.25.373-.75.063-.936-.375-.31-.997.063-1.494-.124-.31-.125.187-.686.187-1.06.187-1.246 0-1.68-.684-2.74-1.307-1.87-.373-3.552-1.93-4.985-.123-.187-.373-.25-.56-.312-.062 0-.124.187-.186.125-.31-.125-.498-.5-.81-.5-.186 0 .187.562 0 .5-.496-.125-.87-.5-1.306-.81-.186-.125-1.742-1.746-2.24-1.746-.124 0 .063.313-.062.375s-.31 0-.373-.125c-.312-.374-1.62-.997-2.242-.997-.248 0-1.866.935-1.99 1.184-.126.248.062.622-.126.81-.186.248-.684.186-.87.373-.436.436-.747 1.433-1.245 1.87-.81.81-2.24.747-3.173.87-.312-1.12 1.804-2.553.87-3.24-.31-.185-.746.063-1.12.126-.373 0-.808.186-1.182.06-.685-.186-2.302-1.37-2.24-2.24 0-.126.31-.126.31-.25-.06-.188-.683-.375-.497-.75.25-.248.56-.435.747-.746.062-.063-.125-.187-.063-.312.062-.187.622.125.684-.062 0-.5-.062-.997-.248-1.37-.312-.5-2.365-1.31-2.24-2.306 0-.312.56-.312.87-.374.187 0 .312.374.498.312.31-.063 2.303-1.683 1.992-2.244-.187-.373-.81-.436-.996-.872-.186-.25.062-.685-.062-.935-.872-1.494-2.49-.746.373-2.43.624 1.123 2.304-.123 3.113-.31.56-.125.995.623 1.555.623.062 0 1.804-1.807 1.804-2.12.063-.31-.497-.435-.435-.684.124-.375.623-.5.934-.75.31-.248.56-.497.872-.747.124-.062.25-.186.31-.124.125.373.063.747.063 1.12 0 .187-.187.436-.124.686.436.81 1.432.996 2.117 1.246.062 0 .186.125.186.25-.062.248-.498.435-.436.685.063.248.498.124.685.312.25.31.373 1.37.747 1.057 1.057-.81-.188-.56-.188-1.184 0-1.37 1.494-1.744 1.743-2.866 0-.124-.685-1.806.373-1.62.81.125-.187 1.37 1.43 1.745.996.31.188-.935 1.868-.623.497.06.248 1.058.685 1.308.25.124.747-.125.685-.375-.125-.187-.374-.31-.436-.56 0-.25.372-.436.31-.686-.124-.31-1.244-.996-.373-1.62 1.12-.81.684.997 1.99.686.748-.25-.434-1.122-.434-1.246.124-.25.31-.437.373-.686.125-.248.062-.56.125-.81.996.5.125-.123 1.12 0 .498.063.996 1.372 1.992.81l.808-1.68c.5-.375 2.677-.126 3.236-.188C31.31 1.81 32.056 1 32.99 1c.25 0-.436.31-.498.56-.31 1.31.498.437.996 1.184.124.187-.187.437-.062.686.062.125.25-.125.373 0 1.18.872 1.493.997 3.11 1.246 1.556.187 3.112.31 4.668.436zm-6.783 21.683c.124-.187.124-.436.31-.56.5-.5.374 1.433-.31.56z" stroke="#E8E8E8" fill="#E5E5E5" fill-rule="evenodd"/>
</svg>
