<?xml version="1.0" encoding="UTF-8" standalone="no"?>
<svg width="21px" height="23px" viewBox="0 0 21 23" version="1.1" xmlns="http://www.w3.org/2000/svg" xmlns:xlink="http://www.w3.org/1999/xlink">
    <!-- Generator: Sketch 3.8.3 (29802) - http://www.bohemiancoding.com/sketch -->
    <title>NL</title>
    <desc>Created with Sketch.</desc>
    <defs></defs>
    <g id="Page-1" stroke="none" stroke-width="1" fill="none" fill-rule="evenodd">
        <path d="M0.38,16.508 C0.255,18.128 1.562,17.068 2.495,17.505 C2.62,17.567 2.371,17.815 2.495,17.941 C3.242,18.439 3.865,17.567 4.362,17.131 C4.052,16.819 3.678,16.571 3.552,16.508 C3.242,16.445 3.18,17.006 2.868,17.006 C1.811,17.006 2.495,16.383 1.251,16.196 C0.941,16.134 0.629,16.134 0.256,16.258 L0.38,16.508 L0.38,16.508 Z M11.27,3.298 L10.15,4.158 C9.527,6.338 12.265,5.292 11.27,6.04 C10.834,6.35 10.15,6.227 9.9,6.663 C9.59,7.099 10.575,7.497 10.2,7.871 C10.076,8.058 9.278,8.471 9.402,8.657 L10.182,8.953 C10.556,8.953 11.932,6.433 12.945,7.036 C13.325,7.26 12.825,6.848 12.7,6.412 C12.576,5.976 13.572,5.539 13.385,5.104 C13.135,4.542 11.642,5.29 11.642,4.73 C11.705,4.293 11.954,3.92 12.016,3.484 C12.016,3.358 11.891,3.234 11.829,3.109 C11.766,2.985 11.069,3.669 11.319,3.356 L10.086,4.106 C9.651,4.231 9.152,4.044 8.716,4.044 C8.531,4.044 8.344,3.92 8.282,3.982 C7.472,4.979 7.722,6.972 7.348,8.032 C6.973,8.966 6.228,10.025 5.542,10.774 C5.292,11.084 5.107,11.459 4.796,11.646 C4.609,11.77 4.173,11.521 4.111,11.77 C3.987,12.144 4.546,12.642 4.361,13.016 C3.738,14.013 1.809,13.516 2.244,13.764 C2.742,14.074 3.114,14.512 3.676,14.761 C3.924,14.823 4.173,14.451 4.36,14.511 C4.61,14.574 5.044,14.948 4.858,15.135 C4.546,15.321 3.738,14.635 3.738,15.009 C3.8,15.569 5.418,15.509 5.108,15.944 C4.173,17.189 3.302,14.884 2.928,14.821 C1.746,14.511 0.626,14.697 0.813,15.133 C0.813,15.193 2.743,16.503 3.115,16.44 C3.24,16.44 3.178,16.19 3.302,16.067 C3.552,15.88 3.8,16.317 4.049,16.377 C4.299,16.503 4.672,16.253 4.921,16.503 C5.045,16.627 5.171,16.813 5.231,17.001 C5.419,17.064 5.543,17.126 5.731,17.064 C6.166,17.064 4.984,15.632 6.477,16.068 C6.601,16.068 6.352,16.378 6.415,16.441 C7.162,17.065 7.348,15.569 7.908,16.005 C8.093,16.193 7.408,16.567 7.596,16.692 C9.026,17.439 7.783,16.505 8.903,16.255 C9.089,16.193 9.4,18 9.836,18.063 C10.832,18.25 12.138,18.187 12.948,19.247 C13.01,19.371 12.698,19.495 12.636,19.62 C12.512,19.994 12.201,20.305 12.138,20.68 C12.138,20.804 12.45,20.742 12.388,20.866 C12.325,21.054 12.014,21.116 11.952,21.366 C11.516,22.924 12.574,22.486 13.57,22.549 L13.632,22.549 C13.507,22.363 13.445,22.176 13.445,22.113 C13.507,21.863 13.943,21.863 14.005,21.615 C14.192,20.555 12.387,20.181 12.948,20.055 C13.134,19.995 13.258,20.243 13.383,20.243 L14.565,19.183 C14.628,18.873 13.819,19.247 14.067,18.748 C14.253,18.312 14.689,18 14.875,17.564 C15.435,16.192 14.065,15.194 13.693,14.51 C13.631,14.385 13.755,14.198 13.818,14.073 C13.818,13.948 13.694,13.761 13.818,13.699 C14.128,13.512 14.503,13.699 14.876,13.574 C15.001,13.514 14.752,13.139 14.876,13.201 C15.25,13.326 15.499,13.761 15.934,13.761 C16.37,13.825 18.05,13.264 18.237,12.827 C18.423,12.392 17.054,12.329 17.613,11.957 C18.609,11.27 19.791,11.021 19.543,9.463 C19.48,8.59 17.178,8.963 17.738,8.029 C17.802,7.842 18.112,8.029 18.112,7.904 C18.175,7.718 17.864,7.531 17.926,7.344 C17.926,7.22 18.112,7.22 18.236,7.22 C18.672,7.22 19.046,7.407 19.481,7.407 C19.979,7.407 19.544,6.41 19.731,5.911 C19.854,5.475 20.913,3.481 20.788,2.421 C19.544,3.045 19.418,0.741 18.361,0.491 C17.428,0.304 12.511,1.363 11.951,2.235 C11.641,2.61 11.516,2.985 11.267,3.295 L11.27,3.298 Z" id="NL"></path>
    </g>
</svg>