<?xml version="1.0" encoding="UTF-8" standalone="no"?>
<svg width="81px" height="114px" viewBox="0 0 81 114" version="1.1" xmlns="http://www.w3.org/2000/svg" xmlns:xlink="http://www.w3.org/1999/xlink">
    <!-- Generator: Sketch 3.8.3 (29802) - http://www.bohemiancoding.com/sketch -->
    <title>NO</title>
    <desc>Created with Sketch.</desc>
    <defs></defs>
    <g id="Page-1" stroke="none" stroke-width="1" fill="none" fill-rule="evenodd">
        <path d="M32.494,30.24 C32.619,29.866 32.369,29.18 32.744,29.118 C35.046,28.682 32.992,30.862 32.244,31.048 C32.244,30.988 32.121,30.988 32.121,30.925 C32.246,30.675 32.433,30.489 32.495,30.24 L32.494,30.24 Z M18.124,65.818 C18.434,65.88 18.249,66.316 18.311,66.628 C18.251,66.69 18.125,66.752 18.063,66.752 C17.813,66.814 17.503,66.814 17.253,66.877 C14.641,67.25 18.063,65.755 18.125,65.817 L18.124,65.818 Z M1.505,101.395 L1.63,101.271 C1.754,101.894 2.003,102.581 1.692,103.201 C1.007,104.449 1.382,102.144 1.505,101.395 Z M2.5,96.785 L2.5,96.66 C2.626,96.785 2.812,96.848 2.812,96.972 C3.185,99.652 1.816,97.719 2.377,96.848 C2.377,96.848 2.377,96.91 2.314,96.972 C2.377,96.91 2.501,96.848 2.501,96.785 L2.5,96.785 Z M79.6,8.37 C79.974,8.868 80.845,10.052 80.098,10.302 C79.352,10.55 77.422,9.554 78.044,10.114 C79.227,11.111 76.864,12.544 76.551,13.292 C76.551,13.354 77.299,16.032 76.428,15.722 C74.063,14.788 76.864,13.23 76.054,11.859 C74.81,9.677 72.881,10.487 71.264,8.743 L71.201,8.431 C71.139,8.431 71.076,8.431 71.014,8.494 C71.014,8.431 70.951,8.431 70.951,8.369 L70.951,8.494 C69.707,8.744 69.956,10.174 68.898,10.487 C67.965,10.737 68.338,9.427 67.281,10.612 C67.156,10.799 67.281,11.11 67.218,11.359 C67.156,11.422 66.472,12.729 66.472,12.793 C66.286,13.291 66.659,14.911 66.722,15.347 C66.722,15.534 66.597,15.659 66.597,15.847 C66.597,16.219 66.659,16.531 66.721,16.905 C66.907,17.403 67.343,17.777 67.405,18.275 C67.715,20.457 67.155,18.961 66.409,19.645 C65.539,20.519 66.347,20.768 66.099,21.827 C66.035,22.077 65.787,22.201 65.725,22.451 C65.725,22.513 64.915,21.765 64.791,21.703 C64.605,21.578 62.303,20.768 62.115,21.017 C61.865,21.267 62.053,21.765 61.865,22.014 C61.12,23.322 60.125,22.514 59.065,22.7 C58.755,22.7 58.319,23.012 58.071,22.825 C57.761,22.575 57.884,22.078 57.698,21.765 C57.262,21.018 55.831,19.087 55.084,18.65 C52.594,17.218 53.714,20.956 53.714,20.956 C53.342,21.018 53.03,20.582 52.657,20.582 C52.47,20.582 52.159,20.769 52.222,20.894 C52.285,20.956 52.347,21.018 52.409,21.018 L52.285,21.018 C51.787,21.143 51.102,20.831 50.853,21.268 C50.668,21.578 51.476,21.766 51.663,22.078 C51.85,22.452 51.975,22.888 51.975,23.323 C51.975,24.071 50.917,24.633 51.103,25.38 C51.165,25.94 53.343,25.816 51.29,27.125 C50.73,27.499 46.436,25.38 45.565,26.501 C45.192,27.001 46.747,30.551 45.503,31.051 L43.513,30.179 C43.138,30.179 41.956,32.359 41.893,32.859 C41.769,33.543 41.769,34.416 41.271,35.039 C40.898,35.474 40.213,34.789 40.401,35.909 C40.649,37.282 42.267,37.406 41.583,39.089 C41.209,40.149 39.156,42.579 38.783,43.699 C38.658,44.261 39.466,44.759 39.28,45.319 L37.91,46.504 C37.414,46.754 36.418,46.192 36.17,46.754 L36.79,49.184 C36.79,49.184 36.48,51.052 36.48,51.114 L36.667,53.42 C36.604,53.668 36.293,53.73 36.231,53.98 C35.671,55.662 34.799,57.406 34.241,59.15 C33.867,60.273 36.481,59.65 36.045,62.702 C35.609,65.632 33.929,62.702 31.377,64.322 C30.567,64.822 29.199,66.939 29.013,67.937 C28.951,68.247 29.323,68.497 29.263,68.747 C29.199,69.431 28.328,69.867 28.328,70.554 C28.328,78.094 29.262,65.008 29.262,72.547 C29.262,72.921 28.825,73.17 28.825,73.544 C28.763,73.98 29.012,74.354 29.075,74.79 C29.075,75.165 28.763,75.6 28.825,75.974 C28.887,76.909 29.882,77.719 30.007,78.654 C30.131,80.024 29.137,81.769 29.447,83.077 C29.82,84.51 32.185,84.387 32.434,85.943 L31.749,88.435 C31.252,88.872 30.007,88.56 30.069,89.185 C30.381,91.863 31.999,91.177 31.314,94.729 L31.376,96.535 C30.816,97.968 28.826,98.092 28.701,98.529 C28.637,98.654 28.949,98.716 28.949,98.902 C29.073,99.152 29.197,99.462 29.073,99.712 C28.886,100.086 28.263,100.149 28.139,100.585 C27.766,101.707 29.509,104.199 28.139,106.13 C27.579,106.94 27.329,106.318 27.144,105.695 C27.206,105.695 27.206,105.695 27.268,105.632 C27.518,105.445 27.144,104.947 26.958,104.698 C25.651,102.642 26.335,105.695 24.282,103.764 C24.096,103.576 24.469,103.202 24.469,102.954 C24.469,102.58 24.096,102.954 24.096,102.954 C23.722,102.394 23.846,101.458 23.971,101.584 C23.971,101.458 23.909,101.396 23.909,101.334 C23.783,100.71 23.597,100.15 23.472,99.527 C23.412,99.153 23.972,98.342 23.535,98.342 C21.98,98.342 24.655,100.274 23.1,101.332 C23.038,101.332 22.976,101.272 22.976,101.209 C22.913,100.834 23.1,100.399 22.976,100.086 C22.788,99.776 22.166,99.214 22.106,99.526 C22.042,100.024 22.664,100.336 22.851,100.771 C22.975,101.021 22.601,101.581 22.726,101.894 C23.224,103.201 23.596,102.516 23.224,103.389 C23.224,103.451 23.224,103.639 23.099,103.639 C22.975,103.639 22.849,103.264 22.726,103.389 C22.29,104.199 22.85,105.259 22.352,105.259 C22.105,105.259 22.415,104.449 22.229,104.573 C21.171,105.258 23.162,105.943 20.549,105.943 C20.237,105.943 20.549,105.32 20.299,105.133 C19.989,104.946 19.429,104.261 19.242,104.573 C19.055,105.009 19.864,105.258 20.052,105.693 C20.112,105.881 18.432,106.006 18.246,106.629 C18.184,106.879 18.868,107.127 18.682,107.314 C18.372,107.687 17.562,107.376 17.252,107.687 C17.064,107.937 17.872,107.999 17.81,108.249 C17.437,110.803 16.94,107.501 16.628,108.809 C16.566,108.934 16.815,109.059 16.753,109.184 C16.443,109.62 14.825,111.551 14.763,111.614 C14.638,111.738 14.453,111.364 14.327,111.489 C13.953,111.801 14.017,112.609 13.517,112.673 C13.145,112.797 13.082,111.738 12.647,111.863 C12.211,111.987 12.397,112.797 12.087,113.046 C11.837,113.233 11.402,112.922 11.153,113.046 C10.967,113.109 10.905,113.358 10.718,113.42 C10.095,113.795 10.282,113.234 9.411,113.234 C8.975,113.234 8.477,113.92 8.228,113.608 C7.98,113.298 9.038,113.048 8.913,112.674 C8.727,112.362 8.353,113.172 7.98,113.172 C7.482,113.234 6.984,113.047 6.486,112.862 C5.429,112.362 7.482,111.677 7.669,111.24 C7.731,110.99 7.296,110.742 7.046,110.804 C6.796,110.867 6.859,111.428 6.549,111.49 C6.176,111.552 5.802,111.302 5.429,111.116 C4.682,110.804 4.246,109.683 3.873,109.434 C3.686,109.247 3.313,109.371 3.063,109.247 C2.629,108.997 1.881,107.377 1.943,106.941 C1.943,106.569 2.38,106.319 2.503,105.883 C2.566,105.509 2.068,104.575 2.503,104.699 C3.003,104.824 2.629,105.883 3.126,106.069 C3.376,106.257 3.436,105.446 3.749,105.322 C3.873,105.198 3.997,105.322 4.122,105.447 C3.996,105.137 3.934,104.825 3.81,104.514 C3.748,104.078 4.68,104.202 4.93,103.89 C5.054,103.766 4.37,103.89 4.432,103.703 C4.556,103.393 4.868,103.205 5.179,103.081 C5.552,102.831 6.299,103.019 6.485,102.583 C6.735,102.023 4.992,102.833 4.618,102.458 C4.37,102.77 4.245,102.77 4.245,102.208 C4.307,101.711 5.365,101.586 5.241,101.15 C5.053,100.65 4.306,100.526 3.809,100.65 C2.999,100.9 3.309,102.832 2.502,102.77 C2.067,102.77 2.379,101.96 2.192,101.648 C2.067,101.461 1.818,101.336 1.569,101.212 C1.569,101.212 1.569,101.272 1.632,101.272 C1.569,101.272 1.569,101.272 1.507,101.335 C1.507,101.273 1.569,101.211 1.569,101.211 C1.383,101.085 1.196,100.961 1.196,100.773 C1.196,100.463 1.943,101.023 2.191,100.836 C2.564,100.524 2.441,99.716 2.875,99.528 C3.185,99.341 3.373,100.026 3.685,100.088 C3.809,100.151 3.622,99.778 3.747,99.715 C3.871,99.59 4.057,99.777 4.182,99.715 C4.432,99.652 3.56,99.652 3.622,99.403 C3.622,99.341 6.175,98.219 5.987,98.219 C3.997,98.094 5.241,99.777 3.311,98.032 C3.248,97.972 3.621,98.032 3.684,97.908 C3.809,97.784 3.684,97.473 3.871,97.41 C4.121,97.223 4.431,97.473 4.681,97.286 C4.805,97.223 4.617,97.036 4.617,96.912 C4.742,96.662 4.867,96.476 4.991,96.352 C5.301,96.164 5.986,96.352 6.048,96.039 C6.111,95.665 5.24,95.727 5.24,95.416 C5.177,95.292 5.3,95.106 5.426,94.918 C5.301,94.918 5.114,94.608 4.99,94.731 C4.68,94.917 4.492,95.228 4.305,95.478 C4.057,95.976 4.181,96.598 3.808,96.973 C3.621,97.16 3.683,96.475 3.621,96.287 C3.248,95.602 2.937,95.789 3.186,95.167 C3.436,94.667 4.431,93.547 3.871,93.67 C3.248,93.857 2.813,96.598 2.066,95.227 C1.879,94.791 1.693,94.293 1.568,93.794 C1.506,93.296 2.44,93.794 3.558,93.42 C3.808,93.358 3.933,93.11 3.995,92.797 C3.559,93.233 2.751,92.299 2.751,92.05 C2.751,91.49 3.621,91.365 4.121,91.115 C3.995,90.429 3.435,91.052 2.937,91.613 C2.937,91.613 2.875,91.613 2.875,91.551 C2.813,91.491 2.751,91.366 2.627,91.241 C2.813,91.428 2.875,91.677 2.937,91.614 C2.627,91.926 2.377,92.174 2.19,92.238 C1.878,92.238 2.003,91.614 1.878,91.366 C1.816,91.24 0.696,90.119 1.008,90.056 C1.443,90.056 1.816,90.43 2.188,90.742 C2.188,90.682 2.128,90.556 2.188,90.432 C2.314,89.995 3.061,89.995 3.434,89.684 C3.496,89.622 3.372,89.372 3.247,89.434 C2.75,89.497 1.941,90.12 1.505,89.871 C0.945,89.559 1.381,88.125 1.692,87.938 C2.127,87.628 2.626,88.561 3.185,88.561 C3.247,88.623 4.492,87.129 5.861,87.814 C6.298,88.001 6.361,88.624 6.795,88.81 C7.231,88.997 6.422,87.875 7.853,87.5 C9.658,87.002 7.791,90.18 9.721,90.056 C10.903,89.931 9.284,88.934 9.346,88.124 C9.409,87.254 12.583,89.308 12.146,87.128 C12.086,86.691 11.276,87.501 10.903,87.378 C10.653,87.315 10.591,86.94 10.591,86.691 C10.591,86.007 12.334,85.321 11.711,85.071 C10.156,84.449 10.653,87.316 10.529,87.627 C10.529,87.689 9.782,87.877 9.159,87.937 C9.036,88.001 9.099,87.752 9.036,87.689 C8.6,87.439 8.102,87.316 7.666,87.066 L7.604,87.003 C7.418,87.44 7.231,87.753 7.107,87.876 C7.044,87.938 5.115,87.066 4.617,87.066 C4.431,87.003 4.555,87.378 4.431,87.44 C3.747,87.75 2.937,87.875 2.253,87.688 C2.128,87.688 1.195,86.628 1.32,86.442 C1.63,86.006 2.19,85.819 2.626,85.694 C3.123,85.57 4.056,86.13 4.056,85.632 C4.119,85.196 3.123,85.507 2.626,85.57 C2.314,85.57 2.066,86.006 1.754,85.88 C0.447,85.383 2.004,84.697 2.377,84.697 C2.999,84.76 4.057,85.507 4.804,85.009 C5.55,84.447 2.626,85.195 2.252,84.322 C2.127,83.948 3.682,84.01 3.372,83.824 C2.999,83.637 2.439,83.886 2.127,83.574 C1.131,82.764 2.627,81.144 3.557,81.082 C4.243,81.082 5.114,81.207 5.487,81.768 C5.674,82.016 5.114,82.453 5.301,82.702 C5.489,82.952 5.364,81.954 5.613,81.892 C5.923,81.829 6.048,82.452 6.36,82.515 C6.608,82.515 5.86,82.078 5.985,81.955 C6.297,81.579 7.79,82.889 8.91,81.829 C9.097,81.643 8.6,81.519 8.35,81.519 C6.173,81.393 9.408,82.017 7.603,82.141 C7.293,82.204 5.363,81.269 4.493,81.144 C4.181,81.144 3.933,80.958 3.621,80.958 C3.248,80.958 2.564,81.518 2.501,81.143 C2.441,80.708 3.435,80.708 3.559,80.273 C3.684,79.711 2.439,79.461 2.439,78.838 C2.439,78.588 3.062,78.838 3.186,79.025 C3.373,79.337 3.373,80.085 3.746,80.023 C4.12,79.96 3.31,78.963 3.684,78.9 C4.182,78.838 4.431,79.835 4.929,79.835 C5.302,79.835 5.179,78.651 5.427,78.9 C5.737,79.15 5.302,79.71 5.302,80.147 C5.302,80.207 5.179,80.395 5.242,80.395 C5.614,80.271 5.428,79.46 5.802,79.46 C5.987,79.46 5.862,79.896 6.049,80.022 C6.423,80.208 7.045,80.582 7.232,80.208 C7.357,79.898 6.422,80.023 6.237,79.773 C5.925,79.399 5.801,78.963 5.801,78.527 C5.737,77.965 6.671,77.529 7.231,77.654 C7.481,77.716 7.356,78.214 7.481,78.464 C7.667,78.837 7.978,79.086 8.101,79.46 C8.101,79.585 7.791,79.834 7.916,79.834 C8.102,79.834 8.164,79.584 8.164,79.46 C7.916,78.214 6.547,77.404 8.724,77.03 C9.471,76.906 9.596,77.965 9.596,78.96 C9.658,78.837 9.721,78.65 9.846,78.588 C10.218,78.278 11.276,78.962 11.151,78.528 C11.027,78.028 10.156,78.464 9.721,78.153 C9.409,77.903 9.534,77.343 9.284,77.031 C8.974,76.595 7.294,76.034 7.044,75.848 C6.982,75.785 7.231,75.598 7.418,75.598 C7.668,75.536 7.978,75.536 8.226,75.661 C8.351,75.723 8.289,76.034 8.413,76.034 C8.6,76.097 9.346,74.788 10.218,75.474 C10.468,75.661 10.093,76.284 10.404,76.408 C10.654,76.533 10.28,75.723 10.529,75.598 C10.965,75.348 11.899,76.718 11.899,76.782 C12.272,76.844 13.019,76.532 12.831,76.222 C12.645,75.848 11.898,76.47 11.587,76.222 C11.151,75.848 12.023,75.162 12.707,74.912 C12.209,75.1 11.773,75.225 11.337,75.225 C7.604,75.287 10.903,74.85 10.777,74.102 C10.717,73.604 9.907,73.667 9.597,73.232 C9.16,72.732 9.347,72.296 11.027,72.482 C11.4,72.545 11.4,73.232 11.773,73.355 C12.023,73.418 12.209,72.982 12.458,72.982 C12.831,72.919 13.143,72.919 13.516,72.982 C13.454,72.919 13.392,72.795 13.329,72.732 C13.267,72.358 13.765,71.984 14.139,71.922 C14.325,71.859 14.139,72.296 14.263,72.482 C14.45,72.732 14.885,72.732 15.01,73.044 C15.133,73.294 14.76,73.667 15.01,73.854 C15.32,74.164 16.13,74.726 16.377,74.29 C16.564,73.854 15.382,73.667 15.319,73.168 C15.319,72.858 16.003,73.106 16.252,72.918 C16.376,72.795 15.817,73.044 15.692,72.918 C15.63,72.858 16.065,72.608 15.942,72.668 C15.63,72.732 15.382,73.168 15.132,73.044 C14.696,72.794 14.572,72.234 14.448,71.797 C14.322,71.609 14.758,71.983 14.944,72.045 C15.131,72.17 14.322,71.422 14.944,71.547 C15.007,71.547 17.494,72.857 17.247,71.173 C16.997,69.117 15.254,72.981 15.627,70.301 C15.69,69.741 17.184,68.744 17.619,68.991 C17.992,69.181 17.557,69.989 17.869,70.364 C17.992,70.551 18.179,70.052 18.366,69.927 C18.676,69.803 19.546,69.803 19.298,69.553 C19.112,69.303 18.24,70.176 18.303,69.803 C18.303,69.366 18.987,69.243 19.298,68.868 C19.672,68.495 19.672,67.748 20.168,67.685 C20.542,67.56 20.355,68.309 20.542,68.62 C20.667,68.87 21.102,68.993 21.102,69.305 C21.102,69.679 20.542,69.865 20.605,70.24 C20.665,70.49 20.977,69.928 21.225,69.99 C21.6,70.053 22.035,70.988 22.222,70.676 C22.408,70.176 21.476,69.804 21.538,69.306 C21.538,68.806 24.088,69.429 24.151,69.429 C24.586,69.119 24.649,68.434 24.586,67.936 C24.526,67.686 23.778,68.186 23.841,67.936 C24.028,67.126 26.579,67.001 26.455,66.376 C26.391,65.879 24.898,65.879 25.208,65.443 C25.458,65.007 26.578,65.133 26.64,64.633 C26.827,62.14 24.586,65.193 24.09,65.63 C23.84,65.818 23.093,66.005 23.28,66.316 C23.528,66.752 24.276,66.503 24.71,66.69 C24.773,66.69 24.586,66.752 24.524,66.814 C24.212,67.002 23.839,67.126 23.527,67.376 C23.217,67.626 21.661,68.996 21.163,68.871 C20.851,68.811 20.975,68.311 20.851,68.061 C20.726,67.811 20.291,67.626 20.415,67.377 C20.602,66.94 21.225,66.877 21.598,66.567 C21.66,66.504 21.348,66.753 21.224,66.691 C21.1,66.691 21.412,66.379 21.35,66.441 C20.914,66.629 20.23,67.626 19.607,67.377 C18.674,67.003 20.043,66.193 20.727,65.757 C21.1,65.57 21.599,65.57 21.847,65.197 C22.034,65.009 21.287,65.383 21.037,65.32 C20.914,65.32 20.977,65.195 20.977,65.07 C21.037,64.633 20.977,64.197 21.225,63.824 C21.351,63.637 21.725,63.949 21.911,63.824 C22.035,63.824 21.661,63.824 21.661,63.699 C21.661,63.512 21.724,63.325 21.786,63.139 C21.974,62.951 22.409,63.387 22.534,63.139 C22.658,62.951 22.472,62.577 22.658,62.327 C22.845,62.077 23.405,62.14 23.528,61.767 C23.592,61.517 22.721,61.207 22.97,61.144 C23.405,61.02 23.778,61.767 24.214,61.642 C24.524,61.58 23.716,61.268 23.529,60.957 C23.219,60.52 24.152,60.022 24.649,59.71 C25.147,59.4 25.334,60.834 25.956,61.083 C26.33,61.207 26.828,61.083 27.076,60.771 C27.201,60.585 26.206,60.771 26.33,60.521 C26.517,60.149 27.325,60.211 27.512,59.837 C27.822,58.965 25.582,61.27 26.142,58.903 C26.205,58.529 26.33,58.279 26.392,58.155 C26.142,58.342 25.894,58.529 25.582,58.655 C24.65,59.089 27.325,57.469 27.139,57.22 C27.076,57.095 26.952,57.095 26.766,57.157 L26.766,57.095 C26.766,56.97 26.33,57.095 26.392,56.97 C26.579,56.534 28.508,56.66 28.819,56.534 C28.944,56.409 28.695,56.098 28.819,55.974 C29.752,55.1 30.996,55.662 31.309,53.854 C31.309,53.544 30.809,54.166 30.561,54.291 C30.251,54.354 29.939,54.291 29.628,54.291 C29.378,54.354 28.944,54.728 28.944,54.479 C29.068,53.669 31.308,53.669 30.686,52.609 C30.623,52.422 30.063,52.547 29.628,52.547 C29.69,52.671 29.814,52.797 29.938,53.047 C29.628,53.357 29.378,53.732 29.068,54.043 C28.944,54.105 28.695,54.479 28.632,54.293 C28.57,53.981 28.57,52.236 29.068,52.173 C29.068,51.987 29.068,51.863 29.192,51.613 C29.379,51.115 30.188,51.363 30.622,51.115 C30.748,51.052 30.312,51.115 30.25,51.052 C30.063,50.804 29.876,50.492 29.814,50.242 C29.752,49.869 30.312,48.436 30.686,48.436 C31.184,48.374 31.433,49.184 31.93,49.308 C32.117,49.371 31.743,48.873 31.68,48.623 C31.557,48.313 31.62,47.751 31.308,47.563 C30.996,47.377 30.438,47.876 30.125,47.627 C29.129,46.817 31.183,47.127 31.495,47.004 C32.055,46.756 32.115,45.946 32.987,46.132 C33.361,46.257 33.547,46.756 33.921,46.756 C34.231,46.756 33.423,46.382 33.361,46.132 L33.361,46.07 C33.298,46.07 33.236,46.132 33.174,46.132 C33.048,46.132 33.174,45.759 33.048,45.697 C32.426,45.571 31.99,46.694 31.306,46.631 C29.128,46.321 32.488,45.883 32.862,45.571 C32.986,45.509 32.612,45.509 32.426,45.509 C31.99,45.447 31.616,45.634 31.182,45.571 C30.622,45.447 30.808,44.451 30.932,43.951 C31.368,41.647 32.302,42.643 33.858,42.021 C34.728,41.647 32.862,41.023 32.613,40.587 C32.487,40.337 33.173,40.524 33.421,40.4 C33.671,40.275 32.361,39.34 33.919,39.84 C34.043,39.84 33.732,40.088 33.732,40.213 C33.792,41.085 34.104,39.776 34.104,39.651 C34.104,39.589 34.229,39.278 34.291,39.403 C34.477,39.589 34.228,40.15 34.539,40.213 C35.037,40.273 35.721,40.025 35.846,39.589 C36.033,39.153 35.161,38.966 35.099,38.529 C35.099,38.469 36.592,37.595 37.089,37.844 C37.402,37.97 36.779,38.967 37.152,38.904 C37.527,38.904 37.092,38.032 37.402,37.844 C37.465,37.784 37.465,37.784 37.527,37.721 L37.34,37.534 C37.153,37.409 37.713,37.036 37.527,36.974 C37.34,36.911 37.215,37.347 36.967,37.472 C36.345,37.722 35.597,38.219 34.977,37.845 C34.727,37.659 35.473,37.285 35.66,36.975 C36.034,36.165 36.158,34.295 37.09,34.98 C37.403,35.23 36.158,35.603 36.47,35.852 C36.718,36.102 37.09,35.416 37.527,35.354 C37.837,35.354 38.149,35.477 38.397,35.727 C38.771,36.101 39.455,37.472 39.269,36.974 C39.145,36.537 38.523,36.164 38.647,35.664 C38.709,35.229 39.455,35.166 39.704,34.794 C39.829,34.606 39.331,34.917 39.144,34.979 C38.211,35.291 37.9,35.727 37.464,34.543 C37.214,33.919 37.776,34.293 37.838,33.981 C37.9,33.919 37.651,34.044 37.651,33.981 C37.464,33.421 39.206,34.293 39.454,33.981 C39.891,33.233 37.961,32.611 37.837,32.611 C37.712,32.611 37.961,32.861 37.899,32.984 C37.712,33.359 36.655,34.668 36.281,34.481 C35.846,34.294 35.783,33.609 35.971,33.171 C36.095,32.798 36.717,33.048 36.965,32.798 C37.152,32.612 36.405,33.048 36.281,32.861 C36.033,32.487 37.091,32.238 37.401,32.487 C37.526,32.549 37.276,32.861 37.339,32.797 C38.335,31.801 39.953,32.425 39.829,31.053 C39.829,30.866 39.454,31.24 39.269,31.115 C39.144,31.052 39.329,30.803 39.206,30.741 C39.144,30.679 39.144,30.991 39.081,30.991 C38.831,31.115 38.646,31.051 38.459,31.051 C38.086,31.115 37.589,31.427 37.464,31.115 C36.654,29.495 39.081,30.615 39.144,30.615 C39.517,30.305 39.206,29.62 39.392,29.183 C39.455,28.997 39.58,29.62 39.642,29.869 C39.704,29.932 39.892,29.807 39.892,29.869 C39.892,30.243 39.642,30.616 39.767,30.929 C39.767,31.052 41.137,33.047 41.447,32.673 C42.194,31.8 39.082,29.059 40.017,28.623 C40.327,28.436 40.95,28.935 41.447,29.371 C41.385,29.183 41.385,28.997 41.26,28.871 C40.95,28.623 40.016,28.747 40.14,28.311 C40.202,27.813 41.012,27.875 41.51,27.813 C44.185,27.377 41.945,28.685 43.625,29.496 C44.807,30.056 42.255,27.564 43.377,27.564 C43.687,27.564 43.874,27.939 44.123,27.939 C44.497,27.876 45.057,27.876 44.995,27.565 C44.622,24.949 43.065,27.565 42.445,27.441 C42.319,27.379 42.693,27.254 42.63,27.131 C42.63,27.005 42.444,26.818 42.32,26.881 C42.132,26.941 42.132,27.317 41.883,27.317 C41.51,27.379 40.888,27.441 40.703,27.067 C40.576,26.817 40.639,26.507 40.763,26.257 C40.453,26.319 40.079,26.381 39.893,26.569 C39.581,26.879 39.893,27.689 39.519,27.939 C39.269,28.126 39.519,27.192 39.269,27.005 C38.959,26.818 38.586,26.88 38.275,26.942 C38.025,27.005 38.15,27.504 37.963,27.69 C37.777,27.877 37.528,28.064 37.341,28.25 C37.091,28.5 36.905,28.75 36.719,29 L36.719,28.75 C36.905,28.313 37.279,27.877 37.341,27.44 C37.404,27.192 37.091,26.88 37.216,26.63 C37.528,26.32 38.15,26.444 38.461,26.132 C39.768,24.887 36.408,25.26 38.211,23.328 C39.519,21.833 39.271,24.638 38.959,26.008 C39.083,25.758 39.269,25.572 39.456,25.508 C39.581,25.448 39.706,25.883 39.768,25.758 C39.955,25.448 39.643,22.458 40.702,23.888 C41.26,24.638 41.447,25.198 41.447,25.508 C41.697,25.385 41.882,25.26 42.069,25.26 C42.319,25.26 42.443,25.76 42.692,25.76 C43.19,25.82 43.75,25.697 44.185,25.447 C44.807,25.073 42.878,25.572 42.755,24.762 C42.755,24.512 43.065,24.202 43.377,24.202 L43.501,24.202 C43.438,24.139 43.376,24.139 43.376,24.014 C43.376,23.639 44.122,23.764 44.433,23.514 C44.495,23.452 44.183,23.452 44.123,23.39 C43.686,23.08 43.5,22.393 43.623,21.832 C43.686,21.334 44.931,21.77 45.055,21.272 C45.18,20.898 44.869,20.524 44.745,20.15 C44.745,20.586 44.682,20.835 44.62,20.898 C44.183,20.898 43.748,20.524 43.375,20.773 C42.752,21.021 42.627,21.831 42.255,22.393 C41.943,22.205 41.383,22.205 41.383,21.893 C41.507,21.395 42.316,21.333 42.441,20.833 C42.566,20.585 41.757,21.146 41.695,20.897 C41.571,20.523 42.255,20.212 42.193,19.775 C42.193,19.525 41.323,19.837 41.508,19.713 C42.378,19.277 43.811,19.65 43.188,18.84 C42.938,18.59 42.006,18.716 42.255,18.53 C42.565,18.342 43.065,18.903 43.438,18.716 C43.811,18.466 43.624,17.656 43.998,17.532 C44.62,17.344 44.744,18.528 44.806,19.525 C44.806,19.151 44.931,18.839 45.056,18.528 C45.366,18.03 45.491,19.774 45.926,20.024 C46.362,20.274 46.922,20.024 47.358,19.836 C47.42,19.836 45.491,19.151 45.616,18.716 C45.74,18.279 46.176,17.718 46.611,17.78 C47.047,17.78 46.985,18.59 47.295,18.902 C47.605,19.212 48.042,19.152 48.415,19.462 C48.602,19.649 48.789,20.46 48.913,20.212 C49.411,18.715 45.74,19.089 47.109,16.16 C47.359,15.662 48.416,15.04 48.913,15.413 C49.348,15.663 48.789,18.591 48.789,18.716 C48.913,18.84 49.099,18.529 49.162,18.342 C49.225,17.967 48.914,17.469 49.162,17.157 C49.349,16.847 50.159,17.344 50.222,16.97 C50.222,16.597 49.349,16.66 49.225,16.285 C49.101,15.973 49.723,13.295 50.657,14.415 C50.907,14.79 50.657,18.279 50.657,18.403 C50.533,18.84 49.723,19.588 50.159,19.713 C51.279,20.087 50.719,17.906 51.092,17.657 C51.465,17.407 52.026,17.657 52.399,17.47 C52.586,17.345 52.089,17.22 51.964,17.096 C51.528,16.722 50.594,16.223 50.968,15.351 C52.586,11.737 50.968,15.851 52.835,14.604 C53.333,14.294 52.835,13.358 53.208,12.922 C53.333,12.798 53.518,12.985 53.643,13.109 C53.769,13.234 53.707,13.483 53.831,13.609 C54.141,13.857 54.516,13.919 54.827,14.169 C55.077,14.355 55.263,14.729 55.574,14.854 C55.886,14.916 55.014,14.418 54.89,14.106 C54.89,14.044 55.14,14.044 55.14,13.919 C55.264,13.047 55.077,11.739 54.952,11.801 C54.642,11.801 52.837,13.358 52.339,11.551 C52.089,10.554 53.894,10.118 54.393,10.243 C54.827,10.305 55.076,10.865 55.513,10.99 C55.636,10.99 55.449,10.616 55.573,10.553 C55.698,10.429 55.947,10.553 56.071,10.616 C56.444,10.616 56.881,10.553 57.191,10.678 C58.001,10.928 56.943,12.734 58.623,12.61 C58.933,12.547 59.121,12.11 59.058,11.8 C59.058,11.613 58.685,11.862 58.498,11.8 C58.311,11.737 58.001,11.675 58.001,11.488 C58.001,11.238 58.747,11.363 58.498,10.928 C58.248,10.553 58.188,10.178 58.436,8.996 L58.436,8.871 C58.311,9.121 58.126,9.371 57.938,9.681 C57.628,9.371 57.068,9.183 56.943,8.809 C56.633,7.687 60.365,5.009 58.933,7.999 C59.493,7.499 60.303,8.061 60.49,7.874 C60.8,7.688 59.805,7.688 59.68,7.377 C59.245,6.317 61.112,6.504 61.236,6.317 C61.486,5.757 59.556,5.071 59.556,4.885 C59.618,4.512 60.49,5.385 60.614,5.072 C60.864,4.636 60.054,4.138 60.18,3.64 C60.366,3.14 63.79,3.452 63.85,3.64 C63.976,3.826 62.296,6.88 62.358,7.066 C62.358,7.129 62.42,7.129 62.482,7.129 C62.358,7.129 62.296,7.129 62.296,7.192 C62.42,7.379 62.793,7.067 62.98,7.192 C63.79,7.752 61.922,8.002 62.98,8.312 C63.353,8.438 62.73,8.999 62.67,9.372 C62.67,9.497 62.544,11.304 63.602,10.245 C63.789,10.057 63.602,9.683 63.664,9.435 C63.726,9.06 63.914,8.811 64.038,8.5 C64.162,8.126 63.478,8.562 63.664,8 C64.038,6.942 65.034,2.83 65.718,2.455 C65.718,2.455 66.154,4.075 66.154,4.2 C66.028,4.574 65.406,4.76 65.469,5.197 C65.531,5.447 66.091,4.761 66.279,5.01 C66.527,5.322 66.029,6.132 66.402,6.32 C66.838,6.63 67.46,6.32 67.832,6.007 C68.082,5.757 67.274,5.571 67.274,5.259 C67.274,4.823 67.087,4.262 67.336,3.889 C67.522,3.452 68.144,3.389 68.456,3.016 C68.58,2.892 68.144,3.016 68.02,2.956 C67.585,2.768 66.838,2.643 66.838,2.146 C66.775,1.771 67.771,2.206 67.958,1.896 C68.208,1.46 67.648,0.961 67.771,0.526 C67.833,0.213 68.269,1.148 68.581,0.961 C69.078,0.774 69.451,0.338 70.447,1.023 C71.194,1.523 69.14,4.201 68.953,4.575 C68.89,4.698 69.326,4.387 69.388,4.262 C69.762,3.952 69.948,3.265 70.384,3.142 C70.694,3.079 70.509,3.702 70.447,4.012 C70.26,4.449 69.514,4.886 69.763,5.322 C70.01,5.696 70.633,4.574 71.006,4.822 C71.068,4.886 71.131,4.948 71.131,5.01 C71.255,4.948 71.504,5.135 71.628,5.072 C72.002,4.698 71.068,4.387 71.068,4.387 C71.006,4.137 70.943,2.019 71.193,1.645 C72.313,0.212 73.059,2.955 73.121,2.955 C77.167,3.141 71.068,0.525 75.051,1.77 C77.105,2.393 75.611,2.455 75.301,3.265 C75.237,3.39 75.611,3.328 75.735,3.265 C76.109,3.141 76.42,2.829 76.793,2.767 C76.918,2.767 76.793,3.017 76.856,3.079 C77.042,3.203 77.291,3.203 77.478,3.265 C77.54,3.328 77.602,3.452 77.726,3.515 C78.036,3.765 78.536,3.951 78.784,4.325 C78.848,4.449 78.536,4.449 78.412,4.575 C78.102,4.761 77.665,4.823 77.479,5.135 C77.106,5.633 77.416,6.505 76.919,6.755 C75.549,7.44 73.869,6.505 72.749,7.752 C72.563,7.876 73.122,7.565 73.372,7.565 C73.682,7.565 73.932,7.627 74.242,7.689 C74.305,7.752 74.368,7.814 74.43,7.814 C74.927,7.874 75.612,7.501 75.923,7.937 C76.171,8.249 75.175,8.685 75.363,9.059 C75.548,9.371 75.798,8.187 76.171,8.249 C76.606,8.374 76.481,9.371 76.295,9.994 C76.358,9.869 76.42,9.807 76.482,9.744 C76.917,9.558 77.539,9.869 78.036,9.682 C78.161,9.62 77.663,9.432 77.663,9.246 C77.603,8.81 77.663,8.436 77.788,8.062 C77.851,7.937 77.726,8.436 77.913,8.436 C78.411,8.561 78.909,8.436 79.407,8.374 L79.593,8.374 L79.6,8.37 Z M6.55,77.468 C6.8,77.345 7.11,77.468 7.42,77.532 C7.42,77.469 7.42,77.407 7.483,77.407 C7.483,77.344 7.546,77.467 7.546,77.531 C7.483,77.594 7.421,77.594 7.359,77.656 L7.419,77.593 C7.172,77.717 6.922,78.028 6.673,78.028 C6.487,78.028 6.425,77.593 6.549,77.468 L6.55,77.468 Z M37.473,24.57 C37.597,24.695 37.223,24.82 37.285,25.006 C37.411,25.691 39.028,25.629 36.788,26.564 C36.538,26.626 36.29,26.314 35.978,26.189 C37.598,24.882 36.664,24.696 36.664,25.069 C36.726,25.817 35.917,25.319 35.544,25.569 C35.232,25.692 34.984,26.751 34.921,26.377 C34.735,25.317 36.354,23.511 37.474,24.571 L37.473,24.57 Z" id="NO"></path>
    </g>
</svg>