<?xml version="1.0" encoding="UTF-8" standalone="no"?>
<svg width="55px" height="46px" viewBox="0 0 55 46" version="1.1" xmlns="http://www.w3.org/2000/svg" xmlns:xlink="http://www.w3.org/1999/xlink">
    <!-- Generator: Sketch 3.8.3 (29802) - http://www.bohemiancoding.com/sketch -->
    <title>PL</title>
    <desc>Created with Sketch.</desc>
    <defs></defs>
    <g id="Page-1" stroke="none" stroke-width="1" fill="none" fill-rule="evenodd">
        <path d="M6.37,34.305 C8.05,34.055 6.06,32.685 7.802,32.997 C8.922,33.121 7.989,33.619 8.672,34.117 C9.669,34.927 10.478,34.367 11.287,34.865 C11.537,35.052 11.473,35.365 11.597,35.55 C11.722,35.613 11.785,35.426 11.847,35.426 C12.034,35.363 12.221,35.238 12.283,35.363 C12.469,35.549 12.283,35.861 12.469,36.048 C12.469,36.048 13.837,35.3 14.149,35.488 C15.829,36.298 13.464,36.608 13.589,37.418 L15.019,38.291 C15.207,38.541 15.579,40.161 16.513,39.786 C16.763,39.662 16.7,39.226 16.887,39.039 C17.197,38.789 17.82,38.914 18.007,38.541 C18.069,38.416 16.7,37.045 17.073,36.983 C18.007,36.858 19.063,37.793 19.623,37.979 C19.873,38.041 20.185,37.917 20.433,37.917 C20.683,37.917 20.993,38.042 21.243,37.917 C21.367,37.857 21.303,37.607 21.367,37.482 C21.429,37.42 21.554,37.42 21.554,37.482 C22.301,38.978 21.804,38.042 20.994,38.79 C20.744,38.978 21.616,39.04 21.864,39.226 C22.051,39.413 21.989,39.724 22.176,39.911 C22.301,40.036 22.486,40.098 22.611,40.098 C24.416,39.911 22.363,39.786 23.421,39.351 C23.545,39.288 23.545,39.538 23.669,39.601 C23.919,39.786 24.603,39.973 24.914,40.036 C25.287,40.16 25.847,39.973 26.159,40.222 C26.221,40.285 26.779,41.782 26.843,41.842 C27.093,42.03 27.59,41.842 27.838,42.092 C28.086,42.402 27.9,42.964 28.148,43.276 C28.273,43.463 28.708,43.151 28.895,43.338 C29.082,43.525 28.771,43.961 28.957,44.148 C29.952,44.958 30.761,41.781 31.383,42.218 C31.757,42.466 31.757,43.028 32.068,43.338 C32.131,43.4 32.38,43.214 32.443,43.276 C32.503,43.4 32.256,43.65 32.38,43.712 C32.69,43.774 33.002,43.462 33.25,43.587 C33.687,43.775 33.313,44.959 33.313,45.083 C33.313,45.396 33.873,44.897 34.185,44.833 C34.435,44.773 34.683,45.27 34.931,45.146 C34.994,45.082 35.741,43.151 36.611,42.964 C36.861,42.902 37.111,43.151 37.358,43.151 C37.608,43.089 37.731,42.715 37.98,42.777 C38.478,42.84 38.79,43.527 39.287,43.527 C39.66,43.527 39.971,43.152 40.157,42.84 C40.219,42.716 39.847,42.716 39.847,42.59 C40.033,41.72 40.407,42.59 40.655,42.467 C40.842,42.404 40.842,42.031 41.029,42.031 C41.962,41.781 44.079,41.844 44.886,42.467 C45.072,42.654 45.01,43.09 45.259,43.215 C45.633,43.465 46.069,43.465 46.504,43.588 C47.312,43.838 48.059,43.901 48.806,44.025 C49.116,44.025 49.428,43.901 49.739,43.963 C49.864,44.025 50.113,44.337 50.049,44.213 C49.304,41.845 49.926,44.337 48.869,43.029 C48.619,42.779 49.117,42.344 49.055,42.033 C48.868,41.409 48.245,40.911 48.121,40.225 C47.934,39.727 51.731,32.687 52.227,32.251 C53.347,31.316 54.032,32.687 54.219,30.443 C54.219,29.945 52.974,28.823 52.912,28.761 C52.602,28.138 54.032,28.201 53.845,28.013 C52.85,27.265 51.045,26.083 50.485,24.898 C50.361,24.585 50.61,24.148 50.485,23.776 C50.298,23.339 49.738,23.026 49.552,22.592 C49.054,21.47 50.362,19.352 49.116,18.355 C48.619,17.981 47.996,17.795 47.436,17.732 C47.312,17.67 47.188,17.982 47.064,17.919 C45.259,17.234 49.179,13.931 49.614,13.495 C49.677,13.433 49.801,13.309 49.801,13.185 C49.615,9.757 46.877,6.828 45.757,3.651 C45.385,3.401 45.757,2.716 45.385,2.218 C44.265,0.598 44.949,1.968 43.207,1.22 C42.584,0.97 43.02,0.16 42.087,0.472 C41.9,0.534 41.9,0.846 41.713,0.972 C38.851,2.652 30.45,2.964 26.903,2.466 C25.783,3.65 24.041,4.336 22.609,3.774 C21.365,3.276 21.614,2.092 21.239,1.344 C21.116,1.158 20.679,0.659 20.929,0.721 C21.116,0.721 21.302,0.721 21.427,0.783 C21.117,0.597 20.742,0.41 20.369,0.347 C18.129,-0.027 15.639,1.967 13.959,2.963 C13.399,3.275 12.716,3.15 12.279,3.523 C11.221,4.458 10.973,5.953 10.662,6.017 C8.359,6.577 6.182,7.574 4.002,8.447 C3.444,8.697 3.07,9.381 2.51,9.507 C2.2,9.631 1.887,9.319 1.577,9.444 C1.017,9.754 2.323,11.126 1.763,11.25 C1.887,12.247 2.883,14.18 3.008,14.802 C3.196,16.297 1.204,17.294 1.64,18.478 C1.888,19.228 4.253,19.538 4.253,20.473 C4.253,21.408 3.507,21.72 4.066,22.403 C4.253,22.716 4.689,22.841 4.813,23.215 C5,23.525 4.751,23.962 4.813,24.275 C4.876,24.461 5.125,24.398 5.187,24.523 C5.497,24.96 4.75,26.018 4.564,26.393 C4.19,26.953 5.124,27.263 5.31,27.825 C5.434,28.137 5,28.511 5.186,28.76 C5.433,29.134 5.994,29.01 6.243,29.258 C6.99,29.944 6.865,33.122 6.367,34.305 L6.37,34.305 Z M0.148,10.815 L0.21,10.815 L0.148,10.815 L0.148,10.815 Z M0.21,10.815 C0.273,10.878 0.335,10.878 0.397,10.94 C0.335,10.878 0.273,10.878 0.21,10.815 L0.21,10.815 Z M0.52,10.94 L0.52,11.002 L0.646,11.002 L0.583,11.002 L0.521,10.94 L0.52,10.94 Z M0.71,11.002 C0.71,11.002 0.71,11.065 0.77,11.065 C0.71,11.065 0.71,11.002 0.71,11.002 L0.71,11.002 Z M0.77,11.065 L0.833,11.065 C0.895,11.065 0.895,11.065 0.895,11.127 C0.895,11.064 0.895,11.064 0.833,11.064 L0.771,11.064 L0.77,11.065 Z M0.895,11.127 L0.958,11.127 L0.895,11.127 L0.895,11.127 Z M1.517,11.25 L1.58,11.25 L1.517,11.25 L1.517,11.25 Z M22.239,1.22 C22.487,1.344 22.736,1.468 22.923,1.717 C22.985,1.78 22.985,2.027 22.86,1.967 C22.426,1.655 22.302,1.407 22.24,1.219 L22.239,1.22 Z" id="PL"></path>
    </g>
</svg>