<?xml version="1.0" encoding="UTF-8" standalone="no"?>
<svg width="26px" height="43px" viewBox="0 0 26 43" version="1.1" xmlns="http://www.w3.org/2000/svg" xmlns:xlink="http://www.w3.org/1999/xlink">
    <!-- Generator: Sketch 3.8.3 (29802) - http://www.bohemiancoding.com/sketch -->
    <title>PT</title>
    <desc>Created with Sketch.</desc>
    <defs></defs>
    <g id="Page-1" stroke="none" stroke-width="1" fill="none" fill-rule="evenodd">
        <path d="M10.48,41.126 C10.604,38.509 9.982,38.073 12.036,36.266 C12.409,35.954 12.346,35.269 12.72,35.083 C12.844,35.02 15.893,34.958 15.146,33.711 C14.96,33.401 14.338,33.899 14.026,33.711 C13.716,33.461 13.778,32.964 13.653,32.591 C13.529,32.216 13.529,31.781 13.28,31.469 C13.218,31.345 12.844,31.469 12.844,31.345 C13.031,30.909 13.467,30.597 13.654,30.161 C14.026,29.413 12.968,29.974 14.026,29.101 C14.96,28.354 16.206,28.478 16.329,26.859 C16.329,26.734 15.145,25.924 14.897,25.426 C14.524,24.616 14.959,23.306 14.959,23.183 C14.897,23.12 13.901,21.188 13.901,21.126 C13.839,21.002 14.087,21.188 14.213,21.188 C14.773,21.375 15.145,21.438 15.706,21.561 C17.136,21.936 17.448,22.061 18.196,20.627 C19.066,18.881 18.133,19.505 17.946,18.197 C17.759,17.012 19.688,17.573 19.751,16.7 C19.813,16.077 19.129,16.638 19.501,15.89 C19.564,15.765 19.813,15.765 19.875,15.58 C20.061,15.143 20.061,14.707 20.125,14.27 C20.185,13.772 20.56,13.273 20.497,12.775 L19.937,11.28 C20.124,11.093 20.56,11.467 20.807,11.342 L22.115,9.972 C23.049,9.472 24.791,9.41 25.289,8.039 C25.662,6.793 24.044,6.919 23.609,6.856 C23.299,6.792 23.859,4.426 23.609,4.3 C22.426,3.677 22.177,4.238 20.746,3.677 C20.496,3.553 20.56,2.93 19.999,3.304 C19.875,3.429 20.124,3.74 19.999,3.864 C19.129,4.612 18.195,3.74 17.946,3.678 C17.696,3.554 17.386,3.866 17.199,3.741 C17.075,3.679 17.572,3.554 17.449,3.431 C17.386,3.181 17.075,3.118 16.826,3.118 C16.452,3.056 16.016,3.181 15.644,3.118 C15.582,3.056 15.706,2.931 15.706,2.808 C15.706,2.745 15.768,2.495 15.706,2.558 C15.394,2.62 14.648,3.492 14.086,3.118 C12.594,2.058 15.519,1.81 14.772,1.062 C14.648,0.937 14.399,1.062 14.275,0.937 C14.213,0.812 14.525,0.563 14.399,0.501 C13.279,0.251 11.723,0.625 10.789,1.123 C10.665,1.746 9.109,2.058 9.483,2.619 C9.733,2.929 10.478,2.806 10.603,3.179 C10.728,3.491 9.919,3.117 9.733,3.366 C9.359,3.926 9.421,6.606 9.546,7.291 C9.546,7.478 9.856,7.541 9.856,7.791 C9.794,8.849 9.359,9.471 8.923,10.344 C8.736,10.718 7.927,11.528 8.363,11.466 C8.799,11.341 8.799,10.406 9.233,10.282 C9.546,10.219 9.733,10.842 9.608,11.092 C9.295,11.528 8.424,11.342 8.113,11.839 C7.677,12.587 7.429,13.459 6.93,14.207 C6.744,14.519 6.37,14.707 6.433,15.017 C6.433,15.329 6.993,15.454 7.118,15.765 C7.18,15.891 6.806,15.392 6.62,15.515 C6.308,15.703 6.184,16.202 5.935,16.575 C5.313,17.573 4.629,18.819 3.882,19.691 C3.695,19.941 3.322,20.003 3.072,20.314 C3.01,20.376 3.382,20.564 3.259,20.626 C2.762,20.75 2.141,20.313 1.829,20.626 C1.519,20.936 2.079,21.436 1.953,21.809 C1.767,22.432 -0.1,25.049 0.087,25.672 C0.211,26.108 0.522,26.482 0.771,26.918 C1.394,27.978 1.145,28.475 1.145,28.475 C1.642,28.599 2.203,28.537 2.7,28.475 C2.95,28.475 3.074,28.163 3.323,28.225 C3.573,28.225 3.697,28.599 4.008,28.662 C4.195,28.724 4.195,27.852 4.318,28.039 C4.505,28.349 4.195,28.786 4.318,29.036 C4.505,29.286 5.378,29.41 5.128,29.536 C3.448,30.346 4.444,28.226 3.074,28.413 C2.701,28.475 3.51,28.975 3.634,29.286 C3.697,29.659 3.634,30.096 3.574,30.532 C3.447,31.342 2.39,32.089 2.39,32.712 C2.39,32.962 2.763,33.149 2.763,33.398 C2.826,33.834 2.143,34.644 2.577,34.768 C2.701,34.768 3.137,34.582 3.012,34.706 C2.888,34.893 2.515,34.768 2.39,34.956 C2.08,35.579 2.266,36.326 1.954,36.949 C1.704,37.449 0.212,39.504 0.337,40.189 C0.399,40.439 0.834,39.941 1.083,39.941 C1.457,39.878 1.83,40.003 2.203,39.941 C2.39,39.941 2.577,39.753 2.763,39.815 C3.759,40.065 6.995,42.182 7.431,42.12 C7.618,42.12 9.548,41.186 9.671,41.123 L10.481,41.123" id="PT"></path>
    </g>
</svg>