<?xml version="1.0" encoding="UTF-8" standalone="no"?>
<svg width="55px" height="41px" viewBox="0 0 55 41" version="1.1" xmlns="http://www.w3.org/2000/svg" xmlns:xlink="http://www.w3.org/1999/xlink">
    <!-- Generator: Sketch 3.8.3 (29802) - http://www.bohemiancoding.com/sketch -->
    <title>RO</title>
    <desc>Created with Sketch.</desc>
    <defs></defs>
    <g id="Page-1" stroke="none" stroke-width="1" fill="none" fill-rule="evenodd">
        <path d="M51.253,34.23 C50.257,34.417 48.64,34.977 47.706,34.168 C47.396,33.918 47.333,33.046 46.959,33.233 C46.772,33.295 46.649,33.543 46.461,33.606 C44.967,34.416 46.958,33.17 45.341,33.233 C44.843,33.233 44.469,33.793 43.971,33.855 C42.914,33.98 43.785,32.485 40.985,33.545 C39.802,34.043 37.625,35.039 36.691,35.975 C35.633,37.035 35.447,38.342 34.078,39.215 C32.832,39.962 31.898,39.463 30.654,39.401 C29.658,39.339 28.601,39.277 27.667,39.588 C27.293,39.712 27.167,40.211 26.795,40.336 C25.053,40.959 22.999,39.962 21.257,40.149 C19.887,40.275 19.453,41.396 17.959,40.773 C16.901,40.337 19.266,38.966 18.706,38.716 C17.709,38.28 14.722,37.658 14.909,36.036 C14.971,35.476 17.025,35.416 16.402,35.103 C9.806,31.801 15.717,34.791 13.042,36.349 C12.606,36.661 12.358,35.539 11.922,35.352 C11.612,35.165 11.175,35.352 10.864,35.352 C10.491,35.352 10.117,35.539 9.744,35.415 C9.557,35.29 9.682,34.978 9.557,34.729 C9.247,34.106 6.571,35.103 8.065,34.044 C8.438,33.794 9.371,33.544 9.06,33.296 C8.75,33.109 8.127,33.296 8.002,32.923 C7.94,32.548 9.247,31.863 8.376,31.363 C7.193,30.679 4.828,30.99 4.019,29.558 C3.832,29.245 3.832,27.748 3.832,27.376 L3.832,27.251 C3.645,27.313 3.522,27.687 3.397,27.563 C2.962,27.313 2.9,26.628 2.527,26.316 C2.153,26.066 1.593,26.129 1.219,25.818 C0.846,25.631 0.659,25.195 0.411,24.884 C0.535,24.821 0.597,24.572 0.721,24.51 C1.095,24.385 2.961,24.198 3.086,23.762 C3.21,23.512 2.276,23.202 3.396,23.014 C3.832,22.951 4.268,23.388 4.641,23.264 C5.824,22.827 5.451,20.584 5.761,19.899 C5.885,19.713 6.197,19.713 6.321,19.526 L7.006,17.346 C7.13,17.033 7.316,16.784 7.316,16.473 C7.316,16.348 7.006,16.348 7.006,16.223 C7.068,15.663 7.753,13.918 8.064,13.419 C8.188,13.295 8.499,13.419 8.499,13.233 C8.811,12.049 8.375,11.177 9.744,9.868 C10.179,9.368 10.677,9.68 11.362,9.431 C12.047,9.121 12.109,8.185 12.606,7.687 C12.793,7.81 13.166,7.561 13.602,6.377 C13.664,6.252 13.664,6.065 13.789,6.065 C13.975,6.065 15.531,6.813 15.717,6.813 C15.843,6.813 15.905,6.503 16.03,6.439 C16.84,6.127 18.892,6.939 19.888,6.689 C20.448,6.502 20.822,6.003 21.382,5.941 C22.378,5.878 23.062,7.187 23.747,7.373 C24.68,7.686 24.99,5.941 25.239,5.691 C26.359,4.508 29.222,4.631 30.093,3.761 C31.773,2.141 29.347,3.511 30.529,1.953 C30.839,1.579 31.339,1.268 31.836,1.143 L31.896,0.956 L32.146,0.396 C32.083,0.519 32.083,0.768 32.083,0.893 C32.955,0.457 33.515,0.831 34.199,1.391 C35.506,2.326 35.755,3.883 36.813,4.943 C38.555,6.625 43.285,9.616 43.843,12.046 C44.28,13.604 43.72,15.348 44.093,16.906 C44.218,17.592 45.338,19.149 45.276,19.836 C45.276,20.084 44.778,20.146 44.84,20.396 C44.903,20.644 45.276,20.52 45.462,20.644 C45.649,20.769 45.649,21.204 45.898,21.204 C46.023,21.268 46.208,21.144 46.333,21.268 C46.52,21.454 46.458,21.828 46.707,22.015 C46.957,22.265 49.633,22.388 49.57,22.077 C49.57,22.014 48.7,21.827 49.32,21.453 C49.695,21.267 50.13,21.329 50.504,21.143 C51.126,20.831 51.374,19.958 52.059,19.709 C53.429,19.209 54.113,19.709 54.424,20.893 C54.361,20.955 54.174,20.893 54.174,20.955 C54.174,21.142 54.299,21.267 54.424,21.329 C54.549,21.391 54.674,21.142 54.734,21.267 C54.86,21.517 54.922,23.634 54.922,23.884 C54.86,24.692 52.992,24.754 52.495,25.128 C52.185,25.378 52.185,26.25 51.81,26.188 C51.748,26.125 52.246,24.068 51.375,23.571 C51.065,23.447 50.691,23.945 50.505,24.256 C50.255,24.692 51.375,25.066 51.313,25.566 C51.313,26.063 50.38,26.376 50.628,26.748 C50.878,27.123 51.376,26.188 51.811,26.188 C51.936,26.125 51.749,26.498 51.624,26.624 C51.562,26.686 51.5,26.748 51.376,26.811 C51.438,26.748 51.5,26.748 51.562,26.811 C51.936,27.123 50.442,29.553 50.442,29.615 C50.505,30.052 51.065,32.233 51.376,34.227 L51.251,34.227" id="RO"></path>
    </g>
</svg>