<?xml version="1.0" encoding="UTF-8" standalone="no"?>
<svg width="44px" height="115px" viewBox="0 0 44 115" version="1.1" xmlns="http://www.w3.org/2000/svg" xmlns:xlink="http://www.w3.org/1999/xlink">
    <!-- Generator: Sketch 3.8.3 (29802) - http://www.bohemiancoding.com/sketch -->
    <title>SE</title>
    <desc>Created with Sketch.</desc>
    <defs></defs>
    <g id="Page-1" stroke="none" stroke-width="1" fill="none" fill-rule="evenodd">
        <path d="M7.62,114.79 C7.744,114.416 7.494,114.23 7.12,114.042 L6.872,113.419 C7.369,113.732 8.179,113.919 7.93,114.479 C7.93,114.604 7.806,114.729 7.62,114.791 L7.62,114.79 Z M13.22,81.58 C13.282,83.947 13.282,85.318 11.415,86.875 C10.979,87.25 10.73,87.748 10.232,87.935 C9.796,87.998 9.362,87.499 8.926,87.561 C8.241,87.686 7.992,90.241 6.686,89.431 C6.312,89.243 7.369,88.184 7.369,87.374 C7.369,86.937 5.939,84.196 7.743,83.947 C8.178,83.884 8.613,84.507 8.987,84.257 L9.297,81.952 C10.294,80.644 12.097,81.142 13.217,81.579 L13.22,81.58 Z M17.14,85.318 C17.264,86.502 17.7,87.438 16.766,88.371 C16.58,88.558 16.331,88.683 16.206,88.931 C15.896,89.617 15.958,90.428 15.709,91.175 L14.899,92.982 C13.281,92.422 15.709,86.128 17.139,85.318 L17.14,85.318 Z M7.868,111.924 C8.738,110.927 7.744,110.989 7.681,109.744 C7.681,109.369 8.055,109.119 8.118,108.746 C8.118,108.621 7.868,108.496 7.808,108.372 C6.998,108.247 5.94,107.998 5.255,108.497 C5.94,107.623 7.122,107.873 8.055,108.059 C7.557,107.249 7.245,106.626 7.37,106.502 C7.62,105.942 8.49,107.187 9.05,106.938 C9.548,106.752 7.806,106.004 8.054,105.506 C8.241,105.07 9.112,105.568 9.299,105.196 C9.609,104.758 9.422,104.136 9.173,103.699 C9.049,103.451 8.676,103.637 8.427,103.575 C7.929,103.388 8.053,102.515 7.68,102.08 C7.432,101.77 6.934,101.77 6.685,101.458 C6.561,101.208 6.747,100.898 6.623,100.648 C6.499,100.336 5.753,99.338 5.753,99.278 C5.753,99.152 6.001,99.09 5.939,99.028 C5.875,98.903 5.626,98.966 5.502,98.903 C5.192,98.653 4.942,98.28 4.755,97.969 C4.445,97.407 4.817,95.911 4.382,95.226 C4.258,95.039 3.822,95.289 3.635,95.101 C3.448,94.851 3.511,94.416 3.511,94.041 C3.386,93.108 5.128,90.927 4.321,89.931 C3.201,88.497 3.821,92.361 1.458,89.991 C1.083,89.618 1.705,88.497 1.705,88.061 C1.643,87.313 0.895,84.509 0.895,84.509 C1.145,84.197 1.768,84.759 2.141,84.696 C2.327,85.319 2.576,85.942 3.136,85.132 C4.506,83.202 2.763,80.709 3.136,79.586 C3.261,79.15 3.883,79.088 4.07,78.714 C4.194,78.464 4.07,78.154 3.946,77.904 C3.946,77.717 3.634,77.654 3.696,77.531 C3.821,77.094 5.812,76.969 6.372,75.536 L6.31,73.73 C6.994,70.18 5.377,70.864 5.065,68.185 C5.003,67.562 6.248,67.875 6.745,67.437 L7.43,64.945 C7.18,63.388 4.816,63.512 4.443,62.079 C4.133,60.769 5.127,59.025 5.003,57.654 C4.878,56.72 3.883,55.91 3.821,54.974 C3.759,54.601 4.071,54.164 4.071,53.791 C4.008,53.354 3.759,52.981 3.821,52.545 C3.821,52.171 4.257,51.922 4.257,51.548 C4.257,44.008 3.322,57.093 3.322,49.553 C3.322,48.868 4.192,48.431 4.256,47.746 C4.316,47.496 3.944,47.248 4.006,46.936 C4.192,45.939 5.561,43.82 6.37,43.322 C8.922,41.702 10.602,44.632 11.038,41.702 C11.473,38.649 8.86,39.272 9.233,38.152 C9.793,36.406 10.663,34.662 11.223,32.98 C11.286,32.73 11.597,32.668 11.66,32.418 L11.473,30.113 C11.473,30.051 11.783,28.183 11.783,28.183 L11.163,25.753 C11.411,25.19 12.407,25.753 12.903,25.503 L14.273,24.318 C14.459,23.758 13.651,23.258 13.775,22.698 C14.148,21.578 16.201,19.148 16.575,18.088 C17.259,16.405 15.641,16.281 15.392,14.908 C15.205,13.788 15.89,14.473 16.262,14.038 C16.762,13.415 16.762,12.541 16.885,11.858 C16.948,11.358 18.13,9.178 18.505,9.178 L20.495,10.048 C21.739,9.551 20.185,6 20.557,5.501 C21.427,4.381 25.722,6.498 26.282,6.125 C28.336,4.815 26.157,4.94 26.095,4.38 C25.909,3.632 26.967,3.07 26.967,2.323 C26.967,1.887 26.842,1.453 26.655,1.077 C26.468,0.765 25.66,0.577 25.845,0.267 C26.095,-0.17 26.78,0.141 27.278,0.017 L27.402,0.017 C27.589,0.141 27.9,0.141 28.149,0.327 C28.895,0.827 27.899,0.765 28.399,1.077 C29.456,1.887 31.259,3.382 32.379,3.88 C33.687,4.44 34.745,3.943 35.927,5.126 C36.177,5.312 35.989,5.873 36.237,5.998 C36.425,6.06 36.55,5.748 36.674,5.811 C37.171,5.998 37.358,6.621 37.731,6.995 C37.855,7.118 38.229,7.118 38.166,7.305 C37.482,8.615 38.229,8.675 38.416,10.171 C38.476,10.421 38.229,10.671 38.229,10.921 C38.104,11.667 39.039,11.106 39.349,11.356 C40.159,11.979 38.851,12.852 39.224,13.476 C39.598,14.346 41.091,15.156 41.216,16.154 C41.278,16.901 40.718,19.269 40.78,19.581 C41.34,21.575 42.71,22.261 43.455,23.881 C43.27,24.129 43.083,24.441 42.835,24.565 C42.585,24.689 42.399,24.065 42.088,24.128 C41.963,24.19 41.901,24.502 41.776,24.502 C41.28,24.564 40.72,24.128 40.284,24.377 C39.974,24.564 40.471,25.313 40.16,25.499 C38.853,26.309 38.417,24.814 37.484,24.627 C37.36,24.627 37.608,25.001 37.608,25.187 C37.608,25.313 37.671,25.437 37.608,25.562 C37.546,25.998 37.173,26.372 37.298,26.745 C37.298,26.807 37.36,26.87 37.422,26.932 C36.986,26.807 36.552,26.745 36.177,26.558 C35.991,26.496 35.805,25.998 35.742,26.184 C35.618,26.869 37.299,26.619 37.422,27.304 C37.547,27.679 36.676,27.43 36.302,27.617 C36.24,27.679 36.489,27.679 36.614,27.679 C36.676,27.742 37.361,28.179 36.987,28.489 C36.925,28.551 36.862,28.179 36.737,28.239 C36.677,28.302 36.925,28.551 36.801,28.614 C36.301,28.924 34.871,28.614 34.621,29.548 C34.621,29.735 34.996,29.548 35.121,29.611 C35.556,29.921 35.929,30.359 36.116,30.857 C36.488,31.977 34.621,32.477 34.559,33.723 C34.497,35.217 36.551,35.343 37.049,36.463 C37.109,36.525 35.804,38.146 35.555,38.706 C35.181,39.454 35.055,42.508 34.309,42.632 C34.185,42.632 34.185,42.195 34.059,42.257 C33.625,42.32 34.247,43.317 33.811,43.503 C33.625,43.628 33.687,42.757 33.501,42.881 C33.438,42.881 33.438,42.943 33.438,43.006 L33.376,43.006 C33.252,43.192 33.501,43.566 33.314,43.691 C33.128,43.941 32.381,43.815 32.194,44.189 C32.008,44.439 32.07,44.939 31.759,45.062 C31.385,45.186 30.826,44.502 30.577,44.812 C30.329,45.186 31.262,45.684 31.075,46.12 C30.889,46.432 30.453,45.497 30.205,45.684 C29.893,45.934 30.267,46.432 30.205,46.804 C30.143,47.242 30.08,47.864 29.645,48.114 C29.271,48.3 28.835,47.678 28.4,47.74 C28.15,47.74 28.96,47.927 29.022,48.176 C29.084,48.3 28.772,48.363 28.648,48.363 C28.525,48.363 28.836,48.053 28.712,47.928 C28.587,47.866 28.339,47.866 28.276,47.99 C28.214,48.177 28.649,48.364 28.526,48.55 C28.401,48.676 28.026,48.3 27.841,48.49 C27.717,48.613 28.151,48.676 28.214,48.863 C28.214,48.925 27.964,48.8 27.904,48.863 C27.779,49.113 27.904,49.548 27.717,49.735 C27.467,49.985 26.533,49.798 26.782,49.985 C27.155,50.295 28.275,49.798 28.152,50.235 C27.964,50.732 27.404,51.043 27.092,51.48 C26.969,51.604 26.844,51.854 26.657,51.916 C26.47,51.978 26.097,51.916 26.097,51.729 C26.159,51.542 26.595,51.666 26.657,51.479 C26.844,51.106 26.159,51.604 25.911,51.666 C25.973,51.854 26.097,52.041 26.221,52.228 C26.408,52.664 26.719,53.848 26.221,53.723 C26.097,53.723 26.159,53.099 26.035,53.223 C25.848,53.536 26.097,54.033 25.848,54.346 C25.788,54.533 25.476,54.284 25.29,54.284 C24.854,54.347 24.293,54.284 23.92,54.534 C22.925,55.281 24.605,55.594 25.352,56.464 C25.414,56.528 25.102,56.591 25.04,56.528 C25.04,56.465 24.854,56.465 24.854,56.528 C24.792,57.026 24.916,57.525 24.854,58.023 C24.792,58.333 24.544,58.583 24.48,58.893 C24.418,59.269 24.418,59.643 24.543,60.016 C24.543,60.078 24.729,59.891 24.793,59.954 C25.04,60.39 25.725,61.014 25.353,61.388 C24.978,61.762 24.418,60.703 23.92,60.888 C22.49,61.388 24.916,62.696 24.73,64.068 C24.73,64.316 24.107,63.943 24.107,64.128 C24.043,64.441 24.542,64.503 24.604,64.752 C24.666,64.877 24.354,64.815 24.354,64.939 C24.354,65.189 24.354,65.499 24.479,65.749 C24.542,65.999 24.479,66.309 24.604,66.559 C24.666,66.684 24.914,66.435 24.914,66.559 C24.977,66.622 24.666,66.622 24.604,66.684 C24.542,66.808 24.542,66.996 24.604,67.12 C24.728,67.43 25.164,67.618 25.226,67.993 C25.288,68.365 24.914,68.739 24.976,69.113 C24.976,69.237 25.163,69.051 25.288,69.113 C25.474,69.175 25.35,69.611 25.538,69.611 C26.22,69.611 27.528,69.237 28.15,69.611 C28.4,69.736 28.15,70.171 28.274,70.421 C28.461,70.795 28.834,71.045 29.208,71.294 C29.27,71.357 29.518,71.108 29.581,71.234 C29.705,71.357 29.395,71.606 29.519,71.669 C29.581,71.669 32.755,70.422 31.074,72.291 C30.826,72.603 30.266,71.731 29.892,71.855 C29.582,71.981 30.328,72.23 30.515,72.479 C30.762,72.853 30.825,73.415 31.198,73.664 C31.384,73.724 31.508,73.039 31.758,73.164 C32.068,73.288 31.883,73.85 32.131,74.036 C33.065,75.096 33.749,74.41 33.561,76.093 C33.501,76.713 32.941,76.03 32.878,76.03 C32.568,76.092 32.505,76.465 32.256,76.652 C31.696,77.274 32.256,77.835 30.516,78.645 C30.452,78.707 30.826,79.268 30.826,79.33 C30.701,79.517 30.39,79.206 30.142,79.268 C29.705,79.33 29.27,79.704 28.772,79.704 C28.274,79.704 28.71,78.77 28.71,78.334 C28.772,77.897 28.4,77.96 28.212,77.71 C28.212,77.648 28.274,77.524 28.212,77.398 C27.962,77.025 27.902,76.464 27.465,76.278 C27.153,76.153 26.717,76.464 26.531,76.776 C26.468,76.962 27.029,76.713 27.091,76.838 C27.341,77.274 27.153,77.835 27.401,78.208 C27.589,78.521 28.521,78.458 28.336,78.77 C27.59,80.203 25.786,78.022 25.412,78.147 C24.914,78.271 24.665,78.957 24.105,78.957 C23.731,78.957 23.668,78.147 23.295,78.209 C22.985,78.271 23.295,78.894 23.109,79.206 C23.046,79.33 22.859,79.081 22.673,79.081 C22.175,79.141 21.615,79.141 21.179,79.391 C21.055,79.454 21.366,79.641 21.489,79.765 C21.989,80.077 22.609,79.578 22.984,79.455 C23.604,79.392 24.227,80.202 24.788,80.015 C25.036,79.89 24.288,79.142 24.601,79.205 C24.974,79.205 25.098,79.89 25.471,80.077 C25.845,80.202 26.405,79.765 26.716,80.077 C26.903,80.264 26.218,80.637 26.343,80.95 C26.466,81.136 26.965,81.01 27.151,80.824 C27.276,80.7 26.778,80.387 26.901,80.324 C27.214,80.201 27.461,80.574 27.711,80.637 C28.209,80.762 28.644,81.073 29.081,80.887 C29.391,80.762 29.141,80.077 29.391,79.889 C29.701,79.701 30.139,80.075 30.449,79.889 C30.885,79.701 30.947,78.891 31.444,78.829 C31.819,78.767 32.442,79.389 32.254,79.701 C31.944,80.138 31.197,79.701 30.699,79.888 C30.637,79.888 30.824,80.074 30.886,80.138 C31.072,80.51 31.446,80.884 31.446,81.32 C31.508,81.445 31.136,81.258 31.01,81.382 C30.575,81.632 30.077,81.882 29.828,82.317 C29.578,82.752 29.766,83.313 29.578,83.749 C29.455,83.999 29.268,82.815 28.958,82.939 C28.77,83.064 29.268,83.749 29.081,83.625 C28.459,83.375 29.331,81.257 28.335,81.381 C28.335,81.381 28.522,84.123 27.402,84.933 C27.029,85.183 26.468,84.995 26.032,85.058 C25.846,85.121 26.532,85.246 26.532,85.433 C26.78,86.18 25.846,85.683 25.722,85.807 C25.597,85.867 26.095,85.867 26.095,86.055 C26.157,86.117 25.909,85.992 25.785,86.055 C25.722,86.117 25.66,86.242 25.597,86.242 C25.473,86.242 22.299,85.806 22.547,86.366 C22.61,86.49 22.797,86.49 22.984,86.49 C23.044,86.49 23.108,86.303 23.17,86.303 C23.294,86.365 23.294,86.739 23.48,86.676 C23.605,86.676 23.42,86.303 23.605,86.303 C24.602,86.053 25.411,86.303 25.845,87.3 C25.845,87.425 25.535,87.238 25.473,87.3 C25.223,87.55 25.783,87.923 25.099,87.923 C24.602,87.923 23.979,87.238 23.669,87.611 C23.357,87.986 24.602,87.799 24.975,88.048 C25.225,88.235 25.722,89.356 25.535,89.668 C25.411,89.918 24.789,89.481 24.725,89.73 C24.665,90.04 26.033,91.724 25.597,92.284 C25.287,92.658 24.54,92.098 24.104,92.284 C23.916,92.284 24.164,92.534 24.289,92.658 C24.539,92.97 25.535,93.282 25.535,93.78 C25.535,94.216 24.725,94.465 24.789,94.964 C24.789,95.338 25.411,95.338 25.659,95.649 C25.722,95.774 25.411,95.774 25.349,95.836 C25.099,96.272 24.851,96.771 24.789,97.269 C24.664,97.643 25.536,99.014 25.473,99.139 C25.349,99.263 25.037,99.014 24.851,99.201 C24.351,99.699 25.411,100.696 25.224,101.506 C25.224,101.693 24.724,101.506 24.664,101.693 C24.539,101.88 24.974,102.129 24.85,102.316 C24.165,104.372 24.476,100.821 24.165,102.939 C23.979,104.249 23.917,106.304 22.86,107.301 C22.797,107.363 22.61,107.301 22.548,107.176 C22.548,107.051 22.735,106.926 22.673,106.802 C22.673,106.615 21.615,106.74 21.615,106.74 C21.552,106.678 21.739,106.43 21.677,106.43 C21.055,106.49 20.993,106.802 20.682,107.114 C20.122,107.55 20.495,106.614 20.308,106.678 C19.873,106.928 19.312,107.051 19.188,107.051 C18.878,107.114 18.628,106.989 18.318,106.989 C18.068,106.989 17.695,106.802 17.632,107.051 C17.508,107.426 18.192,107.799 18.006,108.111 C17.696,108.421 17.136,108.048 16.7,108.173 C16.327,108.298 16.264,108.733 16.078,109.045 C14.458,111.412 16.513,110.665 16.451,112.285 C16.389,112.783 16.078,113.219 15.705,113.593 C15.392,113.903 14.395,113.283 14.21,113.283 C12.716,113.156 13.152,114.216 11.596,114.216 C11.1,114.216 10.664,113.906 10.228,113.843 C9.98,113.843 9.606,114.03 9.358,113.905 C8.922,113.655 10.042,113.468 10.042,113.468 C10.042,113.094 9.668,112.783 9.73,112.408 C9.73,112.035 10.228,111.848 10.353,111.538 C10.353,111.538 9.233,109.978 8.363,108.608 C8.299,108.858 7.988,109.106 7.988,109.418 C8.05,110.728 9.295,110.602 7.926,111.848 C7.926,111.911 7.926,111.911 7.864,111.911 L7.868,111.924 Z M27.345,96.472 C27.469,96.284 27.719,96.346 27.905,96.284 C27.469,97.281 26.598,101.581 26.411,102.889 C26.351,103.201 26.599,105.632 25.791,105.694 C25.666,105.694 25.417,102.89 25.417,102.704 C25.542,100.896 26.787,99.961 27.097,98.279 C27.222,97.531 26.787,97.219 27.347,96.473 L27.345,96.472 Z M35.745,94.789 C35.745,95.163 35.248,95.226 34.999,95.475 C34.189,96.41 35.619,95.725 34.439,96.659 C33.504,97.344 34.064,97.344 33.566,98.279 C33.38,98.589 32.944,99.525 32.758,99.151 C32.57,98.777 33.068,98.279 33.254,97.843 C33.192,97.906 33.13,98.03 33.068,98.03 C33.006,98.03 33.006,97.844 33.006,97.782 C32.943,97.345 32.321,96.598 32.321,96.474 C32.321,96.099 32.571,95.726 32.571,95.352 C32.508,94.915 32.134,94.604 32.134,94.168 C32.072,93.856 33.938,90.865 34.188,90.741 C34.623,90.555 35.121,90.741 35.558,90.681 C36.241,91.677 35.432,91.801 34.873,93.111 C34.188,94.731 35.743,94.231 35.743,94.791 L35.745,94.789 Z M37.861,27.123 C37.987,27.186 38.049,27.248 38.173,27.31 C38.236,27.373 38.049,27.25 37.863,27.124 L37.861,27.123 Z M33.568,43.697 C33.568,43.821 33.568,43.634 33.506,43.447 C33.568,43.51 33.568,43.634 33.568,43.697 L33.568,43.697 Z M5.753,110.677 L5.691,110.491 C5.691,110.118 5.566,109.869 5.381,109.744 L5.317,109.494 C5.442,109.494 5.567,109.556 5.627,109.682 C5.691,109.932 5.753,110.304 5.753,110.678 L5.753,110.677 Z" id="SE"></path>
    </g>
</svg>