<svg class="bnpAccount-svg bnpAccount-svg--userSmall" xmlns="http://www.w3.org/2000/svg" width="83" height="84.92" viewBox="0 0 83 84.92">
  <path class="cls-1" d="M82.81,84.92H0.19l-0.08-2C0,79.07-.37,66.16,1.92,62.57S9.65,57,16,54.53c1.64-.63,3.34-1.29,5-2,4.76-2,7.26-3.17,8.47-3.77l0.05-5.47c-1-1.17-2.74-3.71-3.6-8.38A4.56,4.56,0,0,1,25,34.41a8.54,8.54,0,0,1-3.18-5.69c0-.21-0.31-5.15,2-7.17l0.28-.22a38.23,38.23,0,0,1-.42-7C24.4,7.28,31.24,0,41.5,0S58.6,7.28,59.28,14.32a38.05,38.05,0,0,1-.42,7l0.28,0.22c2.32,2,2,7,2,7.17A8.47,8.47,0,0,1,58,34.39a4.49,4.49,0,0,1-1,.53c-0.86,4.67-2.56,7.21-3.59,8.38l0.06,5.48c1.21,0.6,3.71,1.77,8.47,3.77,1.68,0.7,3.38,1.35,5,2,6.38,2.46,11.89,4.59,14.1,8.05s2,16.5,1.81,20.37ZM4.15,80.81H78.85c0.16-6.88-.23-14.46-1.23-16h0C76.13,62.46,71,60.47,65.5,58.36c-1.67-.65-3.4-1.31-5.12-2a94.9,94.9,0,0,1-10-4.56l-1-.59-0.1-9.72,0.81-.62h0s2.32-2,3.08-8l0.31-2.38,2.3,0.68a6.47,6.47,0,0,0,1.25-2.63,9.39,9.39,0,0,0-.47-3.59l-2.38.5,0.37-2.86a48.6,48.6,0,0,0,.62-7.82C54.7,9.5,49.44,4.1,41.5,4.1S28.31,9.5,27.8,14.71a49.46,49.46,0,0,0,.62,7.82l0.36,2.86-2.38-.5a9.31,9.31,0,0,0-.47,3.56,4.34,4.34,0,0,0,1.54,2.65l2.31-.67,0,2.39c0.77,6,3.09,8,3.12,8l0.74,0.62,0,1L33.6,51.18l-1,.59a95.87,95.87,0,0,1-10,4.55c-1.73.72-3.46,1.38-5.12,2C12,60.47,6.87,62.46,5.38,64.79,4.38,66.35,4,73.94,4.15,80.81Z"/>
</svg>
